%TF.GenerationSoftware,KiCad,Pcbnew,9.0.0*%
%TF.CreationDate,2025-03-31T22:17:34-07:00*%
%TF.ProjectId,DustBin_PCB,44757374-4269-46e5-9f50-43422e6b6963,rev?*%
%TF.SameCoordinates,Original*%
%TF.FileFunction,Copper,L2,Bot*%
%TF.FilePolarity,Positive*%
%FSLAX46Y46*%
G04 Gerber Fmt 4.6, Leading zero omitted, Abs format (unit mm)*
G04 Created by KiCad (PCBNEW 9.0.0) date 2025-03-31 22:17:34*
%MOMM*%
%LPD*%
G01*
G04 APERTURE LIST*
%TA.AperFunction,ComponentPad*%
%ADD10O,1.500000X1.900000*%
%TD*%
%TA.AperFunction,ComponentPad*%
%ADD11C,1.800000*%
%TD*%
%TA.AperFunction,ComponentPad*%
%ADD12R,1.800000X1.800000*%
%TD*%
%TA.AperFunction,ComponentPad*%
%ADD13O,1.600000X1.600000*%
%TD*%
%TA.AperFunction,ComponentPad*%
%ADD14C,1.600000*%
%TD*%
%TA.AperFunction,ComponentPad*%
%ADD15C,1.308000*%
%TD*%
%TA.AperFunction,ComponentPad*%
%ADD16R,1.308000X1.308000*%
%TD*%
%TA.AperFunction,ComponentPad*%
%ADD17R,1.700000X1.700000*%
%TD*%
%TA.AperFunction,ComponentPad*%
%ADD18O,1.700000X1.700000*%
%TD*%
%TA.AperFunction,ComponentPad*%
%ADD19C,1.524000*%
%TD*%
%TA.AperFunction,ViaPad*%
%ADD20C,0.600000*%
%TD*%
%TA.AperFunction,Conductor*%
%ADD21C,0.200000*%
%TD*%
G04 APERTURE END LIST*
D10*
%TO.P,POT_SENSITIVITY1,1,1*%
%TO.N,GND*%
X38000000Y-63500000D03*
%TO.P,POT_SENSITIVITY1,2,2*%
%TO.N,Net-(U1-PA7_A8_D8_SCK)*%
X43000000Y-63500000D03*
%TO.P,POT_SENSITIVITY1,3,3*%
%TO.N,+3.3V*%
X48000000Y-63500000D03*
%TD*%
D11*
%TO.P,GREEN_EMF1,2,A*%
%TO.N,Net-(GREEN_EMF1-A)*%
X60000000Y-53500000D03*
D12*
%TO.P,GREEN_EMF1,1,K*%
%TO.N,Net-(GREEN_EMF1-K)*%
X57460000Y-53500000D03*
%TD*%
D13*
%TO.P,R4,2*%
%TO.N,Net-(U2-RX)*%
X39420000Y-31000000D03*
D14*
%TO.P,R4,1*%
%TO.N,Net-(U1-PB08_A6_D6_TX)*%
X49580000Y-31000000D03*
%TD*%
D10*
%TO.P,POT_RUN_T1,1,1*%
%TO.N,GND*%
X52500000Y-63500000D03*
%TO.P,POT_RUN_T1,2,2*%
%TO.N,Net-(U1-PA5_A9_D9_MISO)*%
X57500000Y-63500000D03*
%TO.P,POT_RUN_T1,3,3*%
%TO.N,+3.3V*%
X62500000Y-63500000D03*
%TD*%
D14*
%TO.P,R1,1*%
%TO.N,Net-(RED_Power1-K)*%
X39420000Y-40500000D03*
D13*
%TO.P,R1,2*%
%TO.N,GND*%
X49580000Y-40500000D03*
%TD*%
D12*
%TO.P,RED_Power1,1,K*%
%TO.N,Net-(RED_Power1-K)*%
X66000000Y-53500000D03*
D11*
%TO.P,RED_Power1,2,A*%
%TO.N,Net-(RED_Power1-A)*%
X68540000Y-53500000D03*
%TD*%
D15*
%TO.P,U2,4,DAC_R*%
%TO.N,unconnected-(U2-DAC_R-Pad4)*%
X28770000Y-26983000D03*
%TO.P,U2,5,DAC_L*%
%TO.N,unconnected-(U2-DAC_L-Pad5)*%
X26230000Y-26983000D03*
%TO.P,U2,13,ADKEY2*%
%TO.N,unconnected-(U2-ADKEY2-Pad13)*%
X28770000Y-45017000D03*
%TO.P,U2,12,ADKEY1*%
%TO.N,unconnected-(U2-ADKEY1-Pad12)*%
X26230000Y-45017000D03*
%TO.P,U2,6,SPK1*%
%TO.N,Net-(U2-SPK1)*%
X23690000Y-26983000D03*
%TO.P,U2,3,TX*%
%TO.N,Net-(U2-TX)*%
X31310000Y-26983000D03*
%TO.P,U2,14,USB+*%
%TO.N,unconnected-(U2-USB+-Pad14)*%
X31310000Y-45017000D03*
%TO.P,U2,11,IO2*%
%TO.N,unconnected-(U2-IO2-Pad11)*%
X23690000Y-45017000D03*
%TO.P,U2,2,RX*%
%TO.N,Net-(U2-RX)*%
X33850000Y-26983000D03*
%TO.P,U2,15,USB-*%
%TO.N,unconnected-(U2-USB--Pad15)*%
X33850000Y-45017000D03*
%TO.P,U2,7,GND*%
%TO.N,GND*%
X21150000Y-26983000D03*
%TO.P,U2,10,GND__1*%
%TO.N,unconnected-(U2-GND__1-Pad10)*%
X21150000Y-45017000D03*
D16*
%TO.P,U2,1,VCC*%
%TO.N,+5V*%
X36390000Y-26983000D03*
D15*
%TO.P,U2,16,BUSY*%
%TO.N,unconnected-(U2-BUSY-Pad16)*%
X36390000Y-45017000D03*
%TO.P,U2,8,SPK2*%
%TO.N,unconnected-(U2-SPK2-Pad8)*%
X18610000Y-26983000D03*
%TO.P,U2,9,IO1*%
%TO.N,unconnected-(U2-IO1-Pad9)*%
X18610000Y-45017000D03*
%TD*%
D17*
%TO.P,SPK1,1,1*%
%TO.N,GND*%
X27810000Y-22850000D03*
D18*
%TO.P,SPK1,2,2*%
%TO.N,Net-(U2-SPK1)*%
X30350000Y-22850000D03*
%TD*%
D17*
%TO.P,RELAY2,1,Pin_1*%
%TO.N,GND*%
X21920000Y-51000000D03*
D18*
%TO.P,RELAY2,2,Pin_2*%
%TO.N,Net-(RELAY2-Pin_2)*%
X24460000Y-51000000D03*
%TO.P,RELAY2,3,Pin_3*%
%TO.N,+5V*%
X27000000Y-51000000D03*
%TD*%
D17*
%TO.P,RELAY1,1,Pin_1*%
%TO.N,GND*%
X21960000Y-57000000D03*
D18*
%TO.P,RELAY1,2,Pin_2*%
%TO.N,Net-(RELAY1-Pin_2)*%
X24500000Y-57000000D03*
%TO.P,RELAY1,3,Pin_3*%
%TO.N,+5V*%
X27040000Y-57000000D03*
%TD*%
D14*
%TO.P,R5,1*%
%TO.N,Net-(Antenna1-Pin_1)*%
X52500000Y-24000000D03*
D13*
%TO.P,R5,2*%
%TO.N,+3.3V*%
X42340000Y-24000000D03*
%TD*%
D14*
%TO.P,R3,1*%
%TO.N,Net-(U1-PB09_A7_D7_RX)*%
X49580000Y-35000000D03*
D13*
%TO.P,R3,2*%
%TO.N,Net-(U2-TX)*%
X39420000Y-35000000D03*
%TD*%
D14*
%TO.P,R2,1*%
%TO.N,Net-(GREEN_EMF1-K)*%
X39420000Y-45000000D03*
D13*
%TO.P,R2,2*%
%TO.N,GND*%
X49580000Y-45000000D03*
%TD*%
D17*
%TO.P,Antenna1,1,Pin_1*%
%TO.N,Net-(Antenna1-Pin_1)*%
X56801500Y-23620000D03*
%TD*%
D19*
%TO.P,U1,1,PA02_A0_D0*%
%TO.N,unconnected-(U1-PA02_A0_D0-Pad1)*%
X69301500Y-30880000D03*
%TO.P,U1,2,PA4_A1_D1*%
%TO.N,Net-(RED_Power1-A)*%
X66761500Y-30880000D03*
%TO.P,U1,3,PA10_A2_D2*%
%TO.N,Net-(GREEN_EMF1-A)*%
X64221500Y-30880000D03*
%TO.P,U1,4,PA11_A3_D3*%
%TO.N,Net-(RELAY1-Pin_2)*%
X61681500Y-30880000D03*
%TO.P,U1,5,PA8_A4_D4_SDA*%
%TO.N,Net-(RELAY2-Pin_2)*%
X59141500Y-30880000D03*
%TO.P,U1,6,PA9_A5_D5_SCL*%
%TO.N,Net-(Antenna1-Pin_1)*%
X56601500Y-30880000D03*
%TO.P,U1,7,PB08_A6_D6_TX*%
%TO.N,Net-(U1-PB08_A6_D6_TX)*%
X54061500Y-30880000D03*
%TO.P,U1,8,PB09_A7_D7_RX*%
%TO.N,Net-(U1-PB09_A7_D7_RX)*%
X54061500Y-46120000D03*
%TO.P,U1,9,PA7_A8_D8_SCK*%
%TO.N,Net-(U1-PA7_A8_D8_SCK)*%
X56601500Y-46120000D03*
%TO.P,U1,10,PA5_A9_D9_MISO*%
%TO.N,Net-(U1-PA5_A9_D9_MISO)*%
X59141500Y-46120000D03*
%TO.P,U1,11,PA6_A10_D10_MOSI*%
%TO.N,unconnected-(U1-PA6_A10_D10_MOSI-Pad11)*%
X61681500Y-46120000D03*
%TO.P,U1,12,3V3*%
%TO.N,+3.3V*%
X64221500Y-46120000D03*
%TO.P,U1,13,GND*%
%TO.N,GND*%
X66761500Y-46120000D03*
%TO.P,U1,14,5V*%
%TO.N,+5V*%
X69301500Y-46120000D03*
%TD*%
D20*
%TO.N,+5V*%
X27500000Y-38500000D03*
%TD*%
D21*
%TO.N,Net-(U1-PA7_A8_D8_SCK)*%
X56601500Y-46120000D02*
X43000000Y-59721500D01*
X43000000Y-59721500D02*
X43000000Y-63500000D01*
%TO.N,+3.3V*%
X64221500Y-46120000D02*
X70000000Y-51898500D01*
X70000000Y-51898500D02*
X70000000Y-56000000D01*
X70000000Y-56000000D02*
X62500000Y-63500000D01*
%TO.N,Net-(RED_Power1-A)*%
X68540000Y-53500000D02*
X63000000Y-47960000D01*
X63000000Y-47960000D02*
X63000000Y-34641500D01*
X63000000Y-34641500D02*
X66761500Y-30880000D01*
%TO.N,Net-(U1-PA5_A9_D9_MISO)*%
X57500000Y-63500000D02*
X61500000Y-59500000D01*
X61500000Y-59500000D02*
X61500000Y-48478500D01*
X61500000Y-48478500D02*
X59141500Y-46120000D01*
%TO.N,GND*%
X49580000Y-45000000D02*
X46831575Y-45000000D01*
X46831575Y-45000000D02*
X30331575Y-28500000D01*
X30331575Y-28500000D02*
X22667000Y-28500000D01*
X22667000Y-28500000D02*
X21150000Y-26983000D01*
%TO.N,Net-(U2-SPK1)*%
X30350000Y-22850000D02*
X27350000Y-25850000D01*
X24823000Y-25850000D02*
X23690000Y-26983000D01*
X27350000Y-25850000D02*
X24823000Y-25850000D01*
%TO.N,+5V*%
X27000000Y-51000000D02*
X27000000Y-56960000D01*
X27000000Y-56960000D02*
X27040000Y-57000000D01*
X27500000Y-38500000D02*
X27500000Y-50500000D01*
X27500000Y-50500000D02*
X27000000Y-51000000D01*
X27040000Y-51040000D02*
X27000000Y-51000000D01*
%TO.N,Net-(GREEN_EMF1-A)*%
X60000000Y-53500000D02*
X58078500Y-51578500D01*
X58078500Y-51578500D02*
X58078500Y-37023000D01*
X58078500Y-37023000D02*
X64221500Y-30880000D01*
%TO.N,GND*%
X71000000Y-66000000D02*
X52500000Y-66000000D01*
X52500000Y-63500000D02*
X52500000Y-66000000D01*
X52500000Y-66000000D02*
X38000000Y-66000000D01*
X38000000Y-63500000D02*
X38000000Y-66000000D01*
X21960000Y-57000000D02*
X21960000Y-51040000D01*
X21960000Y-51040000D02*
X21920000Y-51000000D01*
X66761500Y-46120000D02*
X71000000Y-50358500D01*
X71000000Y-50358500D02*
X71000000Y-66000000D01*
X38000000Y-66000000D02*
X30960000Y-66000000D01*
X30960000Y-66000000D02*
X21960000Y-57000000D01*
%TO.N,Net-(U1-PB08_A6_D6_TX)*%
X49580000Y-31000000D02*
X53941500Y-31000000D01*
X53941500Y-31000000D02*
X54061500Y-30880000D01*
%TO.N,Net-(U2-TX)*%
X39420000Y-35000000D02*
X31403000Y-26983000D01*
X31403000Y-26983000D02*
X31310000Y-26983000D01*
%TO.N,Net-(U2-RX)*%
X39420000Y-31000000D02*
X37867000Y-31000000D01*
X37867000Y-31000000D02*
X33850000Y-26983000D01*
%TO.N,GND*%
X27810000Y-22850000D02*
X25283000Y-22850000D01*
X25283000Y-22850000D02*
X21150000Y-26983000D01*
%TO.N,+3.3V*%
X46500000Y-24000000D02*
X51000000Y-28500000D01*
X42340000Y-24000000D02*
X46500000Y-24000000D01*
X51000000Y-28500000D02*
X65884810Y-28500000D01*
X65884810Y-28500000D02*
X67824500Y-30439690D01*
X67824500Y-30439690D02*
X67824500Y-42517000D01*
X67824500Y-42517000D02*
X64221500Y-46120000D01*
%TD*%
%TA.AperFunction,Conductor*%
%TO.N,GND*%
G36*
X71442539Y-20520185D02*
G01*
X71488294Y-20572989D01*
X71499500Y-20624500D01*
X71499500Y-66375500D01*
X71479815Y-66442539D01*
X71427011Y-66488294D01*
X71375500Y-66499500D01*
X17624500Y-66499500D01*
X17557461Y-66479815D01*
X17511706Y-66427011D01*
X17500500Y-66375500D01*
X17500500Y-62852486D01*
X18249500Y-62852486D01*
X18249500Y-63147513D01*
X18265417Y-63268409D01*
X18288007Y-63439993D01*
X18345045Y-63652862D01*
X18364361Y-63724951D01*
X18364364Y-63724961D01*
X18477254Y-63997500D01*
X18477258Y-63997510D01*
X18624761Y-64252993D01*
X18804352Y-64487040D01*
X18804358Y-64487047D01*
X19012952Y-64695641D01*
X19012959Y-64695647D01*
X19247006Y-64875238D01*
X19502489Y-65022741D01*
X19502490Y-65022741D01*
X19502493Y-65022743D01*
X19775048Y-65135639D01*
X20060007Y-65211993D01*
X20352494Y-65250500D01*
X20352501Y-65250500D01*
X20647499Y-65250500D01*
X20647506Y-65250500D01*
X20939993Y-65211993D01*
X21224952Y-65135639D01*
X21497507Y-65022743D01*
X21752994Y-64875238D01*
X21987042Y-64695646D01*
X22028863Y-64653825D01*
X22158114Y-64524575D01*
X22195641Y-64487047D01*
X22195646Y-64487042D01*
X22375238Y-64252994D01*
X22522743Y-63997507D01*
X22635639Y-63724952D01*
X22711993Y-63439993D01*
X22743376Y-63201617D01*
X36750000Y-63201617D01*
X36750000Y-63798382D01*
X36780778Y-63992705D01*
X36841581Y-64179835D01*
X36883783Y-64262662D01*
X37435387Y-63711059D01*
X37440889Y-63731591D01*
X37519881Y-63868408D01*
X37631592Y-63980119D01*
X37768409Y-64059111D01*
X37788939Y-64064612D01*
X37194034Y-64659515D01*
X37344856Y-64769095D01*
X37520164Y-64858418D01*
X37707294Y-64919221D01*
X37901618Y-64950000D01*
X38098382Y-64950000D01*
X38292705Y-64919221D01*
X38479835Y-64858418D01*
X38655135Y-64769099D01*
X38655141Y-64769095D01*
X38805963Y-64659515D01*
X38805964Y-64659515D01*
X38211060Y-64064612D01*
X38231591Y-64059111D01*
X38368408Y-63980119D01*
X38480119Y-63868408D01*
X38559111Y-63731591D01*
X38564612Y-63711060D01*
X39116214Y-64262663D01*
X39158417Y-64179838D01*
X39158420Y-64179831D01*
X39219221Y-63992705D01*
X39250000Y-63798382D01*
X39250000Y-63201617D01*
X39219221Y-63007294D01*
X39158420Y-62820169D01*
X39116214Y-62737335D01*
X38564611Y-63288938D01*
X38559111Y-63268409D01*
X38480119Y-63131592D01*
X38368408Y-63019881D01*
X38231591Y-62940889D01*
X38211060Y-62935387D01*
X38805964Y-62340484D01*
X38805963Y-62340483D01*
X38655143Y-62230904D01*
X38479835Y-62141581D01*
X38292705Y-62080778D01*
X38098382Y-62050000D01*
X37901618Y-62050000D01*
X37707294Y-62080778D01*
X37520164Y-62141581D01*
X37344855Y-62230905D01*
X37344852Y-62230907D01*
X37194035Y-62340483D01*
X37194034Y-62340483D01*
X37788939Y-62935387D01*
X37768409Y-62940889D01*
X37631592Y-63019881D01*
X37519881Y-63131592D01*
X37440889Y-63268409D01*
X37435387Y-63288939D01*
X36883783Y-62737335D01*
X36883783Y-62737336D01*
X36841582Y-62820161D01*
X36780778Y-63007294D01*
X36750000Y-63201617D01*
X22743376Y-63201617D01*
X22746148Y-63180565D01*
X22746148Y-63180564D01*
X22747164Y-63172839D01*
X22750500Y-63147506D01*
X22750500Y-62852494D01*
X22711993Y-62560007D01*
X22635639Y-62275048D01*
X22522743Y-62002493D01*
X22375238Y-61747006D01*
X22195646Y-61512958D01*
X22195641Y-61512952D01*
X21987047Y-61304358D01*
X21987040Y-61304352D01*
X21752993Y-61124761D01*
X21497510Y-60977258D01*
X21497500Y-60977254D01*
X21224961Y-60864364D01*
X21224954Y-60864362D01*
X21224952Y-60864361D01*
X20939993Y-60788007D01*
X20891113Y-60781571D01*
X20647513Y-60749500D01*
X20647506Y-60749500D01*
X20352494Y-60749500D01*
X20352486Y-60749500D01*
X20074085Y-60786153D01*
X20060007Y-60788007D01*
X19775048Y-60864361D01*
X19775038Y-60864364D01*
X19502499Y-60977254D01*
X19502489Y-60977258D01*
X19247006Y-61124761D01*
X19012959Y-61304352D01*
X19012952Y-61304358D01*
X18804358Y-61512952D01*
X18804352Y-61512959D01*
X18624761Y-61747006D01*
X18477258Y-62002489D01*
X18477254Y-62002499D01*
X18364364Y-62275038D01*
X18364361Y-62275048D01*
X18325566Y-62419836D01*
X18288008Y-62560004D01*
X18288006Y-62560015D01*
X18249500Y-62852486D01*
X17500500Y-62852486D01*
X17500500Y-45835688D01*
X17520185Y-45768649D01*
X17572989Y-45722894D01*
X17642147Y-45712950D01*
X17705703Y-45741975D01*
X17724815Y-45762799D01*
X17729397Y-45769106D01*
X17857894Y-45897603D01*
X18004910Y-46004417D01*
X18166826Y-46086917D01*
X18166828Y-46086918D01*
X18244907Y-46112287D01*
X18339654Y-46143072D01*
X18519139Y-46171500D01*
X18519140Y-46171500D01*
X18700860Y-46171500D01*
X18700861Y-46171500D01*
X18880346Y-46143072D01*
X18880349Y-46143071D01*
X18880350Y-46143071D01*
X19053171Y-46086918D01*
X19053171Y-46086917D01*
X19053174Y-46086917D01*
X19215090Y-46004417D01*
X19362106Y-45897603D01*
X19490603Y-45769106D01*
X19597417Y-45622090D01*
X19679917Y-45460174D01*
X19725436Y-45320080D01*
X19736071Y-45287350D01*
X19736071Y-45287349D01*
X19736072Y-45287346D01*
X19757527Y-45151884D01*
X19787456Y-45088750D01*
X19846768Y-45051819D01*
X19916630Y-45052817D01*
X19974863Y-45091427D01*
X20002473Y-45151885D01*
X20023928Y-45287347D01*
X20023928Y-45287350D01*
X20080081Y-45460171D01*
X20080083Y-45460174D01*
X20162583Y-45622090D01*
X20269397Y-45769106D01*
X20397894Y-45897603D01*
X20544910Y-46004417D01*
X20706826Y-46086917D01*
X20706828Y-46086918D01*
X20784907Y-46112287D01*
X20879654Y-46143072D01*
X21059139Y-46171500D01*
X21059140Y-46171500D01*
X21240860Y-46171500D01*
X21240861Y-46171500D01*
X21420346Y-46143072D01*
X21420349Y-46143071D01*
X21420350Y-46143071D01*
X21593171Y-46086918D01*
X21593171Y-46086917D01*
X21593174Y-46086917D01*
X21755090Y-46004417D01*
X21902106Y-45897603D01*
X22030603Y-45769106D01*
X22137417Y-45622090D01*
X22219917Y-45460174D01*
X22265436Y-45320080D01*
X22276071Y-45287350D01*
X22276071Y-45287349D01*
X22276072Y-45287346D01*
X22297527Y-45151884D01*
X22327456Y-45088750D01*
X22386768Y-45051819D01*
X22456630Y-45052817D01*
X22514863Y-45091427D01*
X22542473Y-45151885D01*
X22563928Y-45287347D01*
X22563928Y-45287350D01*
X22620081Y-45460171D01*
X22620083Y-45460174D01*
X22702583Y-45622090D01*
X22809397Y-45769106D01*
X22937894Y-45897603D01*
X23084910Y-46004417D01*
X23246826Y-46086917D01*
X23246828Y-46086918D01*
X23324907Y-46112287D01*
X23419654Y-46143072D01*
X23599139Y-46171500D01*
X23599140Y-46171500D01*
X23780860Y-46171500D01*
X23780861Y-46171500D01*
X23960346Y-46143072D01*
X23960349Y-46143071D01*
X23960350Y-46143071D01*
X24133171Y-46086918D01*
X24133171Y-46086917D01*
X24133174Y-46086917D01*
X24295090Y-46004417D01*
X24442106Y-45897603D01*
X24570603Y-45769106D01*
X24677417Y-45622090D01*
X24759917Y-45460174D01*
X24805436Y-45320080D01*
X24816071Y-45287350D01*
X24816071Y-45287349D01*
X24816072Y-45287346D01*
X24837527Y-45151884D01*
X24867456Y-45088750D01*
X24926768Y-45051819D01*
X24996630Y-45052817D01*
X25054863Y-45091427D01*
X25082473Y-45151885D01*
X25103928Y-45287347D01*
X25103928Y-45287350D01*
X25160081Y-45460171D01*
X25160083Y-45460174D01*
X25242583Y-45622090D01*
X25349397Y-45769106D01*
X25477894Y-45897603D01*
X25624910Y-46004417D01*
X25786826Y-46086917D01*
X25786828Y-46086918D01*
X25864907Y-46112287D01*
X25959654Y-46143072D01*
X26139139Y-46171500D01*
X26139140Y-46171500D01*
X26320860Y-46171500D01*
X26320861Y-46171500D01*
X26500346Y-46143072D01*
X26500349Y-46143071D01*
X26500350Y-46143071D01*
X26673171Y-46086918D01*
X26673174Y-46086917D01*
X26719205Y-46063463D01*
X26787874Y-46050567D01*
X26852615Y-46076843D01*
X26892872Y-46133949D01*
X26899500Y-46173948D01*
X26899500Y-49542677D01*
X26879815Y-49609716D01*
X26827011Y-49655471D01*
X26794899Y-49665150D01*
X26683759Y-49682753D01*
X26481585Y-49748444D01*
X26292179Y-49844951D01*
X26120213Y-49969890D01*
X25969890Y-50120213D01*
X25844949Y-50292182D01*
X25840484Y-50300946D01*
X25792509Y-50351742D01*
X25724688Y-50368536D01*
X25658553Y-50345998D01*
X25619516Y-50300946D01*
X25615050Y-50292182D01*
X25490109Y-50120213D01*
X25339786Y-49969890D01*
X25167820Y-49844951D01*
X24978414Y-49748444D01*
X24978413Y-49748443D01*
X24978412Y-49748443D01*
X24776243Y-49682754D01*
X24776241Y-49682753D01*
X24776240Y-49682753D01*
X24614957Y-49657208D01*
X24566287Y-49649500D01*
X24353713Y-49649500D01*
X24305042Y-49657208D01*
X24143760Y-49682753D01*
X23941585Y-49748444D01*
X23752179Y-49844951D01*
X23580215Y-49969889D01*
X23466285Y-50083819D01*
X23404962Y-50117303D01*
X23335270Y-50112319D01*
X23279337Y-50070447D01*
X23262422Y-50039470D01*
X23213354Y-49907913D01*
X23213350Y-49907906D01*
X23127190Y-49792812D01*
X23127187Y-49792809D01*
X23012093Y-49706649D01*
X23012086Y-49706645D01*
X22877379Y-49656403D01*
X22877372Y-49656401D01*
X22817844Y-49650000D01*
X22170000Y-49650000D01*
X22170000Y-50566988D01*
X22112993Y-50534075D01*
X21985826Y-50500000D01*
X21854174Y-50500000D01*
X21727007Y-50534075D01*
X21670000Y-50566988D01*
X21670000Y-49650000D01*
X21022155Y-49650000D01*
X20962627Y-49656401D01*
X20962620Y-49656403D01*
X20827913Y-49706645D01*
X20827906Y-49706649D01*
X20712812Y-49792809D01*
X20712809Y-49792812D01*
X20626649Y-49907906D01*
X20626645Y-49907913D01*
X20576403Y-50042620D01*
X20576401Y-50042627D01*
X20570000Y-50102155D01*
X20570000Y-50750000D01*
X21486988Y-50750000D01*
X21454075Y-50807007D01*
X21420000Y-50934174D01*
X21420000Y-51065826D01*
X21454075Y-51192993D01*
X21486988Y-51250000D01*
X20570000Y-51250000D01*
X20570000Y-51897844D01*
X20576401Y-51957372D01*
X20576403Y-51957379D01*
X20626645Y-52092086D01*
X20626649Y-52092093D01*
X20712809Y-52207187D01*
X20712812Y-52207190D01*
X20827906Y-52293350D01*
X20827913Y-52293354D01*
X20962620Y-52343596D01*
X20962627Y-52343598D01*
X21022155Y-52349999D01*
X21022172Y-52350000D01*
X21670000Y-52350000D01*
X21670000Y-51433012D01*
X21727007Y-51465925D01*
X21854174Y-51500000D01*
X21985826Y-51500000D01*
X22112993Y-51465925D01*
X22170000Y-51433012D01*
X22170000Y-52350000D01*
X22817828Y-52350000D01*
X22817844Y-52349999D01*
X22877372Y-52343598D01*
X22877379Y-52343596D01*
X23012086Y-52293354D01*
X23012093Y-52293350D01*
X23127187Y-52207190D01*
X23127190Y-52207187D01*
X23213350Y-52092093D01*
X23213354Y-52092086D01*
X23262422Y-51960529D01*
X23304293Y-51904595D01*
X23369757Y-51880178D01*
X23438030Y-51895030D01*
X23466285Y-51916181D01*
X23580213Y-52030109D01*
X23752179Y-52155048D01*
X23752181Y-52155049D01*
X23752184Y-52155051D01*
X23941588Y-52251557D01*
X24143757Y-52317246D01*
X24353713Y-52350500D01*
X24353714Y-52350500D01*
X24566286Y-52350500D01*
X24566287Y-52350500D01*
X24776243Y-52317246D01*
X24978412Y-52251557D01*
X25167816Y-52155051D01*
X25254471Y-52092093D01*
X25339786Y-52030109D01*
X25339788Y-52030106D01*
X25339792Y-52030104D01*
X25490104Y-51879792D01*
X25490106Y-51879788D01*
X25490109Y-51879786D01*
X25615048Y-51707820D01*
X25615047Y-51707820D01*
X25615051Y-51707816D01*
X25619514Y-51699054D01*
X25667488Y-51648259D01*
X25735308Y-51631463D01*
X25801444Y-51653999D01*
X25840486Y-51699056D01*
X25844951Y-51707820D01*
X25969890Y-51879786D01*
X26120213Y-52030109D01*
X26292184Y-52155051D01*
X26292184Y-52155052D01*
X26331793Y-52175233D01*
X26382590Y-52223206D01*
X26399500Y-52285718D01*
X26399500Y-55734662D01*
X26379815Y-55801701D01*
X26335798Y-55841527D01*
X26336336Y-55842404D01*
X26332184Y-55844948D01*
X26160213Y-55969890D01*
X26009890Y-56120213D01*
X25884949Y-56292182D01*
X25880484Y-56300946D01*
X25832509Y-56351742D01*
X25764688Y-56368536D01*
X25698553Y-56345998D01*
X25659516Y-56300946D01*
X25655050Y-56292182D01*
X25530109Y-56120213D01*
X25379786Y-55969890D01*
X25207820Y-55844951D01*
X25018414Y-55748444D01*
X25018413Y-55748443D01*
X25018412Y-55748443D01*
X24816243Y-55682754D01*
X24816241Y-55682753D01*
X24816240Y-55682753D01*
X24654957Y-55657208D01*
X24606287Y-55649500D01*
X24393713Y-55649500D01*
X24345042Y-55657208D01*
X24183760Y-55682753D01*
X23981585Y-55748444D01*
X23792179Y-55844951D01*
X23620215Y-55969889D01*
X23506285Y-56083819D01*
X23444962Y-56117303D01*
X23375270Y-56112319D01*
X23319337Y-56070447D01*
X23302422Y-56039470D01*
X23253354Y-55907913D01*
X23253350Y-55907906D01*
X23167190Y-55792812D01*
X23167187Y-55792809D01*
X23052093Y-55706649D01*
X23052086Y-55706645D01*
X22917379Y-55656403D01*
X22917372Y-55656401D01*
X22857844Y-55650000D01*
X22210000Y-55650000D01*
X22210000Y-56566988D01*
X22152993Y-56534075D01*
X22025826Y-56500000D01*
X21894174Y-56500000D01*
X21767007Y-56534075D01*
X21710000Y-56566988D01*
X21710000Y-55650000D01*
X21062155Y-55650000D01*
X21002627Y-55656401D01*
X21002620Y-55656403D01*
X20867913Y-55706645D01*
X20867906Y-55706649D01*
X20752812Y-55792809D01*
X20752809Y-55792812D01*
X20666649Y-55907906D01*
X20666645Y-55907913D01*
X20616403Y-56042620D01*
X20616401Y-56042627D01*
X20610000Y-56102155D01*
X20610000Y-56750000D01*
X21526988Y-56750000D01*
X21494075Y-56807007D01*
X21460000Y-56934174D01*
X21460000Y-57065826D01*
X21494075Y-57192993D01*
X21526988Y-57250000D01*
X20610000Y-57250000D01*
X20610000Y-57897844D01*
X20616401Y-57957372D01*
X20616403Y-57957379D01*
X20666645Y-58092086D01*
X20666649Y-58092093D01*
X20752809Y-58207187D01*
X20752812Y-58207190D01*
X20867906Y-58293350D01*
X20867913Y-58293354D01*
X21002620Y-58343596D01*
X21002627Y-58343598D01*
X21062155Y-58349999D01*
X21062172Y-58350000D01*
X21710000Y-58350000D01*
X21710000Y-57433012D01*
X21767007Y-57465925D01*
X21894174Y-57500000D01*
X22025826Y-57500000D01*
X22152993Y-57465925D01*
X22210000Y-57433012D01*
X22210000Y-58350000D01*
X22857828Y-58350000D01*
X22857844Y-58349999D01*
X22917372Y-58343598D01*
X22917379Y-58343596D01*
X23052086Y-58293354D01*
X23052093Y-58293350D01*
X23167187Y-58207190D01*
X23167190Y-58207187D01*
X23253350Y-58092093D01*
X23253354Y-58092086D01*
X23302422Y-57960529D01*
X23344293Y-57904595D01*
X23409757Y-57880178D01*
X23478030Y-57895030D01*
X23506285Y-57916181D01*
X23620213Y-58030109D01*
X23792179Y-58155048D01*
X23792181Y-58155049D01*
X23792184Y-58155051D01*
X23981588Y-58251557D01*
X24183757Y-58317246D01*
X24393713Y-58350500D01*
X24393714Y-58350500D01*
X24606286Y-58350500D01*
X24606287Y-58350500D01*
X24816243Y-58317246D01*
X25018412Y-58251557D01*
X25207816Y-58155051D01*
X25294471Y-58092093D01*
X25379786Y-58030109D01*
X25379788Y-58030106D01*
X25379792Y-58030104D01*
X25530104Y-57879792D01*
X25530106Y-57879788D01*
X25530109Y-57879786D01*
X25655048Y-57707820D01*
X25655047Y-57707820D01*
X25655051Y-57707816D01*
X25659514Y-57699054D01*
X25707488Y-57648259D01*
X25775308Y-57631463D01*
X25841444Y-57653999D01*
X25880486Y-57699056D01*
X25884951Y-57707820D01*
X26009890Y-57879786D01*
X26160213Y-58030109D01*
X26332179Y-58155048D01*
X26332181Y-58155049D01*
X26332184Y-58155051D01*
X26521588Y-58251557D01*
X26723757Y-58317246D01*
X26933713Y-58350500D01*
X26933714Y-58350500D01*
X27146286Y-58350500D01*
X27146287Y-58350500D01*
X27356243Y-58317246D01*
X27558412Y-58251557D01*
X27747816Y-58155051D01*
X27834471Y-58092093D01*
X27919786Y-58030109D01*
X27919788Y-58030106D01*
X27919792Y-58030104D01*
X28070104Y-57879792D01*
X28070106Y-57879788D01*
X28070109Y-57879786D01*
X28195048Y-57707820D01*
X28195047Y-57707820D01*
X28195051Y-57707816D01*
X28291557Y-57518412D01*
X28357246Y-57316243D01*
X28390500Y-57106287D01*
X28390500Y-56893713D01*
X28357246Y-56683757D01*
X28291557Y-56481588D01*
X28195051Y-56292184D01*
X28195049Y-56292181D01*
X28195048Y-56292179D01*
X28070109Y-56120213D01*
X27919786Y-55969890D01*
X27747817Y-55844949D01*
X27668204Y-55804383D01*
X27617408Y-55756408D01*
X27600500Y-55693899D01*
X27600500Y-52285718D01*
X27620185Y-52218679D01*
X27668207Y-52175233D01*
X27707815Y-52155052D01*
X27707815Y-52155051D01*
X27707816Y-52155051D01*
X27839991Y-52059021D01*
X27879786Y-52030109D01*
X27879788Y-52030106D01*
X27879792Y-52030104D01*
X28030104Y-51879792D01*
X28030106Y-51879788D01*
X28030109Y-51879786D01*
X28155048Y-51707820D01*
X28155047Y-51707820D01*
X28155051Y-51707816D01*
X28251557Y-51518412D01*
X28317246Y-51316243D01*
X28350500Y-51106287D01*
X28350500Y-50893713D01*
X28317246Y-50683757D01*
X28251557Y-50481588D01*
X28155051Y-50292184D01*
X28124181Y-50249694D01*
X28100702Y-50183887D01*
X28100500Y-50176810D01*
X28100500Y-46173948D01*
X28120185Y-46106909D01*
X28172989Y-46061154D01*
X28242147Y-46051210D01*
X28280795Y-46063463D01*
X28326825Y-46086917D01*
X28326828Y-46086918D01*
X28404907Y-46112287D01*
X28499654Y-46143072D01*
X28679139Y-46171500D01*
X28679140Y-46171500D01*
X28860860Y-46171500D01*
X28860861Y-46171500D01*
X29040346Y-46143072D01*
X29040349Y-46143071D01*
X29040350Y-46143071D01*
X29213171Y-46086918D01*
X29213171Y-46086917D01*
X29213174Y-46086917D01*
X29375090Y-46004417D01*
X29522106Y-45897603D01*
X29650603Y-45769106D01*
X29757417Y-45622090D01*
X29839917Y-45460174D01*
X29885436Y-45320080D01*
X29896071Y-45287350D01*
X29896071Y-45287349D01*
X29896072Y-45287346D01*
X29917527Y-45151884D01*
X29947456Y-45088750D01*
X30006768Y-45051819D01*
X30076630Y-45052817D01*
X30134863Y-45091427D01*
X30162473Y-45151885D01*
X30183928Y-45287347D01*
X30183928Y-45287350D01*
X30240081Y-45460171D01*
X30240083Y-45460174D01*
X30322583Y-45622090D01*
X30429397Y-45769106D01*
X30557894Y-45897603D01*
X30704910Y-46004417D01*
X30866826Y-46086917D01*
X30866828Y-46086918D01*
X30944907Y-46112287D01*
X31039654Y-46143072D01*
X31219139Y-46171500D01*
X31219140Y-46171500D01*
X31400860Y-46171500D01*
X31400861Y-46171500D01*
X31580346Y-46143072D01*
X31580349Y-46143071D01*
X31580350Y-46143071D01*
X31753171Y-46086918D01*
X31753171Y-46086917D01*
X31753174Y-46086917D01*
X31915090Y-46004417D01*
X32062106Y-45897603D01*
X32190603Y-45769106D01*
X32297417Y-45622090D01*
X32379917Y-45460174D01*
X32425436Y-45320080D01*
X32436071Y-45287350D01*
X32436071Y-45287349D01*
X32436072Y-45287346D01*
X32457527Y-45151884D01*
X32487456Y-45088750D01*
X32546768Y-45051819D01*
X32616630Y-45052817D01*
X32674863Y-45091427D01*
X32702473Y-45151885D01*
X32723928Y-45287347D01*
X32723928Y-45287350D01*
X32780081Y-45460171D01*
X32780083Y-45460174D01*
X32862583Y-45622090D01*
X32969397Y-45769106D01*
X33097894Y-45897603D01*
X33244910Y-46004417D01*
X33406826Y-46086917D01*
X33406828Y-46086918D01*
X33484907Y-46112287D01*
X33579654Y-46143072D01*
X33759139Y-46171500D01*
X33759140Y-46171500D01*
X33940860Y-46171500D01*
X33940861Y-46171500D01*
X34120346Y-46143072D01*
X34120349Y-46143071D01*
X34120350Y-46143071D01*
X34293171Y-46086918D01*
X34293171Y-46086917D01*
X34293174Y-46086917D01*
X34455090Y-46004417D01*
X34602106Y-45897603D01*
X34730603Y-45769106D01*
X34837417Y-45622090D01*
X34919917Y-45460174D01*
X34965436Y-45320080D01*
X34976071Y-45287350D01*
X34976071Y-45287349D01*
X34976072Y-45287346D01*
X34997527Y-45151884D01*
X35027456Y-45088750D01*
X35086768Y-45051819D01*
X35156630Y-45052817D01*
X35214863Y-45091427D01*
X35242473Y-45151885D01*
X35263928Y-45287347D01*
X35263928Y-45287350D01*
X35320081Y-45460171D01*
X35320083Y-45460174D01*
X35402583Y-45622090D01*
X35509397Y-45769106D01*
X35637894Y-45897603D01*
X35784910Y-46004417D01*
X35946826Y-46086917D01*
X35946828Y-46086918D01*
X36024907Y-46112287D01*
X36119654Y-46143072D01*
X36299139Y-46171500D01*
X36299140Y-46171500D01*
X36480860Y-46171500D01*
X36480861Y-46171500D01*
X36660346Y-46143072D01*
X36660349Y-46143071D01*
X36660350Y-46143071D01*
X36833171Y-46086918D01*
X36833171Y-46086917D01*
X36833174Y-46086917D01*
X36995090Y-46004417D01*
X37142106Y-45897603D01*
X37270603Y-45769106D01*
X37377417Y-45622090D01*
X37459917Y-45460174D01*
X37505436Y-45320080D01*
X37516071Y-45287350D01*
X37516071Y-45287349D01*
X37516072Y-45287346D01*
X37544500Y-45107861D01*
X37544500Y-44926139D01*
X37539987Y-44897648D01*
X38119500Y-44897648D01*
X38119500Y-45102352D01*
X38120373Y-45107861D01*
X38151522Y-45304534D01*
X38214781Y-45499223D01*
X38273661Y-45614780D01*
X38299543Y-45665576D01*
X38307715Y-45681613D01*
X38428028Y-45847213D01*
X38572786Y-45991971D01*
X38703471Y-46086917D01*
X38738390Y-46112287D01*
X38854602Y-46171500D01*
X38920776Y-46205218D01*
X38920778Y-46205218D01*
X38920781Y-46205220D01*
X38964303Y-46219361D01*
X39115465Y-46268477D01*
X39216557Y-46284488D01*
X39317648Y-46300500D01*
X39317649Y-46300500D01*
X39522351Y-46300500D01*
X39522352Y-46300500D01*
X39724534Y-46268477D01*
X39919219Y-46205220D01*
X40101610Y-46112287D01*
X40250082Y-46004417D01*
X40267213Y-45991971D01*
X40267215Y-45991968D01*
X40267219Y-45991966D01*
X40411966Y-45847219D01*
X40411968Y-45847215D01*
X40411971Y-45847213D01*
X40464732Y-45774590D01*
X40532287Y-45681610D01*
X40625220Y-45499219D01*
X40688477Y-45304534D01*
X40720500Y-45102352D01*
X40720500Y-44897648D01*
X40697114Y-44750000D01*
X48303391Y-44750000D01*
X49264314Y-44750000D01*
X49259920Y-44754394D01*
X49207259Y-44845606D01*
X49180000Y-44947339D01*
X49180000Y-45052661D01*
X49207259Y-45154394D01*
X49259920Y-45245606D01*
X49264314Y-45250000D01*
X48303391Y-45250000D01*
X48312009Y-45304413D01*
X48375244Y-45499029D01*
X48468140Y-45681349D01*
X48588417Y-45846894D01*
X48588417Y-45846895D01*
X48733104Y-45991582D01*
X48898650Y-46111859D01*
X49080968Y-46204754D01*
X49275578Y-46267988D01*
X49330000Y-46276607D01*
X49330000Y-45315686D01*
X49334394Y-45320080D01*
X49425606Y-45372741D01*
X49527339Y-45400000D01*
X49632661Y-45400000D01*
X49734394Y-45372741D01*
X49825606Y-45320080D01*
X49830000Y-45315686D01*
X49830000Y-46276606D01*
X49884421Y-46267988D01*
X50079031Y-46204754D01*
X50261349Y-46111859D01*
X50426894Y-45991582D01*
X50426895Y-45991582D01*
X50571582Y-45846895D01*
X50571582Y-45846894D01*
X50691859Y-45681349D01*
X50784755Y-45499029D01*
X50847990Y-45304413D01*
X50856609Y-45250000D01*
X49895686Y-45250000D01*
X49900080Y-45245606D01*
X49952741Y-45154394D01*
X49980000Y-45052661D01*
X49980000Y-44947339D01*
X49952741Y-44845606D01*
X49900080Y-44754394D01*
X49895686Y-44750000D01*
X50856609Y-44750000D01*
X50847990Y-44695586D01*
X50784755Y-44500970D01*
X50691859Y-44318650D01*
X50571582Y-44153105D01*
X50571582Y-44153104D01*
X50426895Y-44008417D01*
X50261349Y-43888140D01*
X50079029Y-43795244D01*
X49884413Y-43732009D01*
X49830000Y-43723390D01*
X49830000Y-44684314D01*
X49825606Y-44679920D01*
X49734394Y-44627259D01*
X49632661Y-44600000D01*
X49527339Y-44600000D01*
X49425606Y-44627259D01*
X49334394Y-44679920D01*
X49330000Y-44684314D01*
X49330000Y-43723390D01*
X49275586Y-43732009D01*
X49080970Y-43795244D01*
X48898650Y-43888140D01*
X48733105Y-44008417D01*
X48733104Y-44008417D01*
X48588417Y-44153104D01*
X48588417Y-44153105D01*
X48468140Y-44318650D01*
X48375244Y-44500970D01*
X48312009Y-44695586D01*
X48303391Y-44750000D01*
X40697114Y-44750000D01*
X40688477Y-44695466D01*
X40625220Y-44500781D01*
X40625218Y-44500778D01*
X40625218Y-44500776D01*
X40579937Y-44411909D01*
X40532287Y-44318390D01*
X40509651Y-44287234D01*
X40411971Y-44152786D01*
X40267213Y-44008028D01*
X40101613Y-43887715D01*
X40101612Y-43887714D01*
X40101610Y-43887713D01*
X40044653Y-43858691D01*
X39919223Y-43794781D01*
X39724534Y-43731522D01*
X39549995Y-43703878D01*
X39522352Y-43699500D01*
X39317648Y-43699500D01*
X39293329Y-43703351D01*
X39115465Y-43731522D01*
X38920776Y-43794781D01*
X38738386Y-43887715D01*
X38572786Y-44008028D01*
X38428028Y-44152786D01*
X38307715Y-44318386D01*
X38214781Y-44500776D01*
X38151522Y-44695465D01*
X38124425Y-44866552D01*
X38119500Y-44897648D01*
X37539987Y-44897648D01*
X37516072Y-44746654D01*
X37516071Y-44746650D01*
X37516071Y-44746649D01*
X37459918Y-44573828D01*
X37459916Y-44573825D01*
X37422699Y-44500781D01*
X37377417Y-44411910D01*
X37270603Y-44264894D01*
X37142106Y-44136397D01*
X36995090Y-44029583D01*
X36833174Y-43947083D01*
X36833171Y-43947081D01*
X36660348Y-43890928D01*
X36540689Y-43871976D01*
X36480861Y-43862500D01*
X36299139Y-43862500D01*
X36239310Y-43871976D01*
X36119652Y-43890928D01*
X36119649Y-43890928D01*
X35946828Y-43947081D01*
X35946825Y-43947083D01*
X35784909Y-44029583D01*
X35720501Y-44076379D01*
X35637894Y-44136397D01*
X35637892Y-44136399D01*
X35637891Y-44136399D01*
X35509399Y-44264891D01*
X35509399Y-44264892D01*
X35509397Y-44264894D01*
X35463525Y-44328030D01*
X35402583Y-44411909D01*
X35320083Y-44573825D01*
X35320081Y-44573828D01*
X35263928Y-44746649D01*
X35263928Y-44746652D01*
X35242473Y-44882114D01*
X35212544Y-44945249D01*
X35153232Y-44982180D01*
X35083370Y-44981182D01*
X35025137Y-44942572D01*
X34997527Y-44882114D01*
X34993708Y-44858000D01*
X34976072Y-44746654D01*
X34976071Y-44746650D01*
X34976071Y-44746649D01*
X34919918Y-44573828D01*
X34919916Y-44573825D01*
X34882699Y-44500781D01*
X34837417Y-44411910D01*
X34730603Y-44264894D01*
X34602106Y-44136397D01*
X34455090Y-44029583D01*
X34293174Y-43947083D01*
X34293171Y-43947081D01*
X34120348Y-43890928D01*
X34000689Y-43871976D01*
X33940861Y-43862500D01*
X33759139Y-43862500D01*
X33699310Y-43871976D01*
X33579652Y-43890928D01*
X33579649Y-43890928D01*
X33406828Y-43947081D01*
X33406825Y-43947083D01*
X33244909Y-44029583D01*
X33180501Y-44076379D01*
X33097894Y-44136397D01*
X33097892Y-44136399D01*
X33097891Y-44136399D01*
X32969399Y-44264891D01*
X32969399Y-44264892D01*
X32969397Y-44264894D01*
X32923525Y-44328030D01*
X32862583Y-44411909D01*
X32780083Y-44573825D01*
X32780081Y-44573828D01*
X32723928Y-44746649D01*
X32723928Y-44746652D01*
X32702473Y-44882114D01*
X32672544Y-44945249D01*
X32613232Y-44982180D01*
X32543370Y-44981182D01*
X32485137Y-44942572D01*
X32457527Y-44882114D01*
X32453708Y-44858000D01*
X32436072Y-44746654D01*
X32436071Y-44746650D01*
X32436071Y-44746649D01*
X32379918Y-44573828D01*
X32379916Y-44573825D01*
X32342699Y-44500781D01*
X32297417Y-44411910D01*
X32190603Y-44264894D01*
X32062106Y-44136397D01*
X31915090Y-44029583D01*
X31753174Y-43947083D01*
X31753171Y-43947081D01*
X31580348Y-43890928D01*
X31460689Y-43871976D01*
X31400861Y-43862500D01*
X31219139Y-43862500D01*
X31159310Y-43871976D01*
X31039652Y-43890928D01*
X31039649Y-43890928D01*
X30866828Y-43947081D01*
X30866825Y-43947083D01*
X30704909Y-44029583D01*
X30640501Y-44076379D01*
X30557894Y-44136397D01*
X30557892Y-44136399D01*
X30557891Y-44136399D01*
X30429399Y-44264891D01*
X30429399Y-44264892D01*
X30429397Y-44264894D01*
X30383525Y-44328030D01*
X30322583Y-44411909D01*
X30240083Y-44573825D01*
X30240081Y-44573828D01*
X30183928Y-44746649D01*
X30183928Y-44746652D01*
X30162473Y-44882114D01*
X30132544Y-44945249D01*
X30073232Y-44982180D01*
X30003370Y-44981182D01*
X29945137Y-44942572D01*
X29917527Y-44882114D01*
X29913708Y-44858000D01*
X29896072Y-44746654D01*
X29896071Y-44746650D01*
X29896071Y-44746649D01*
X29839918Y-44573828D01*
X29839916Y-44573825D01*
X29802699Y-44500781D01*
X29757417Y-44411910D01*
X29650603Y-44264894D01*
X29522106Y-44136397D01*
X29375090Y-44029583D01*
X29213174Y-43947083D01*
X29213171Y-43947081D01*
X29040348Y-43890928D01*
X28920689Y-43871976D01*
X28860861Y-43862500D01*
X28679139Y-43862500D01*
X28619310Y-43871976D01*
X28499652Y-43890928D01*
X28499649Y-43890928D01*
X28326828Y-43947081D01*
X28326824Y-43947083D01*
X28280793Y-43970537D01*
X28212124Y-43983432D01*
X28147384Y-43957155D01*
X28107128Y-43900048D01*
X28100500Y-43860051D01*
X28100500Y-40397648D01*
X38119500Y-40397648D01*
X38119500Y-40602351D01*
X38151522Y-40804534D01*
X38214781Y-40999223D01*
X38307715Y-41181613D01*
X38428028Y-41347213D01*
X38572786Y-41491971D01*
X38727749Y-41604556D01*
X38738390Y-41612287D01*
X38854607Y-41671503D01*
X38920776Y-41705218D01*
X38920778Y-41705218D01*
X38920781Y-41705220D01*
X39025137Y-41739127D01*
X39115465Y-41768477D01*
X39216557Y-41784488D01*
X39317648Y-41800500D01*
X39317649Y-41800500D01*
X39522351Y-41800500D01*
X39522352Y-41800500D01*
X39724534Y-41768477D01*
X39919219Y-41705220D01*
X40101610Y-41612287D01*
X40194590Y-41544732D01*
X40267213Y-41491971D01*
X40267215Y-41491968D01*
X40267219Y-41491966D01*
X40411966Y-41347219D01*
X40411968Y-41347215D01*
X40411971Y-41347213D01*
X40464732Y-41274590D01*
X40532287Y-41181610D01*
X40625220Y-40999219D01*
X40688477Y-40804534D01*
X40720500Y-40602352D01*
X40720500Y-40397648D01*
X40697114Y-40250000D01*
X48303391Y-40250000D01*
X49264314Y-40250000D01*
X49259920Y-40254394D01*
X49207259Y-40345606D01*
X49180000Y-40447339D01*
X49180000Y-40552661D01*
X49207259Y-40654394D01*
X49259920Y-40745606D01*
X49264314Y-40750000D01*
X48303391Y-40750000D01*
X48312009Y-40804413D01*
X48375244Y-40999029D01*
X48468140Y-41181349D01*
X48588417Y-41346894D01*
X48588417Y-41346895D01*
X48733104Y-41491582D01*
X48898650Y-41611859D01*
X49080968Y-41704754D01*
X49275578Y-41767988D01*
X49330000Y-41776607D01*
X49330000Y-40815686D01*
X49334394Y-40820080D01*
X49425606Y-40872741D01*
X49527339Y-40900000D01*
X49632661Y-40900000D01*
X49734394Y-40872741D01*
X49825606Y-40820080D01*
X49830000Y-40815686D01*
X49830000Y-41776606D01*
X49884421Y-41767988D01*
X50079031Y-41704754D01*
X50261349Y-41611859D01*
X50426894Y-41491582D01*
X50426895Y-41491582D01*
X50571582Y-41346895D01*
X50571582Y-41346894D01*
X50691859Y-41181349D01*
X50784755Y-40999029D01*
X50847990Y-40804413D01*
X50856609Y-40750000D01*
X49895686Y-40750000D01*
X49900080Y-40745606D01*
X49952741Y-40654394D01*
X49980000Y-40552661D01*
X49980000Y-40447339D01*
X49952741Y-40345606D01*
X49900080Y-40254394D01*
X49895686Y-40250000D01*
X50856609Y-40250000D01*
X50847990Y-40195586D01*
X50784755Y-40000970D01*
X50691859Y-39818650D01*
X50571582Y-39653105D01*
X50571582Y-39653104D01*
X50426895Y-39508417D01*
X50261349Y-39388140D01*
X50079029Y-39295244D01*
X49884413Y-39232009D01*
X49830000Y-39223390D01*
X49830000Y-40184314D01*
X49825606Y-40179920D01*
X49734394Y-40127259D01*
X49632661Y-40100000D01*
X49527339Y-40100000D01*
X49425606Y-40127259D01*
X49334394Y-40179920D01*
X49330000Y-40184314D01*
X49330000Y-39223390D01*
X49275586Y-39232009D01*
X49080970Y-39295244D01*
X48898650Y-39388140D01*
X48733105Y-39508417D01*
X48733104Y-39508417D01*
X48588417Y-39653104D01*
X48588417Y-39653105D01*
X48468140Y-39818650D01*
X48375244Y-40000970D01*
X48312009Y-40195586D01*
X48303391Y-40250000D01*
X40697114Y-40250000D01*
X40688477Y-40195466D01*
X40625220Y-40000781D01*
X40625218Y-40000778D01*
X40625218Y-40000776D01*
X40532419Y-39818650D01*
X40532287Y-39818390D01*
X40524556Y-39807749D01*
X40411971Y-39652786D01*
X40267213Y-39508028D01*
X40101613Y-39387715D01*
X40101612Y-39387714D01*
X40101610Y-39387713D01*
X40044653Y-39358691D01*
X39919223Y-39294781D01*
X39724534Y-39231522D01*
X39549995Y-39203878D01*
X39522352Y-39199500D01*
X39317648Y-39199500D01*
X39293329Y-39203351D01*
X39115465Y-39231522D01*
X38920776Y-39294781D01*
X38738386Y-39387715D01*
X38572786Y-39508028D01*
X38428028Y-39652786D01*
X38307715Y-39818386D01*
X38214781Y-40000776D01*
X38151522Y-40195465D01*
X38119500Y-40397648D01*
X28100500Y-40397648D01*
X28100500Y-39079765D01*
X28120185Y-39012726D01*
X28121398Y-39010874D01*
X28209390Y-38879185D01*
X28209390Y-38879184D01*
X28209394Y-38879179D01*
X28269737Y-38733497D01*
X28300500Y-38578842D01*
X28300500Y-38421158D01*
X28300500Y-38421155D01*
X28300499Y-38421153D01*
X28269738Y-38266510D01*
X28269737Y-38266503D01*
X28269735Y-38266498D01*
X28209397Y-38120827D01*
X28209390Y-38120814D01*
X28121789Y-37989711D01*
X28121786Y-37989707D01*
X28010292Y-37878213D01*
X28010288Y-37878210D01*
X27879185Y-37790609D01*
X27879172Y-37790602D01*
X27733501Y-37730264D01*
X27733489Y-37730261D01*
X27578845Y-37699500D01*
X27578842Y-37699500D01*
X27421158Y-37699500D01*
X27421155Y-37699500D01*
X27266510Y-37730261D01*
X27266498Y-37730264D01*
X27120827Y-37790602D01*
X27120814Y-37790609D01*
X26989711Y-37878210D01*
X26989707Y-37878213D01*
X26878213Y-37989707D01*
X26878210Y-37989711D01*
X26790609Y-38120814D01*
X26790602Y-38120827D01*
X26730264Y-38266498D01*
X26730261Y-38266510D01*
X26699500Y-38421153D01*
X26699500Y-38578846D01*
X26730261Y-38733489D01*
X26730264Y-38733501D01*
X26790602Y-38879172D01*
X26790609Y-38879185D01*
X26878602Y-39010874D01*
X26899480Y-39077551D01*
X26899500Y-39079765D01*
X26899500Y-43860051D01*
X26879815Y-43927090D01*
X26827011Y-43972845D01*
X26757853Y-43982789D01*
X26719207Y-43970537D01*
X26673175Y-43947083D01*
X26673171Y-43947081D01*
X26500348Y-43890928D01*
X26380689Y-43871976D01*
X26320861Y-43862500D01*
X26139139Y-43862500D01*
X26079310Y-43871976D01*
X25959652Y-43890928D01*
X25959649Y-43890928D01*
X25786828Y-43947081D01*
X25786825Y-43947083D01*
X25624909Y-44029583D01*
X25560501Y-44076379D01*
X25477894Y-44136397D01*
X25477892Y-44136399D01*
X25477891Y-44136399D01*
X25349399Y-44264891D01*
X25349399Y-44264892D01*
X25349397Y-44264894D01*
X25303525Y-44328030D01*
X25242583Y-44411909D01*
X25160083Y-44573825D01*
X25160081Y-44573828D01*
X25103928Y-44746649D01*
X25103928Y-44746652D01*
X25082473Y-44882114D01*
X25052544Y-44945249D01*
X24993232Y-44982180D01*
X24923370Y-44981182D01*
X24865137Y-44942572D01*
X24837527Y-44882114D01*
X24833708Y-44858000D01*
X24816072Y-44746654D01*
X24816071Y-44746650D01*
X24816071Y-44746649D01*
X24759918Y-44573828D01*
X24759916Y-44573825D01*
X24722699Y-44500781D01*
X24677417Y-44411910D01*
X24570603Y-44264894D01*
X24442106Y-44136397D01*
X24295090Y-44029583D01*
X24133174Y-43947083D01*
X24133171Y-43947081D01*
X23960348Y-43890928D01*
X23840689Y-43871976D01*
X23780861Y-43862500D01*
X23599139Y-43862500D01*
X23539310Y-43871976D01*
X23419652Y-43890928D01*
X23419649Y-43890928D01*
X23246828Y-43947081D01*
X23246825Y-43947083D01*
X23084909Y-44029583D01*
X23020501Y-44076379D01*
X22937894Y-44136397D01*
X22937892Y-44136399D01*
X22937891Y-44136399D01*
X22809399Y-44264891D01*
X22809399Y-44264892D01*
X22809397Y-44264894D01*
X22763525Y-44328030D01*
X22702583Y-44411909D01*
X22620083Y-44573825D01*
X22620081Y-44573828D01*
X22563928Y-44746649D01*
X22563928Y-44746652D01*
X22542473Y-44882114D01*
X22512544Y-44945249D01*
X22453232Y-44982180D01*
X22383370Y-44981182D01*
X22325137Y-44942572D01*
X22297527Y-44882114D01*
X22293708Y-44858000D01*
X22276072Y-44746654D01*
X22276071Y-44746650D01*
X22276071Y-44746649D01*
X22219918Y-44573828D01*
X22219916Y-44573825D01*
X22182699Y-44500781D01*
X22137417Y-44411910D01*
X22030603Y-44264894D01*
X21902106Y-44136397D01*
X21755090Y-44029583D01*
X21593174Y-43947083D01*
X21593171Y-43947081D01*
X21420348Y-43890928D01*
X21300689Y-43871976D01*
X21240861Y-43862500D01*
X21059139Y-43862500D01*
X20999310Y-43871976D01*
X20879652Y-43890928D01*
X20879649Y-43890928D01*
X20706828Y-43947081D01*
X20706825Y-43947083D01*
X20544909Y-44029583D01*
X20480501Y-44076379D01*
X20397894Y-44136397D01*
X20397892Y-44136399D01*
X20397891Y-44136399D01*
X20269399Y-44264891D01*
X20269399Y-44264892D01*
X20269397Y-44264894D01*
X20223525Y-44328030D01*
X20162583Y-44411909D01*
X20080083Y-44573825D01*
X20080081Y-44573828D01*
X20023928Y-44746649D01*
X20023928Y-44746652D01*
X20002473Y-44882114D01*
X19972544Y-44945249D01*
X19913232Y-44982180D01*
X19843370Y-44981182D01*
X19785137Y-44942572D01*
X19757527Y-44882114D01*
X19753708Y-44858000D01*
X19736072Y-44746654D01*
X19736071Y-44746650D01*
X19736071Y-44746649D01*
X19679918Y-44573828D01*
X19679916Y-44573825D01*
X19642699Y-44500781D01*
X19597417Y-44411910D01*
X19490603Y-44264894D01*
X19362106Y-44136397D01*
X19215090Y-44029583D01*
X19053174Y-43947083D01*
X19053171Y-43947081D01*
X18880348Y-43890928D01*
X18760689Y-43871976D01*
X18700861Y-43862500D01*
X18519139Y-43862500D01*
X18459310Y-43871976D01*
X18339652Y-43890928D01*
X18339649Y-43890928D01*
X18166828Y-43947081D01*
X18166825Y-43947083D01*
X18004909Y-44029583D01*
X17940501Y-44076379D01*
X17857894Y-44136397D01*
X17857892Y-44136399D01*
X17857891Y-44136399D01*
X17729396Y-44264894D01*
X17724817Y-44271198D01*
X17669486Y-44313863D01*
X17599872Y-44319841D01*
X17538078Y-44287234D01*
X17503722Y-44226394D01*
X17500500Y-44198311D01*
X17500500Y-27801688D01*
X17520185Y-27734649D01*
X17572989Y-27688894D01*
X17642147Y-27678950D01*
X17705703Y-27707975D01*
X17724815Y-27728799D01*
X17729397Y-27735106D01*
X17857894Y-27863603D01*
X18004910Y-27970417D01*
X18166826Y-28052917D01*
X18166828Y-28052918D01*
X18252629Y-28080796D01*
X18339654Y-28109072D01*
X18519139Y-28137500D01*
X18519140Y-28137500D01*
X18700860Y-28137500D01*
X18700861Y-28137500D01*
X18880346Y-28109072D01*
X18880349Y-28109071D01*
X18880350Y-28109071D01*
X19053171Y-28052918D01*
X19053171Y-28052917D01*
X19053174Y-28052917D01*
X19215090Y-27970417D01*
X19362106Y-27863603D01*
X19490603Y-27735106D01*
X19597417Y-27588090D01*
X19679917Y-27426174D01*
X19719913Y-27303080D01*
X19736071Y-27253350D01*
X19736071Y-27253349D01*
X19736072Y-27253346D01*
X19757780Y-27116286D01*
X19787709Y-27053152D01*
X19847021Y-27016221D01*
X19916883Y-27017219D01*
X19975116Y-27055829D01*
X20002726Y-27116287D01*
X20024415Y-27253225D01*
X20080548Y-27425984D01*
X20163012Y-27587830D01*
X20163014Y-27587834D01*
X20175048Y-27604395D01*
X20175049Y-27604396D01*
X20750000Y-27029445D01*
X20750000Y-27035661D01*
X20777259Y-27137394D01*
X20829920Y-27228606D01*
X20904394Y-27303080D01*
X20995606Y-27355741D01*
X21097339Y-27383000D01*
X21103554Y-27383000D01*
X20528602Y-27957949D01*
X20528603Y-27957950D01*
X20545165Y-27969985D01*
X20545179Y-27969993D01*
X20707012Y-28052450D01*
X20879774Y-28108584D01*
X21059179Y-28137000D01*
X21240821Y-28137000D01*
X21420225Y-28108584D01*
X21592984Y-28052451D01*
X21754831Y-27969986D01*
X21771396Y-27957949D01*
X21196447Y-27383000D01*
X21202661Y-27383000D01*
X21304394Y-27355741D01*
X21395606Y-27303080D01*
X21470080Y-27228606D01*
X21522741Y-27137394D01*
X21550000Y-27035661D01*
X21550000Y-27029446D01*
X22124949Y-27604395D01*
X22136986Y-27587831D01*
X22219451Y-27425984D01*
X22275584Y-27253225D01*
X22275585Y-27253224D01*
X22297273Y-27116288D01*
X22327202Y-27053153D01*
X22386513Y-27016221D01*
X22456376Y-27017219D01*
X22514609Y-27055828D01*
X22542219Y-27116286D01*
X22563928Y-27253349D01*
X22563928Y-27253350D01*
X22620081Y-27426171D01*
X22620083Y-27426174D01*
X22702583Y-27588090D01*
X22809397Y-27735106D01*
X22937894Y-27863603D01*
X23084910Y-27970417D01*
X23246826Y-28052917D01*
X23246828Y-28052918D01*
X23332629Y-28080796D01*
X23419654Y-28109072D01*
X23599139Y-28137500D01*
X23599140Y-28137500D01*
X23780860Y-28137500D01*
X23780861Y-28137500D01*
X23960346Y-28109072D01*
X23960349Y-28109071D01*
X23960350Y-28109071D01*
X24133171Y-28052918D01*
X24133171Y-28052917D01*
X24133174Y-28052917D01*
X24295090Y-27970417D01*
X24442106Y-27863603D01*
X24570603Y-27735106D01*
X24677417Y-27588090D01*
X24759917Y-27426174D01*
X24799913Y-27303080D01*
X24816071Y-27253350D01*
X24816071Y-27253349D01*
X24816072Y-27253346D01*
X24837527Y-27117884D01*
X24867456Y-27054750D01*
X24926768Y-27017819D01*
X24996630Y-27018817D01*
X25054863Y-27057427D01*
X25082473Y-27117885D01*
X25103928Y-27253347D01*
X25103928Y-27253350D01*
X25160081Y-27426171D01*
X25160083Y-27426174D01*
X25242583Y-27588090D01*
X25349397Y-27735106D01*
X25477894Y-27863603D01*
X25624910Y-27970417D01*
X25786826Y-28052917D01*
X25786828Y-28052918D01*
X25872629Y-28080796D01*
X25959654Y-28109072D01*
X26139139Y-28137500D01*
X26139140Y-28137500D01*
X26320860Y-28137500D01*
X26320861Y-28137500D01*
X26500346Y-28109072D01*
X26500349Y-28109071D01*
X26500350Y-28109071D01*
X26673171Y-28052918D01*
X26673171Y-28052917D01*
X26673174Y-28052917D01*
X26835090Y-27970417D01*
X26982106Y-27863603D01*
X27110603Y-27735106D01*
X27217417Y-27588090D01*
X27299917Y-27426174D01*
X27339913Y-27303080D01*
X27356071Y-27253350D01*
X27356071Y-27253349D01*
X27356072Y-27253346D01*
X27377527Y-27117884D01*
X27407456Y-27054750D01*
X27466768Y-27017819D01*
X27536630Y-27018817D01*
X27594863Y-27057427D01*
X27622473Y-27117885D01*
X27643928Y-27253347D01*
X27643928Y-27253350D01*
X27700081Y-27426171D01*
X27700083Y-27426174D01*
X27782583Y-27588090D01*
X27889397Y-27735106D01*
X28017894Y-27863603D01*
X28164910Y-27970417D01*
X28326826Y-28052917D01*
X28326828Y-28052918D01*
X28412629Y-28080796D01*
X28499654Y-28109072D01*
X28679139Y-28137500D01*
X28679140Y-28137500D01*
X28860860Y-28137500D01*
X28860861Y-28137500D01*
X29040346Y-28109072D01*
X29040349Y-28109071D01*
X29040350Y-28109071D01*
X29213171Y-28052918D01*
X29213171Y-28052917D01*
X29213174Y-28052917D01*
X29375090Y-27970417D01*
X29522106Y-27863603D01*
X29650603Y-27735106D01*
X29757417Y-27588090D01*
X29839917Y-27426174D01*
X29879913Y-27303080D01*
X29896071Y-27253350D01*
X29896071Y-27253349D01*
X29896072Y-27253346D01*
X29917527Y-27117884D01*
X29947456Y-27054750D01*
X30006768Y-27017819D01*
X30076630Y-27018817D01*
X30134863Y-27057427D01*
X30162473Y-27117885D01*
X30183928Y-27253347D01*
X30183928Y-27253350D01*
X30240081Y-27426171D01*
X30240083Y-27426174D01*
X30322583Y-27588090D01*
X30429397Y-27735106D01*
X30557894Y-27863603D01*
X30704910Y-27970417D01*
X30866826Y-28052917D01*
X30866828Y-28052918D01*
X30952629Y-28080796D01*
X31039654Y-28109072D01*
X31219139Y-28137500D01*
X31219140Y-28137500D01*
X31400860Y-28137500D01*
X31400861Y-28137500D01*
X31580346Y-28109072D01*
X31583171Y-28108153D01*
X31584303Y-28108121D01*
X31585081Y-28107935D01*
X31585120Y-28108098D01*
X31653010Y-28106159D01*
X31709169Y-28138404D01*
X38125922Y-34555157D01*
X38159407Y-34616480D01*
X38156173Y-34681155D01*
X38151522Y-34695468D01*
X38119500Y-34897648D01*
X38119500Y-35102351D01*
X38151522Y-35304534D01*
X38214781Y-35499223D01*
X38307715Y-35681613D01*
X38428028Y-35847213D01*
X38572786Y-35991971D01*
X38727749Y-36104556D01*
X38738390Y-36112287D01*
X38854607Y-36171503D01*
X38920776Y-36205218D01*
X38920778Y-36205218D01*
X38920781Y-36205220D01*
X39025137Y-36239127D01*
X39115465Y-36268477D01*
X39216557Y-36284488D01*
X39317648Y-36300500D01*
X39317649Y-36300500D01*
X39522351Y-36300500D01*
X39522352Y-36300500D01*
X39724534Y-36268477D01*
X39919219Y-36205220D01*
X40101610Y-36112287D01*
X40194590Y-36044732D01*
X40267213Y-35991971D01*
X40267215Y-35991968D01*
X40267219Y-35991966D01*
X40411966Y-35847219D01*
X40411968Y-35847215D01*
X40411971Y-35847213D01*
X40464732Y-35774590D01*
X40532287Y-35681610D01*
X40625220Y-35499219D01*
X40688477Y-35304534D01*
X40720500Y-35102352D01*
X40720500Y-34897648D01*
X48279500Y-34897648D01*
X48279500Y-35102351D01*
X48311522Y-35304534D01*
X48374781Y-35499223D01*
X48467715Y-35681613D01*
X48588028Y-35847213D01*
X48732786Y-35991971D01*
X48887749Y-36104556D01*
X48898390Y-36112287D01*
X49014607Y-36171503D01*
X49080776Y-36205218D01*
X49080778Y-36205218D01*
X49080781Y-36205220D01*
X49185137Y-36239127D01*
X49275465Y-36268477D01*
X49376557Y-36284488D01*
X49477648Y-36300500D01*
X49477649Y-36300500D01*
X49682351Y-36300500D01*
X49682352Y-36300500D01*
X49884534Y-36268477D01*
X50079219Y-36205220D01*
X50261610Y-36112287D01*
X50354590Y-36044732D01*
X50427213Y-35991971D01*
X50427215Y-35991968D01*
X50427219Y-35991966D01*
X50571966Y-35847219D01*
X50571968Y-35847215D01*
X50571971Y-35847213D01*
X50624732Y-35774590D01*
X50692287Y-35681610D01*
X50785220Y-35499219D01*
X50848477Y-35304534D01*
X50880500Y-35102352D01*
X50880500Y-34897648D01*
X50848477Y-34695466D01*
X50785220Y-34500781D01*
X50785218Y-34500778D01*
X50785218Y-34500776D01*
X50738818Y-34409713D01*
X50692287Y-34318390D01*
X50659151Y-34272782D01*
X50571971Y-34152786D01*
X50427213Y-34008028D01*
X50261613Y-33887715D01*
X50261612Y-33887714D01*
X50261610Y-33887713D01*
X50204653Y-33858691D01*
X50079223Y-33794781D01*
X49884534Y-33731522D01*
X49709995Y-33703878D01*
X49682352Y-33699500D01*
X49477648Y-33699500D01*
X49453329Y-33703351D01*
X49275465Y-33731522D01*
X49080776Y-33794781D01*
X48898386Y-33887715D01*
X48732786Y-34008028D01*
X48588028Y-34152786D01*
X48467715Y-34318386D01*
X48374781Y-34500776D01*
X48311522Y-34695465D01*
X48279500Y-34897648D01*
X40720500Y-34897648D01*
X40688477Y-34695466D01*
X40625220Y-34500781D01*
X40625218Y-34500778D01*
X40625218Y-34500776D01*
X40578818Y-34409713D01*
X40532287Y-34318390D01*
X40499151Y-34272782D01*
X40411971Y-34152786D01*
X40267213Y-34008028D01*
X40101613Y-33887715D01*
X40101612Y-33887714D01*
X40101610Y-33887713D01*
X40044653Y-33858691D01*
X39919223Y-33794781D01*
X39724534Y-33731522D01*
X39549995Y-33703878D01*
X39522352Y-33699500D01*
X39317648Y-33699500D01*
X39279599Y-33705526D01*
X39115468Y-33731522D01*
X39106717Y-33734365D01*
X39101154Y-33736173D01*
X39031313Y-33738167D01*
X38975157Y-33705922D01*
X33610269Y-28341034D01*
X33576784Y-28279711D01*
X33581768Y-28210019D01*
X33623640Y-28154086D01*
X33689104Y-28129669D01*
X33717339Y-28130879D01*
X33759139Y-28137500D01*
X33759142Y-28137500D01*
X33940860Y-28137500D01*
X33940861Y-28137500D01*
X34063547Y-28118068D01*
X34132839Y-28127022D01*
X34170625Y-28152860D01*
X37382139Y-31364374D01*
X37382149Y-31364385D01*
X37386479Y-31368715D01*
X37386480Y-31368716D01*
X37498284Y-31480520D01*
X37585095Y-31530639D01*
X37585097Y-31530641D01*
X37623151Y-31552611D01*
X37635215Y-31559577D01*
X37787943Y-31600501D01*
X37787946Y-31600501D01*
X37953653Y-31600501D01*
X37953669Y-31600500D01*
X38190398Y-31600500D01*
X38257437Y-31620185D01*
X38300883Y-31668205D01*
X38307715Y-31681614D01*
X38428028Y-31847213D01*
X38572786Y-31991971D01*
X38707974Y-32090189D01*
X38738390Y-32112287D01*
X38810946Y-32149256D01*
X38920776Y-32205218D01*
X38920778Y-32205218D01*
X38920781Y-32205220D01*
X39025137Y-32239127D01*
X39115465Y-32268477D01*
X39216557Y-32284488D01*
X39317648Y-32300500D01*
X39317649Y-32300500D01*
X39522351Y-32300500D01*
X39522352Y-32300500D01*
X39724534Y-32268477D01*
X39919219Y-32205220D01*
X40101610Y-32112287D01*
X40194590Y-32044732D01*
X40267213Y-31991971D01*
X40267215Y-31991968D01*
X40267219Y-31991966D01*
X40411966Y-31847219D01*
X40411968Y-31847215D01*
X40411971Y-31847213D01*
X40517134Y-31702466D01*
X40532287Y-31681610D01*
X40625220Y-31499219D01*
X40688477Y-31304534D01*
X40720500Y-31102352D01*
X40720500Y-30897648D01*
X40688477Y-30695466D01*
X40625220Y-30500781D01*
X40625218Y-30500778D01*
X40625218Y-30500776D01*
X40583975Y-30419833D01*
X40532287Y-30318390D01*
X40524556Y-30307749D01*
X40411971Y-30152786D01*
X40267213Y-30008028D01*
X40101613Y-29887715D01*
X40101612Y-29887714D01*
X40101610Y-29887713D01*
X40044653Y-29858691D01*
X39919223Y-29794781D01*
X39724534Y-29731522D01*
X39549995Y-29703878D01*
X39522352Y-29699500D01*
X39317648Y-29699500D01*
X39293329Y-29703351D01*
X39115465Y-29731522D01*
X38920776Y-29794781D01*
X38738386Y-29887715D01*
X38572786Y-30008028D01*
X38428028Y-30152786D01*
X38307715Y-30318385D01*
X38300883Y-30331795D01*
X38290433Y-30342859D01*
X38284111Y-30356703D01*
X38266931Y-30367743D01*
X38252909Y-30382591D01*
X38237227Y-30386832D01*
X38225333Y-30394477D01*
X38190398Y-30399500D01*
X38167097Y-30399500D01*
X38100058Y-30379815D01*
X38079416Y-30363181D01*
X36065415Y-28349180D01*
X36031930Y-28287857D01*
X36036914Y-28218165D01*
X36078786Y-28162232D01*
X36144250Y-28137815D01*
X36153096Y-28137499D01*
X37091871Y-28137499D01*
X37091872Y-28137499D01*
X37151483Y-28131091D01*
X37286331Y-28080796D01*
X37401546Y-27994546D01*
X37487796Y-27879331D01*
X37538091Y-27744483D01*
X37544500Y-27684873D01*
X37544499Y-26281128D01*
X37538091Y-26221517D01*
X37537046Y-26218716D01*
X37487797Y-26086671D01*
X37487793Y-26086664D01*
X37401547Y-25971455D01*
X37401544Y-25971452D01*
X37286335Y-25885206D01*
X37286328Y-25885202D01*
X37151482Y-25834908D01*
X37151483Y-25834908D01*
X37091883Y-25828501D01*
X37091881Y-25828500D01*
X37091873Y-25828500D01*
X37091864Y-25828500D01*
X35688129Y-25828500D01*
X35688123Y-25828501D01*
X35628516Y-25834908D01*
X35493671Y-25885202D01*
X35493664Y-25885206D01*
X35378455Y-25971452D01*
X35378452Y-25971455D01*
X35292206Y-26086664D01*
X35292202Y-26086671D01*
X35241908Y-26221517D01*
X35235636Y-26279863D01*
X35235501Y-26281123D01*
X35235500Y-26281135D01*
X35235500Y-26775049D01*
X35215815Y-26842088D01*
X35163011Y-26887843D01*
X35093853Y-26897787D01*
X35030297Y-26868762D01*
X34992523Y-26809984D01*
X34989027Y-26794447D01*
X34987468Y-26784606D01*
X34976072Y-26712654D01*
X34976071Y-26712650D01*
X34976071Y-26712649D01*
X34919918Y-26539828D01*
X34919916Y-26539825D01*
X34915555Y-26531265D01*
X34837417Y-26377910D01*
X34730603Y-26230894D01*
X34602106Y-26102397D01*
X34455090Y-25995583D01*
X34293174Y-25913083D01*
X34293171Y-25913081D01*
X34120348Y-25856928D01*
X33981319Y-25834908D01*
X33940861Y-25828500D01*
X33759139Y-25828500D01*
X33718681Y-25834908D01*
X33579652Y-25856928D01*
X33579649Y-25856928D01*
X33406828Y-25913081D01*
X33406825Y-25913083D01*
X33244909Y-25995583D01*
X33161030Y-26056525D01*
X33097894Y-26102397D01*
X33097892Y-26102399D01*
X33097891Y-26102399D01*
X32969399Y-26230891D01*
X32969399Y-26230892D01*
X32969397Y-26230894D01*
X32923525Y-26294030D01*
X32862583Y-26377909D01*
X32780083Y-26539825D01*
X32780081Y-26539828D01*
X32723928Y-26712649D01*
X32723928Y-26712652D01*
X32702473Y-26848114D01*
X32672544Y-26911249D01*
X32613232Y-26948180D01*
X32543370Y-26947182D01*
X32485137Y-26908572D01*
X32457527Y-26848114D01*
X32449027Y-26794447D01*
X32436072Y-26712654D01*
X32436071Y-26712650D01*
X32436071Y-26712649D01*
X32379918Y-26539828D01*
X32379916Y-26539825D01*
X32375555Y-26531265D01*
X32297417Y-26377910D01*
X32190603Y-26230894D01*
X32062106Y-26102397D01*
X31915090Y-25995583D01*
X31753174Y-25913083D01*
X31753171Y-25913081D01*
X31580348Y-25856928D01*
X31441319Y-25834908D01*
X31400861Y-25828500D01*
X31219139Y-25828500D01*
X31178681Y-25834908D01*
X31039652Y-25856928D01*
X31039649Y-25856928D01*
X30866828Y-25913081D01*
X30866825Y-25913083D01*
X30704909Y-25995583D01*
X30621030Y-26056525D01*
X30557894Y-26102397D01*
X30557892Y-26102399D01*
X30557891Y-26102399D01*
X30429399Y-26230891D01*
X30429399Y-26230892D01*
X30429397Y-26230894D01*
X30383525Y-26294030D01*
X30322583Y-26377909D01*
X30240083Y-26539825D01*
X30240081Y-26539828D01*
X30183928Y-26712649D01*
X30183928Y-26712652D01*
X30162473Y-26848114D01*
X30132544Y-26911249D01*
X30073232Y-26948180D01*
X30003370Y-26947182D01*
X29945137Y-26908572D01*
X29917527Y-26848114D01*
X29909027Y-26794447D01*
X29896072Y-26712654D01*
X29896071Y-26712650D01*
X29896071Y-26712649D01*
X29839918Y-26539828D01*
X29839916Y-26539825D01*
X29835555Y-26531265D01*
X29757417Y-26377910D01*
X29650603Y-26230894D01*
X29522106Y-26102397D01*
X29375090Y-25995583D01*
X29213174Y-25913083D01*
X29213171Y-25913081D01*
X29040348Y-25856928D01*
X28901319Y-25834908D01*
X28860861Y-25828500D01*
X28679139Y-25828500D01*
X28511398Y-25855067D01*
X28442105Y-25846112D01*
X28388653Y-25801116D01*
X28368014Y-25734364D01*
X28386739Y-25667051D01*
X28404316Y-25644917D01*
X29865478Y-24183755D01*
X29926799Y-24150272D01*
X29991473Y-24153506D01*
X30033757Y-24167246D01*
X30243713Y-24200500D01*
X30243714Y-24200500D01*
X30456286Y-24200500D01*
X30456287Y-24200500D01*
X30666243Y-24167246D01*
X30868412Y-24101557D01*
X31057816Y-24005051D01*
X31099244Y-23974952D01*
X31205645Y-23897648D01*
X41039500Y-23897648D01*
X41039500Y-24102351D01*
X41071522Y-24304534D01*
X41134781Y-24499223D01*
X41227715Y-24681613D01*
X41348028Y-24847213D01*
X41492786Y-24991971D01*
X41647749Y-25104556D01*
X41658390Y-25112287D01*
X41774607Y-25171503D01*
X41840776Y-25205218D01*
X41840778Y-25205218D01*
X41840781Y-25205220D01*
X41945137Y-25239127D01*
X42035465Y-25268477D01*
X42136557Y-25284488D01*
X42237648Y-25300500D01*
X42237649Y-25300500D01*
X42442351Y-25300500D01*
X42442352Y-25300500D01*
X42644534Y-25268477D01*
X42839219Y-25205220D01*
X43021610Y-25112287D01*
X43114590Y-25044732D01*
X43187213Y-24991971D01*
X43187215Y-24991968D01*
X43187219Y-24991966D01*
X43331966Y-24847219D01*
X43331968Y-24847215D01*
X43331971Y-24847213D01*
X43452284Y-24681614D01*
X43452285Y-24681613D01*
X43452287Y-24681610D01*
X43459117Y-24668204D01*
X43507091Y-24617409D01*
X43569602Y-24600500D01*
X46199903Y-24600500D01*
X46266942Y-24620185D01*
X46287584Y-24636819D01*
X50515139Y-28864374D01*
X50515149Y-28864385D01*
X50519479Y-28868715D01*
X50519480Y-28868716D01*
X50631284Y-28980520D01*
X50718095Y-29030639D01*
X50718097Y-29030641D01*
X50756151Y-29052611D01*
X50768215Y-29059577D01*
X50920943Y-29100501D01*
X50920946Y-29100501D01*
X51086653Y-29100501D01*
X51086669Y-29100500D01*
X65584713Y-29100500D01*
X65651752Y-29120185D01*
X65672394Y-29136819D01*
X66135451Y-29599876D01*
X66168936Y-29661199D01*
X66163952Y-29730891D01*
X66122080Y-29786824D01*
X66104076Y-29798036D01*
X66099809Y-29800210D01*
X65939033Y-29917021D01*
X65798521Y-30057533D01*
X65681713Y-30218305D01*
X65601985Y-30374780D01*
X65554010Y-30425576D01*
X65486189Y-30442371D01*
X65420054Y-30419833D01*
X65381015Y-30374780D01*
X65359113Y-30331795D01*
X65301287Y-30218306D01*
X65184481Y-30057536D01*
X65043964Y-29917019D01*
X64883194Y-29800213D01*
X64856917Y-29786824D01*
X64706132Y-29709994D01*
X64706129Y-29709993D01*
X64517137Y-29648587D01*
X64418998Y-29633043D01*
X64320861Y-29617500D01*
X64122139Y-29617500D01*
X64056714Y-29627862D01*
X63925862Y-29648587D01*
X63736870Y-29709993D01*
X63736867Y-29709994D01*
X63559805Y-29800213D01*
X63399033Y-29917021D01*
X63258521Y-30057533D01*
X63141713Y-30218305D01*
X63061985Y-30374780D01*
X63014010Y-30425576D01*
X62946189Y-30442371D01*
X62880054Y-30419833D01*
X62841015Y-30374780D01*
X62819113Y-30331795D01*
X62761287Y-30218306D01*
X62644481Y-30057536D01*
X62503964Y-29917019D01*
X62343194Y-29800213D01*
X62316917Y-29786824D01*
X62166132Y-29709994D01*
X62166129Y-29709993D01*
X61977137Y-29648587D01*
X61878998Y-29633043D01*
X61780861Y-29617500D01*
X61582139Y-29617500D01*
X61516714Y-29627862D01*
X61385862Y-29648587D01*
X61196870Y-29709993D01*
X61196867Y-29709994D01*
X61019805Y-29800213D01*
X60859033Y-29917021D01*
X60718521Y-30057533D01*
X60601713Y-30218305D01*
X60521985Y-30374780D01*
X60474010Y-30425576D01*
X60406189Y-30442371D01*
X60340054Y-30419833D01*
X60301015Y-30374780D01*
X60279113Y-30331795D01*
X60221287Y-30218306D01*
X60104481Y-30057536D01*
X59963964Y-29917019D01*
X59803194Y-29800213D01*
X59776917Y-29786824D01*
X59626132Y-29709994D01*
X59626129Y-29709993D01*
X59437137Y-29648587D01*
X59338998Y-29633043D01*
X59240861Y-29617500D01*
X59042139Y-29617500D01*
X58976714Y-29627862D01*
X58845862Y-29648587D01*
X58656870Y-29709993D01*
X58656867Y-29709994D01*
X58479805Y-29800213D01*
X58319033Y-29917021D01*
X58178521Y-30057533D01*
X58061713Y-30218305D01*
X57981985Y-30374780D01*
X57934010Y-30425576D01*
X57866189Y-30442371D01*
X57800054Y-30419833D01*
X57761015Y-30374780D01*
X57739113Y-30331795D01*
X57681287Y-30218306D01*
X57564481Y-30057536D01*
X57423964Y-29917019D01*
X57263194Y-29800213D01*
X57236917Y-29786824D01*
X57086132Y-29709994D01*
X57086129Y-29709993D01*
X56897137Y-29648587D01*
X56798998Y-29633043D01*
X56700861Y-29617500D01*
X56502139Y-29617500D01*
X56436714Y-29627862D01*
X56305862Y-29648587D01*
X56116870Y-29709993D01*
X56116867Y-29709994D01*
X55939805Y-29800213D01*
X55779033Y-29917021D01*
X55638521Y-30057533D01*
X55521713Y-30218305D01*
X55441985Y-30374780D01*
X55394010Y-30425576D01*
X55326189Y-30442371D01*
X55260054Y-30419833D01*
X55221015Y-30374780D01*
X55199113Y-30331795D01*
X55141287Y-30218306D01*
X55024481Y-30057536D01*
X54883964Y-29917019D01*
X54723194Y-29800213D01*
X54696917Y-29786824D01*
X54546132Y-29709994D01*
X54546129Y-29709993D01*
X54357137Y-29648587D01*
X54258998Y-29633043D01*
X54160861Y-29617500D01*
X53962139Y-29617500D01*
X53896714Y-29627862D01*
X53765862Y-29648587D01*
X53576870Y-29709993D01*
X53576867Y-29709994D01*
X53399805Y-29800213D01*
X53239033Y-29917021D01*
X53098521Y-30057533D01*
X52981713Y-30218305D01*
X52923887Y-30331795D01*
X52875912Y-30382591D01*
X52813402Y-30399500D01*
X50809602Y-30399500D01*
X50742563Y-30379815D01*
X50699117Y-30331795D01*
X50692284Y-30318385D01*
X50571971Y-30152786D01*
X50427213Y-30008028D01*
X50261613Y-29887715D01*
X50261612Y-29887714D01*
X50261610Y-29887713D01*
X50204653Y-29858691D01*
X50079223Y-29794781D01*
X49884534Y-29731522D01*
X49709995Y-29703878D01*
X49682352Y-29699500D01*
X49477648Y-29699500D01*
X49453329Y-29703351D01*
X49275465Y-29731522D01*
X49080776Y-29794781D01*
X48898386Y-29887715D01*
X48732786Y-30008028D01*
X48588028Y-30152786D01*
X48467715Y-30318386D01*
X48374781Y-30500776D01*
X48311522Y-30695465D01*
X48279500Y-30897648D01*
X48279500Y-31102351D01*
X48311522Y-31304534D01*
X48374781Y-31499223D01*
X48467715Y-31681613D01*
X48588028Y-31847213D01*
X48732786Y-31991971D01*
X48867974Y-32090189D01*
X48898390Y-32112287D01*
X48970946Y-32149256D01*
X49080776Y-32205218D01*
X49080778Y-32205218D01*
X49080781Y-32205220D01*
X49185137Y-32239127D01*
X49275465Y-32268477D01*
X49376557Y-32284488D01*
X49477648Y-32300500D01*
X49477649Y-32300500D01*
X49682351Y-32300500D01*
X49682352Y-32300500D01*
X49884534Y-32268477D01*
X50079219Y-32205220D01*
X50261610Y-32112287D01*
X50354590Y-32044732D01*
X50427213Y-31991971D01*
X50427215Y-31991968D01*
X50427219Y-31991966D01*
X50571966Y-31847219D01*
X50571968Y-31847215D01*
X50571971Y-31847213D01*
X50692284Y-31681614D01*
X50692285Y-31681613D01*
X50692287Y-31681610D01*
X50699117Y-31668204D01*
X50747091Y-31617409D01*
X50809602Y-31600500D01*
X52961257Y-31600500D01*
X53028296Y-31620185D01*
X53061576Y-31651616D01*
X53098515Y-31702460D01*
X53098519Y-31702464D01*
X53239036Y-31842981D01*
X53399806Y-31959787D01*
X53486649Y-32004035D01*
X53576867Y-32050005D01*
X53576870Y-32050006D01*
X53671366Y-32080709D01*
X53765864Y-32111413D01*
X53962139Y-32142500D01*
X53962140Y-32142500D01*
X54160860Y-32142500D01*
X54160861Y-32142500D01*
X54357136Y-32111413D01*
X54546132Y-32050005D01*
X54723194Y-31959787D01*
X54883964Y-31842981D01*
X55024481Y-31702464D01*
X55141287Y-31541694D01*
X55221015Y-31385218D01*
X55268990Y-31334423D01*
X55336811Y-31317628D01*
X55402946Y-31340165D01*
X55441984Y-31385218D01*
X55521713Y-31541694D01*
X55638519Y-31702464D01*
X55779036Y-31842981D01*
X55939806Y-31959787D01*
X56026649Y-32004035D01*
X56116867Y-32050005D01*
X56116870Y-32050006D01*
X56211366Y-32080709D01*
X56305864Y-32111413D01*
X56502139Y-32142500D01*
X56502140Y-32142500D01*
X56700860Y-32142500D01*
X56700861Y-32142500D01*
X56897136Y-32111413D01*
X57086132Y-32050005D01*
X57263194Y-31959787D01*
X57423964Y-31842981D01*
X57564481Y-31702464D01*
X57681287Y-31541694D01*
X57761015Y-31385218D01*
X57808990Y-31334423D01*
X57876811Y-31317628D01*
X57942946Y-31340165D01*
X57981984Y-31385218D01*
X58061713Y-31541694D01*
X58178519Y-31702464D01*
X58319036Y-31842981D01*
X58479806Y-31959787D01*
X58566649Y-32004035D01*
X58656867Y-32050005D01*
X58656870Y-32050006D01*
X58751366Y-32080709D01*
X58845864Y-32111413D01*
X59042139Y-32142500D01*
X59042140Y-32142500D01*
X59240860Y-32142500D01*
X59240861Y-32142500D01*
X59437136Y-32111413D01*
X59626132Y-32050005D01*
X59803194Y-31959787D01*
X59963964Y-31842981D01*
X60104481Y-31702464D01*
X60221287Y-31541694D01*
X60301015Y-31385218D01*
X60348990Y-31334423D01*
X60416811Y-31317628D01*
X60482946Y-31340165D01*
X60521984Y-31385218D01*
X60601713Y-31541694D01*
X60718519Y-31702464D01*
X60859036Y-31842981D01*
X61019806Y-31959787D01*
X61106649Y-32004035D01*
X61196867Y-32050005D01*
X61196870Y-32050006D01*
X61291366Y-32080709D01*
X61385864Y-32111413D01*
X61582139Y-32142500D01*
X61582140Y-32142500D01*
X61780855Y-32142500D01*
X61780861Y-32142500D01*
X61794728Y-32140303D01*
X61864016Y-32149256D01*
X61917470Y-32194250D01*
X61938112Y-32261001D01*
X61919389Y-32328315D01*
X61901806Y-32350457D01*
X57709786Y-36542478D01*
X57597981Y-36654282D01*
X57597979Y-36654285D01*
X57547861Y-36741094D01*
X57547859Y-36741096D01*
X57518925Y-36791209D01*
X57518924Y-36791210D01*
X57518923Y-36791215D01*
X57477999Y-36943943D01*
X57477999Y-36943945D01*
X57477999Y-37112046D01*
X57478000Y-37112059D01*
X57478000Y-44952914D01*
X57458315Y-45019953D01*
X57405511Y-45065708D01*
X57336353Y-45075652D01*
X57281117Y-45053234D01*
X57263195Y-45040214D01*
X57263196Y-45040214D01*
X57263194Y-45040213D01*
X57204928Y-45010525D01*
X57086132Y-44949994D01*
X57086129Y-44949993D01*
X56897137Y-44888587D01*
X56798998Y-44873043D01*
X56700861Y-44857500D01*
X56502139Y-44857500D01*
X56444987Y-44866552D01*
X56305862Y-44888587D01*
X56116870Y-44949993D01*
X56116867Y-44949994D01*
X55939805Y-45040213D01*
X55779033Y-45157021D01*
X55638521Y-45297533D01*
X55521713Y-45458305D01*
X55441985Y-45614780D01*
X55394010Y-45665576D01*
X55326189Y-45682371D01*
X55260054Y-45659833D01*
X55221015Y-45614780D01*
X55162036Y-45499029D01*
X55141287Y-45458306D01*
X55024481Y-45297536D01*
X54883964Y-45157019D01*
X54723194Y-45040213D01*
X54683432Y-45019953D01*
X54546132Y-44949994D01*
X54546129Y-44949993D01*
X54357137Y-44888587D01*
X54258998Y-44873043D01*
X54160861Y-44857500D01*
X53962139Y-44857500D01*
X53904987Y-44866552D01*
X53765862Y-44888587D01*
X53576870Y-44949993D01*
X53576867Y-44949994D01*
X53399805Y-45040213D01*
X53239033Y-45157021D01*
X53098521Y-45297533D01*
X52981713Y-45458305D01*
X52891494Y-45635367D01*
X52891493Y-45635370D01*
X52830087Y-45824362D01*
X52799000Y-46020639D01*
X52799000Y-46219360D01*
X52830087Y-46415637D01*
X52891493Y-46604629D01*
X52891494Y-46604632D01*
X52981574Y-46781422D01*
X52981713Y-46781694D01*
X53098519Y-46942464D01*
X53239036Y-47082981D01*
X53399806Y-47199787D01*
X53486649Y-47244035D01*
X53576867Y-47290005D01*
X53576870Y-47290006D01*
X53618629Y-47303574D01*
X53765864Y-47351413D01*
X53962139Y-47382500D01*
X53962140Y-47382500D01*
X54160860Y-47382500D01*
X54160861Y-47382500D01*
X54174723Y-47380304D01*
X54244015Y-47389255D01*
X54297468Y-47434249D01*
X54318111Y-47501000D01*
X54299389Y-47568314D01*
X54281805Y-47590457D01*
X42631286Y-59240978D01*
X42519481Y-59352782D01*
X42519477Y-59352787D01*
X42480129Y-59420942D01*
X42480129Y-59420943D01*
X42440423Y-59489714D01*
X42440423Y-59489715D01*
X42399499Y-59642443D01*
X42399499Y-59642445D01*
X42399499Y-59810546D01*
X42399500Y-59810559D01*
X42399500Y-62127403D01*
X42379815Y-62194442D01*
X42348386Y-62227721D01*
X42185352Y-62346173D01*
X42046174Y-62485351D01*
X42046174Y-62485352D01*
X42046172Y-62485354D01*
X41996485Y-62553741D01*
X41930476Y-62644594D01*
X41841117Y-62819970D01*
X41780290Y-63007173D01*
X41749500Y-63201577D01*
X41749500Y-63798422D01*
X41780290Y-63992826D01*
X41841117Y-64180029D01*
X41930476Y-64355405D01*
X42046172Y-64514646D01*
X42185354Y-64653828D01*
X42344595Y-64769524D01*
X42427455Y-64811743D01*
X42519970Y-64858882D01*
X42519972Y-64858882D01*
X42519975Y-64858884D01*
X42620317Y-64891487D01*
X42707173Y-64919709D01*
X42901578Y-64950500D01*
X42901583Y-64950500D01*
X43098422Y-64950500D01*
X43292826Y-64919709D01*
X43294328Y-64919221D01*
X43480025Y-64858884D01*
X43655405Y-64769524D01*
X43814646Y-64653828D01*
X43953828Y-64514646D01*
X44069524Y-64355405D01*
X44158884Y-64180025D01*
X44219709Y-63992826D01*
X44241768Y-63853552D01*
X44250500Y-63798422D01*
X44250500Y-63201577D01*
X46749500Y-63201577D01*
X46749500Y-63798422D01*
X46780290Y-63992826D01*
X46841117Y-64180029D01*
X46930476Y-64355405D01*
X47046172Y-64514646D01*
X47185354Y-64653828D01*
X47344595Y-64769524D01*
X47427455Y-64811743D01*
X47519970Y-64858882D01*
X47519972Y-64858882D01*
X47519975Y-64858884D01*
X47620317Y-64891487D01*
X47707173Y-64919709D01*
X47901578Y-64950500D01*
X47901583Y-64950500D01*
X48098422Y-64950500D01*
X48292826Y-64919709D01*
X48294328Y-64919221D01*
X48480025Y-64858884D01*
X48655405Y-64769524D01*
X48814646Y-64653828D01*
X48953828Y-64514646D01*
X49069524Y-64355405D01*
X49158884Y-64180025D01*
X49219709Y-63992826D01*
X49241768Y-63853552D01*
X49250500Y-63798422D01*
X49250500Y-63201617D01*
X51250000Y-63201617D01*
X51250000Y-63798382D01*
X51280778Y-63992705D01*
X51341581Y-64179835D01*
X51383783Y-64262662D01*
X51935387Y-63711059D01*
X51940889Y-63731591D01*
X52019881Y-63868408D01*
X52131592Y-63980119D01*
X52268409Y-64059111D01*
X52288939Y-64064612D01*
X51694034Y-64659515D01*
X51844856Y-64769095D01*
X52020164Y-64858418D01*
X52207294Y-64919221D01*
X52401618Y-64950000D01*
X52598382Y-64950000D01*
X52792705Y-64919221D01*
X52979835Y-64858418D01*
X53155135Y-64769099D01*
X53155141Y-64769095D01*
X53305963Y-64659515D01*
X53305964Y-64659515D01*
X52711060Y-64064612D01*
X52731591Y-64059111D01*
X52868408Y-63980119D01*
X52980119Y-63868408D01*
X53059111Y-63731591D01*
X53064612Y-63711060D01*
X53616214Y-64262663D01*
X53658417Y-64179838D01*
X53658420Y-64179831D01*
X53719221Y-63992705D01*
X53750000Y-63798382D01*
X53750000Y-63201617D01*
X53719221Y-63007294D01*
X53658420Y-62820169D01*
X53616214Y-62737335D01*
X53064611Y-63288938D01*
X53059111Y-63268409D01*
X52980119Y-63131592D01*
X52868408Y-63019881D01*
X52731591Y-62940889D01*
X52711060Y-62935387D01*
X53305964Y-62340484D01*
X53305963Y-62340483D01*
X53155143Y-62230904D01*
X52979835Y-62141581D01*
X52792705Y-62080778D01*
X52598382Y-62050000D01*
X52401618Y-62050000D01*
X52207294Y-62080778D01*
X52020164Y-62141581D01*
X51844855Y-62230905D01*
X51844852Y-62230907D01*
X51694035Y-62340483D01*
X51694034Y-62340483D01*
X52288939Y-62935387D01*
X52268409Y-62940889D01*
X52131592Y-63019881D01*
X52019881Y-63131592D01*
X51940889Y-63268409D01*
X51935387Y-63288939D01*
X51383783Y-62737335D01*
X51383783Y-62737336D01*
X51341582Y-62820161D01*
X51280778Y-63007294D01*
X51250000Y-63201617D01*
X49250500Y-63201617D01*
X49250500Y-63201577D01*
X49219709Y-63007173D01*
X49169450Y-62852494D01*
X49158884Y-62819975D01*
X49158882Y-62819972D01*
X49158882Y-62819970D01*
X49069523Y-62644594D01*
X48953828Y-62485354D01*
X48814646Y-62346172D01*
X48655405Y-62230476D01*
X48600499Y-62202500D01*
X48480029Y-62141117D01*
X48292826Y-62080290D01*
X48098422Y-62049500D01*
X48098417Y-62049500D01*
X47901583Y-62049500D01*
X47901578Y-62049500D01*
X47707173Y-62080290D01*
X47519970Y-62141117D01*
X47344594Y-62230476D01*
X47283261Y-62275038D01*
X47185354Y-62346172D01*
X47185352Y-62346174D01*
X47185351Y-62346174D01*
X47046174Y-62485351D01*
X47046174Y-62485352D01*
X47046172Y-62485354D01*
X46996485Y-62553741D01*
X46930476Y-62644594D01*
X46841117Y-62819970D01*
X46780290Y-63007173D01*
X46749500Y-63201577D01*
X44250500Y-63201577D01*
X44219709Y-63007173D01*
X44169450Y-62852494D01*
X44158884Y-62819975D01*
X44158882Y-62819972D01*
X44158882Y-62819970D01*
X44069523Y-62644594D01*
X43953828Y-62485354D01*
X43814646Y-62346172D01*
X43716739Y-62275038D01*
X43651614Y-62227721D01*
X43608949Y-62172390D01*
X43600500Y-62127403D01*
X43600500Y-60021597D01*
X43620185Y-59954558D01*
X43636819Y-59933916D01*
X49256449Y-54314286D01*
X56186974Y-47383760D01*
X56248295Y-47350277D01*
X56301021Y-47350842D01*
X56301052Y-47350651D01*
X56302349Y-47350856D01*
X56303604Y-47350870D01*
X56305858Y-47351411D01*
X56305864Y-47351413D01*
X56305869Y-47351413D01*
X56305870Y-47351414D01*
X56328972Y-47355073D01*
X56502139Y-47382500D01*
X56502140Y-47382500D01*
X56700860Y-47382500D01*
X56700861Y-47382500D01*
X56897136Y-47351413D01*
X57086132Y-47290005D01*
X57263194Y-47199787D01*
X57265569Y-47198061D01*
X57281114Y-47186768D01*
X57346920Y-47163287D01*
X57414974Y-47179112D01*
X57463669Y-47229217D01*
X57478000Y-47287085D01*
X57478000Y-51491830D01*
X57477999Y-51491848D01*
X57477999Y-51657554D01*
X57477998Y-51657554D01*
X57518923Y-51810285D01*
X57547858Y-51860400D01*
X57547860Y-51860404D01*
X57578515Y-51913501D01*
X57594987Y-51981401D01*
X57572134Y-52047428D01*
X57517212Y-52090618D01*
X57471127Y-52099500D01*
X56512129Y-52099500D01*
X56512123Y-52099501D01*
X56452516Y-52105908D01*
X56317671Y-52156202D01*
X56317664Y-52156206D01*
X56202455Y-52242452D01*
X56202452Y-52242455D01*
X56116206Y-52357664D01*
X56116202Y-52357671D01*
X56065908Y-52492517D01*
X56059501Y-52552116D01*
X56059500Y-52552135D01*
X56059500Y-54447870D01*
X56059501Y-54447876D01*
X56065908Y-54507483D01*
X56116202Y-54642328D01*
X56116206Y-54642335D01*
X56202452Y-54757544D01*
X56202455Y-54757547D01*
X56317664Y-54843793D01*
X56317671Y-54843797D01*
X56452517Y-54894091D01*
X56452516Y-54894091D01*
X56459444Y-54894835D01*
X56512127Y-54900500D01*
X58407872Y-54900499D01*
X58467483Y-54894091D01*
X58602331Y-54843796D01*
X58717546Y-54757546D01*
X58803796Y-54642331D01*
X58831429Y-54568243D01*
X58833601Y-54562420D01*
X58875471Y-54506486D01*
X58940936Y-54482068D01*
X59009209Y-54496919D01*
X59037464Y-54518071D01*
X59087636Y-54568243D01*
X59087641Y-54568247D01*
X59140499Y-54606650D01*
X59265978Y-54697815D01*
X59394375Y-54763237D01*
X59462393Y-54797895D01*
X59462396Y-54797896D01*
X59567221Y-54831955D01*
X59672049Y-54866015D01*
X59889778Y-54900500D01*
X59889779Y-54900500D01*
X60110221Y-54900500D01*
X60110222Y-54900500D01*
X60327951Y-54866015D01*
X60537606Y-54797895D01*
X60719204Y-54705364D01*
X60787873Y-54692468D01*
X60852614Y-54718744D01*
X60892872Y-54775850D01*
X60899500Y-54815849D01*
X60899500Y-59199902D01*
X60879815Y-59266941D01*
X60863181Y-59287583D01*
X58056114Y-62094649D01*
X57994791Y-62128134D01*
X57930114Y-62124899D01*
X57792826Y-62080290D01*
X57598422Y-62049500D01*
X57598417Y-62049500D01*
X57401583Y-62049500D01*
X57401578Y-62049500D01*
X57207173Y-62080290D01*
X57019970Y-62141117D01*
X56844594Y-62230476D01*
X56783261Y-62275038D01*
X56685354Y-62346172D01*
X56685352Y-62346174D01*
X56685351Y-62346174D01*
X56546174Y-62485351D01*
X56546174Y-62485352D01*
X56546172Y-62485354D01*
X56496485Y-62553741D01*
X56430476Y-62644594D01*
X56341117Y-62819970D01*
X56280290Y-63007173D01*
X56249500Y-63201577D01*
X56249500Y-63798422D01*
X56280290Y-63992826D01*
X56341117Y-64180029D01*
X56430476Y-64355405D01*
X56546172Y-64514646D01*
X56685354Y-64653828D01*
X56844595Y-64769524D01*
X56927455Y-64811743D01*
X57019970Y-64858882D01*
X57019972Y-64858882D01*
X57019975Y-64858884D01*
X57120317Y-64891487D01*
X57207173Y-64919709D01*
X57401578Y-64950500D01*
X57401583Y-64950500D01*
X57598422Y-64950500D01*
X57792826Y-64919709D01*
X57794328Y-64919221D01*
X57980025Y-64858884D01*
X58155405Y-64769524D01*
X58314646Y-64653828D01*
X58453828Y-64514646D01*
X58569524Y-64355405D01*
X58658884Y-64180025D01*
X58719709Y-63992826D01*
X58741768Y-63853552D01*
X58750500Y-63798422D01*
X58750500Y-63201584D01*
X58746321Y-63175200D01*
X58755275Y-63105906D01*
X58781110Y-63068123D01*
X61868713Y-59980521D01*
X61868716Y-59980520D01*
X61980520Y-59868716D01*
X62030639Y-59781904D01*
X62059577Y-59731785D01*
X62100500Y-59579058D01*
X62100500Y-59420943D01*
X62100500Y-48567560D01*
X62100501Y-48567547D01*
X62100501Y-48399444D01*
X62100501Y-48399443D01*
X62059577Y-48246716D01*
X62027863Y-48191785D01*
X61980524Y-48109790D01*
X61980518Y-48109782D01*
X61744066Y-47873330D01*
X61461191Y-47590456D01*
X61427707Y-47529134D01*
X61432691Y-47459443D01*
X61474562Y-47403509D01*
X61540027Y-47379092D01*
X61568265Y-47380302D01*
X61582139Y-47382500D01*
X61582143Y-47382500D01*
X61780860Y-47382500D01*
X61780861Y-47382500D01*
X61977136Y-47351413D01*
X62166132Y-47290005D01*
X62219205Y-47262962D01*
X62287872Y-47250066D01*
X62352613Y-47276341D01*
X62392871Y-47333447D01*
X62399500Y-47373447D01*
X62399500Y-47873330D01*
X62399499Y-47873348D01*
X62399499Y-48039054D01*
X62399498Y-48039054D01*
X62440423Y-48191785D01*
X62469358Y-48241900D01*
X62469359Y-48241904D01*
X62469360Y-48241904D01*
X62519479Y-48328714D01*
X62519481Y-48328717D01*
X62638349Y-48447585D01*
X62638355Y-48447590D01*
X66078584Y-51887819D01*
X66112069Y-51949142D01*
X66107085Y-52018834D01*
X66065213Y-52074767D01*
X65999749Y-52099184D01*
X65990903Y-52099500D01*
X65052129Y-52099500D01*
X65052123Y-52099501D01*
X64992516Y-52105908D01*
X64857671Y-52156202D01*
X64857664Y-52156206D01*
X64742455Y-52242452D01*
X64742452Y-52242455D01*
X64656206Y-52357664D01*
X64656202Y-52357671D01*
X64605908Y-52492517D01*
X64599501Y-52552116D01*
X64599500Y-52552135D01*
X64599500Y-54447870D01*
X64599501Y-54447876D01*
X64605908Y-54507483D01*
X64656202Y-54642328D01*
X64656206Y-54642335D01*
X64742452Y-54757544D01*
X64742455Y-54757547D01*
X64857664Y-54843793D01*
X64857671Y-54843797D01*
X64992517Y-54894091D01*
X64992516Y-54894091D01*
X64999444Y-54894835D01*
X65052127Y-54900500D01*
X66947872Y-54900499D01*
X67007483Y-54894091D01*
X67142331Y-54843796D01*
X67257546Y-54757546D01*
X67343796Y-54642331D01*
X67371429Y-54568243D01*
X67373601Y-54562420D01*
X67415471Y-54506486D01*
X67480936Y-54482068D01*
X67549209Y-54496919D01*
X67577464Y-54518071D01*
X67627636Y-54568243D01*
X67627641Y-54568247D01*
X67680499Y-54606650D01*
X67805978Y-54697815D01*
X67934375Y-54763237D01*
X68002393Y-54797895D01*
X68002396Y-54797896D01*
X68107221Y-54831955D01*
X68212049Y-54866015D01*
X68429778Y-54900500D01*
X68429779Y-54900500D01*
X68650221Y-54900500D01*
X68650222Y-54900500D01*
X68867951Y-54866015D01*
X69077606Y-54797895D01*
X69219205Y-54725745D01*
X69287873Y-54712849D01*
X69352614Y-54739125D01*
X69392871Y-54796231D01*
X69399500Y-54836230D01*
X69399500Y-55699902D01*
X69379815Y-55766941D01*
X69363181Y-55787583D01*
X63056114Y-62094649D01*
X62994791Y-62128134D01*
X62930114Y-62124899D01*
X62792826Y-62080290D01*
X62598422Y-62049500D01*
X62598417Y-62049500D01*
X62401583Y-62049500D01*
X62401578Y-62049500D01*
X62207173Y-62080290D01*
X62019970Y-62141117D01*
X61844594Y-62230476D01*
X61783261Y-62275038D01*
X61685354Y-62346172D01*
X61685352Y-62346174D01*
X61685351Y-62346174D01*
X61546174Y-62485351D01*
X61546174Y-62485352D01*
X61546172Y-62485354D01*
X61496485Y-62553741D01*
X61430476Y-62644594D01*
X61341117Y-62819970D01*
X61280290Y-63007173D01*
X61249500Y-63201577D01*
X61249500Y-63798422D01*
X61280290Y-63992826D01*
X61341117Y-64180029D01*
X61430476Y-64355405D01*
X61546172Y-64514646D01*
X61685354Y-64653828D01*
X61844595Y-64769524D01*
X61927455Y-64811743D01*
X62019970Y-64858882D01*
X62019972Y-64858882D01*
X62019975Y-64858884D01*
X62120317Y-64891487D01*
X62207173Y-64919709D01*
X62401578Y-64950500D01*
X62401583Y-64950500D01*
X62598422Y-64950500D01*
X62792826Y-64919709D01*
X62794328Y-64919221D01*
X62980025Y-64858884D01*
X63155405Y-64769524D01*
X63314646Y-64653828D01*
X63453828Y-64514646D01*
X63569524Y-64355405D01*
X63658884Y-64180025D01*
X63719709Y-63992826D01*
X63741768Y-63853552D01*
X63750500Y-63798422D01*
X63750500Y-63201584D01*
X63746321Y-63175200D01*
X63755275Y-63105906D01*
X63781110Y-63068123D01*
X63996747Y-62852486D01*
X65749500Y-62852486D01*
X65749500Y-63147513D01*
X65765417Y-63268409D01*
X65788007Y-63439993D01*
X65845045Y-63652862D01*
X65864361Y-63724951D01*
X65864364Y-63724961D01*
X65977254Y-63997500D01*
X65977258Y-63997510D01*
X66124761Y-64252993D01*
X66304352Y-64487040D01*
X66304358Y-64487047D01*
X66512952Y-64695641D01*
X66512959Y-64695647D01*
X66747006Y-64875238D01*
X67002489Y-65022741D01*
X67002490Y-65022741D01*
X67002493Y-65022743D01*
X67275048Y-65135639D01*
X67560007Y-65211993D01*
X67852494Y-65250500D01*
X67852501Y-65250500D01*
X68147499Y-65250500D01*
X68147506Y-65250500D01*
X68439993Y-65211993D01*
X68724952Y-65135639D01*
X68997507Y-65022743D01*
X69252994Y-64875238D01*
X69487042Y-64695646D01*
X69695646Y-64487042D01*
X69875238Y-64252994D01*
X70022743Y-63997507D01*
X70135639Y-63724952D01*
X70211993Y-63439993D01*
X70250500Y-63147506D01*
X70250500Y-62852494D01*
X70211993Y-62560007D01*
X70135639Y-62275048D01*
X70022743Y-62002493D01*
X69875238Y-61747006D01*
X69695646Y-61512958D01*
X69695641Y-61512952D01*
X69487047Y-61304358D01*
X69487040Y-61304352D01*
X69252993Y-61124761D01*
X68997510Y-60977258D01*
X68997500Y-60977254D01*
X68724961Y-60864364D01*
X68724954Y-60864362D01*
X68724952Y-60864361D01*
X68439993Y-60788007D01*
X68391113Y-60781571D01*
X68147513Y-60749500D01*
X68147506Y-60749500D01*
X67852494Y-60749500D01*
X67852486Y-60749500D01*
X67574085Y-60786153D01*
X67560007Y-60788007D01*
X67275048Y-60864361D01*
X67275038Y-60864364D01*
X67002499Y-60977254D01*
X67002489Y-60977258D01*
X66747006Y-61124761D01*
X66512959Y-61304352D01*
X66512952Y-61304358D01*
X66304358Y-61512952D01*
X66304352Y-61512959D01*
X66124761Y-61747006D01*
X65977258Y-62002489D01*
X65977254Y-62002499D01*
X65864364Y-62275038D01*
X65864361Y-62275048D01*
X65825566Y-62419836D01*
X65788008Y-62560004D01*
X65788006Y-62560015D01*
X65749500Y-62852486D01*
X63996747Y-62852486D01*
X70480520Y-56368716D01*
X70559577Y-56231784D01*
X70600501Y-56079057D01*
X70600501Y-55920942D01*
X70600501Y-55913347D01*
X70600500Y-55913329D01*
X70600500Y-51819445D01*
X70600500Y-51819443D01*
X70559577Y-51666716D01*
X70559577Y-51666715D01*
X70521348Y-51600501D01*
X70480520Y-51529784D01*
X70368716Y-51417980D01*
X70368715Y-51417979D01*
X70364385Y-51413649D01*
X70364374Y-51413639D01*
X66540590Y-47589855D01*
X66507105Y-47528532D01*
X66512089Y-47458840D01*
X66553961Y-47402907D01*
X66619425Y-47378490D01*
X66647674Y-47379701D01*
X66662185Y-47382000D01*
X66860821Y-47382000D01*
X67057020Y-47350924D01*
X67057023Y-47350924D01*
X67245937Y-47289542D01*
X67422925Y-47199362D01*
X67460215Y-47172268D01*
X66845594Y-46557647D01*
X66933071Y-46534208D01*
X67034430Y-46475689D01*
X67117189Y-46392930D01*
X67175708Y-46291571D01*
X67199147Y-46204094D01*
X67813768Y-46818715D01*
X67840864Y-46781422D01*
X67920734Y-46624669D01*
X67968708Y-46573872D01*
X68036529Y-46557077D01*
X68102664Y-46579614D01*
X68141703Y-46624667D01*
X68221713Y-46781694D01*
X68338519Y-46942464D01*
X68479036Y-47082981D01*
X68639806Y-47199787D01*
X68726649Y-47244035D01*
X68816867Y-47290005D01*
X68816870Y-47290006D01*
X68858629Y-47303574D01*
X69005864Y-47351413D01*
X69202139Y-47382500D01*
X69202140Y-47382500D01*
X69400860Y-47382500D01*
X69400861Y-47382500D01*
X69597136Y-47351413D01*
X69786132Y-47290005D01*
X69963194Y-47199787D01*
X70123964Y-47082981D01*
X70264481Y-46942464D01*
X70381287Y-46781694D01*
X70471505Y-46604632D01*
X70532913Y-46415636D01*
X70564000Y-46219361D01*
X70564000Y-46020639D01*
X70532913Y-45824364D01*
X70471505Y-45635368D01*
X70471505Y-45635367D01*
X70402036Y-45499029D01*
X70381287Y-45458306D01*
X70264481Y-45297536D01*
X70123964Y-45157019D01*
X69963194Y-45040213D01*
X69923432Y-45019953D01*
X69786132Y-44949994D01*
X69786129Y-44949993D01*
X69597137Y-44888587D01*
X69498998Y-44873043D01*
X69400861Y-44857500D01*
X69202139Y-44857500D01*
X69144987Y-44866552D01*
X69005862Y-44888587D01*
X68816870Y-44949993D01*
X68816867Y-44949994D01*
X68639805Y-45040213D01*
X68479033Y-45157021D01*
X68338521Y-45297533D01*
X68221713Y-45458305D01*
X68141704Y-45615331D01*
X68093729Y-45666127D01*
X68025908Y-45682922D01*
X67959773Y-45660384D01*
X67920734Y-45615331D01*
X67840858Y-45458567D01*
X67813768Y-45421283D01*
X67199147Y-46035904D01*
X67175708Y-45948429D01*
X67117189Y-45847070D01*
X67034430Y-45764311D01*
X66933071Y-45705792D01*
X66845593Y-45682352D01*
X67460215Y-45067730D01*
X67422932Y-45040641D01*
X67245937Y-44950457D01*
X67057022Y-44889075D01*
X66860821Y-44858000D01*
X66662182Y-44858000D01*
X66647664Y-44860299D01*
X66578371Y-44851342D01*
X66524920Y-44806345D01*
X66504282Y-44739593D01*
X66523008Y-44672279D01*
X66540580Y-44650153D01*
X68183006Y-43007728D01*
X68183011Y-43007724D01*
X68193214Y-42997520D01*
X68193216Y-42997520D01*
X68305020Y-42885716D01*
X68384077Y-42748784D01*
X68425000Y-42596057D01*
X68425000Y-32047085D01*
X68444685Y-31980046D01*
X68497489Y-31934291D01*
X68566647Y-31924347D01*
X68621886Y-31946768D01*
X68639801Y-31959784D01*
X68639803Y-31959785D01*
X68639806Y-31959787D01*
X68723072Y-32002213D01*
X68816867Y-32050005D01*
X68816870Y-32050006D01*
X68911366Y-32080709D01*
X69005864Y-32111413D01*
X69202139Y-32142500D01*
X69202140Y-32142500D01*
X69400860Y-32142500D01*
X69400861Y-32142500D01*
X69597136Y-32111413D01*
X69786132Y-32050005D01*
X69963194Y-31959787D01*
X70123964Y-31842981D01*
X70264481Y-31702464D01*
X70381287Y-31541694D01*
X70471505Y-31364632D01*
X70532913Y-31175636D01*
X70564000Y-30979361D01*
X70564000Y-30780639D01*
X70532913Y-30584364D01*
X70471505Y-30395368D01*
X70471505Y-30395367D01*
X70381286Y-30218305D01*
X70287469Y-30089177D01*
X70264481Y-30057536D01*
X70123964Y-29917019D01*
X69963194Y-29800213D01*
X69936917Y-29786824D01*
X69786132Y-29709994D01*
X69786129Y-29709993D01*
X69597137Y-29648587D01*
X69498998Y-29633043D01*
X69400861Y-29617500D01*
X69202139Y-29617500D01*
X69136714Y-29627862D01*
X69005862Y-29648587D01*
X68816870Y-29709993D01*
X68816867Y-29709994D01*
X68639805Y-29800213D01*
X68479033Y-29917021D01*
X68479032Y-29917022D01*
X68402730Y-29993323D01*
X68394786Y-29997660D01*
X68389363Y-30004906D01*
X68364603Y-30014141D01*
X68341407Y-30026808D01*
X68332378Y-30026162D01*
X68323899Y-30029325D01*
X68298073Y-30023707D01*
X68271715Y-30021822D01*
X68262664Y-30016005D01*
X68255626Y-30014475D01*
X68227385Y-29993334D01*
X68227371Y-29993325D01*
X68227369Y-29993323D01*
X68193216Y-29959170D01*
X68193213Y-29959168D01*
X66372400Y-28138355D01*
X66372398Y-28138352D01*
X66253527Y-28019481D01*
X66253526Y-28019480D01*
X66166714Y-27969360D01*
X66166714Y-27969359D01*
X66166710Y-27969358D01*
X66116595Y-27940423D01*
X65963867Y-27899499D01*
X65805753Y-27899499D01*
X65798157Y-27899499D01*
X65798141Y-27899500D01*
X51300097Y-27899500D01*
X51233058Y-27879815D01*
X51212416Y-27863181D01*
X47246883Y-23897648D01*
X51199500Y-23897648D01*
X51199500Y-24102351D01*
X51231522Y-24304534D01*
X51294781Y-24499223D01*
X51387715Y-24681613D01*
X51508028Y-24847213D01*
X51652786Y-24991971D01*
X51807749Y-25104556D01*
X51818390Y-25112287D01*
X51934607Y-25171503D01*
X52000776Y-25205218D01*
X52000778Y-25205218D01*
X52000781Y-25205220D01*
X52105137Y-25239127D01*
X52195465Y-25268477D01*
X52296557Y-25284488D01*
X52397648Y-25300500D01*
X52397649Y-25300500D01*
X52602351Y-25300500D01*
X52602352Y-25300500D01*
X52804534Y-25268477D01*
X52999219Y-25205220D01*
X53181610Y-25112287D01*
X53274590Y-25044732D01*
X53347213Y-24991971D01*
X53347215Y-24991968D01*
X53347219Y-24991966D01*
X53491966Y-24847219D01*
X53491968Y-24847215D01*
X53491971Y-24847213D01*
X53572010Y-24737047D01*
X53612287Y-24681610D01*
X53705220Y-24499219D01*
X53768477Y-24304534D01*
X53800500Y-24102352D01*
X53800500Y-23897648D01*
X53786203Y-23807379D01*
X53768477Y-23695465D01*
X53711296Y-23519481D01*
X53705220Y-23500781D01*
X53705218Y-23500778D01*
X53705218Y-23500776D01*
X53671503Y-23434607D01*
X53612287Y-23318390D01*
X53584970Y-23280791D01*
X53491971Y-23152786D01*
X53347213Y-23008028D01*
X53181613Y-22887715D01*
X53181612Y-22887714D01*
X53181610Y-22887713D01*
X53066951Y-22829291D01*
X52999223Y-22794781D01*
X52804534Y-22731522D01*
X52745266Y-22722135D01*
X55451000Y-22722135D01*
X55451000Y-24517870D01*
X55451001Y-24517876D01*
X55457408Y-24577483D01*
X55507702Y-24712328D01*
X55507706Y-24712335D01*
X55593952Y-24827544D01*
X55593955Y-24827547D01*
X55709164Y-24913793D01*
X55709171Y-24913797D01*
X55844017Y-24964091D01*
X55844016Y-24964091D01*
X55850944Y-24964835D01*
X55903627Y-24970500D01*
X57699372Y-24970499D01*
X57758983Y-24964091D01*
X57893831Y-24913796D01*
X58009046Y-24827546D01*
X58095296Y-24712331D01*
X58145591Y-24577483D01*
X58152000Y-24517873D01*
X58151999Y-23102486D01*
X65749500Y-23102486D01*
X65749500Y-23397513D01*
X65765558Y-23519479D01*
X65788007Y-23689993D01*
X65838947Y-23880104D01*
X65864361Y-23974951D01*
X65864364Y-23974961D01*
X65977254Y-24247500D01*
X65977258Y-24247510D01*
X66124761Y-24502993D01*
X66304352Y-24737040D01*
X66304358Y-24737047D01*
X66512952Y-24945641D01*
X66512959Y-24945647D01*
X66747006Y-25125238D01*
X67002489Y-25272741D01*
X67002490Y-25272741D01*
X67002493Y-25272743D01*
X67275048Y-25385639D01*
X67560007Y-25461993D01*
X67852494Y-25500500D01*
X67852501Y-25500500D01*
X68147499Y-25500500D01*
X68147506Y-25500500D01*
X68439993Y-25461993D01*
X68724952Y-25385639D01*
X68997507Y-25272743D01*
X69252994Y-25125238D01*
X69487042Y-24945646D01*
X69695646Y-24737042D01*
X69875238Y-24502994D01*
X70022743Y-24247507D01*
X70135639Y-23974952D01*
X70211993Y-23689993D01*
X70250500Y-23397506D01*
X70250500Y-23102494D01*
X70211993Y-22810007D01*
X70135639Y-22525048D01*
X70022743Y-22252493D01*
X69959053Y-22142179D01*
X69875238Y-21997006D01*
X69695647Y-21762959D01*
X69695641Y-21762952D01*
X69487047Y-21554358D01*
X69487040Y-21554352D01*
X69252993Y-21374761D01*
X68997510Y-21227258D01*
X68997500Y-21227254D01*
X68724961Y-21114364D01*
X68724954Y-21114362D01*
X68724952Y-21114361D01*
X68439993Y-21038007D01*
X68391113Y-21031571D01*
X68147513Y-20999500D01*
X68147506Y-20999500D01*
X67852494Y-20999500D01*
X67852486Y-20999500D01*
X67574085Y-21036153D01*
X67560007Y-21038007D01*
X67275048Y-21114361D01*
X67275038Y-21114364D01*
X67002499Y-21227254D01*
X67002489Y-21227258D01*
X66747006Y-21374761D01*
X66512959Y-21554352D01*
X66512952Y-21554358D01*
X66304358Y-21762952D01*
X66304352Y-21762959D01*
X66124761Y-21997006D01*
X65977258Y-22252489D01*
X65977254Y-22252499D01*
X65864364Y-22525038D01*
X65864361Y-22525048D01*
X65788008Y-22810004D01*
X65788006Y-22810015D01*
X65749500Y-23102486D01*
X58151999Y-23102486D01*
X58151999Y-22722128D01*
X58145591Y-22662517D01*
X58121206Y-22597138D01*
X58095297Y-22527671D01*
X58095293Y-22527664D01*
X58009047Y-22412455D01*
X58009044Y-22412452D01*
X57893835Y-22326206D01*
X57893828Y-22326202D01*
X57758982Y-22275908D01*
X57758983Y-22275908D01*
X57699383Y-22269501D01*
X57699381Y-22269500D01*
X57699373Y-22269500D01*
X57699364Y-22269500D01*
X55903629Y-22269500D01*
X55903623Y-22269501D01*
X55844016Y-22275908D01*
X55709171Y-22326202D01*
X55709164Y-22326206D01*
X55593955Y-22412452D01*
X55593952Y-22412455D01*
X55507706Y-22527664D01*
X55507702Y-22527671D01*
X55457408Y-22662517D01*
X55451001Y-22722116D01*
X55451001Y-22722123D01*
X55451000Y-22722135D01*
X52745266Y-22722135D01*
X52629995Y-22703878D01*
X52602352Y-22699500D01*
X52397648Y-22699500D01*
X52373329Y-22703351D01*
X52195465Y-22731522D01*
X52000776Y-22794781D01*
X51818386Y-22887715D01*
X51652786Y-23008028D01*
X51508028Y-23152786D01*
X51387715Y-23318386D01*
X51294781Y-23500776D01*
X51231522Y-23695465D01*
X51199500Y-23897648D01*
X47246883Y-23897648D01*
X46987590Y-23638355D01*
X46987588Y-23638352D01*
X46868717Y-23519481D01*
X46868716Y-23519480D01*
X46781904Y-23469360D01*
X46781904Y-23469359D01*
X46781900Y-23469358D01*
X46731785Y-23440423D01*
X46579057Y-23399499D01*
X46420943Y-23399499D01*
X46413347Y-23399499D01*
X46413331Y-23399500D01*
X43569602Y-23399500D01*
X43502563Y-23379815D01*
X43459117Y-23331795D01*
X43452284Y-23318385D01*
X43331971Y-23152786D01*
X43187213Y-23008028D01*
X43021613Y-22887715D01*
X43021612Y-22887714D01*
X43021610Y-22887713D01*
X42906951Y-22829291D01*
X42839223Y-22794781D01*
X42644534Y-22731522D01*
X42469995Y-22703878D01*
X42442352Y-22699500D01*
X42237648Y-22699500D01*
X42213329Y-22703351D01*
X42035465Y-22731522D01*
X41840776Y-22794781D01*
X41658386Y-22887715D01*
X41492786Y-23008028D01*
X41348028Y-23152786D01*
X41227715Y-23318386D01*
X41134781Y-23500776D01*
X41071522Y-23695465D01*
X41039500Y-23897648D01*
X31205645Y-23897648D01*
X31229786Y-23880109D01*
X31229788Y-23880106D01*
X31229792Y-23880104D01*
X31380104Y-23729792D01*
X31380106Y-23729788D01*
X31380109Y-23729786D01*
X31505048Y-23557820D01*
X31505047Y-23557820D01*
X31505051Y-23557816D01*
X31601557Y-23368412D01*
X31667246Y-23166243D01*
X31700500Y-22956287D01*
X31700500Y-22743713D01*
X31667246Y-22533757D01*
X31601557Y-22331588D01*
X31505051Y-22142184D01*
X31505049Y-22142181D01*
X31505048Y-22142179D01*
X31380109Y-21970213D01*
X31229786Y-21819890D01*
X31057820Y-21694951D01*
X30868414Y-21598444D01*
X30868413Y-21598443D01*
X30868412Y-21598443D01*
X30666243Y-21532754D01*
X30666241Y-21532753D01*
X30666240Y-21532753D01*
X30504957Y-21507208D01*
X30456287Y-21499500D01*
X30243713Y-21499500D01*
X30195042Y-21507208D01*
X30033760Y-21532753D01*
X29831585Y-21598444D01*
X29642179Y-21694951D01*
X29470215Y-21819889D01*
X29356285Y-21933819D01*
X29294962Y-21967303D01*
X29225270Y-21962319D01*
X29169337Y-21920447D01*
X29152422Y-21889470D01*
X29103354Y-21757913D01*
X29103350Y-21757906D01*
X29017190Y-21642812D01*
X29017187Y-21642809D01*
X28902093Y-21556649D01*
X28902086Y-21556645D01*
X28767379Y-21506403D01*
X28767372Y-21506401D01*
X28707844Y-21500000D01*
X28060000Y-21500000D01*
X28060000Y-22416988D01*
X28002993Y-22384075D01*
X27875826Y-22350000D01*
X27744174Y-22350000D01*
X27617007Y-22384075D01*
X27560000Y-22416988D01*
X27560000Y-21500000D01*
X26912155Y-21500000D01*
X26852627Y-21506401D01*
X26852620Y-21506403D01*
X26717913Y-21556645D01*
X26717906Y-21556649D01*
X26602812Y-21642809D01*
X26602809Y-21642812D01*
X26516649Y-21757906D01*
X26516645Y-21757913D01*
X26466403Y-21892620D01*
X26466401Y-21892627D01*
X26460000Y-21952155D01*
X26460000Y-22600000D01*
X27376988Y-22600000D01*
X27344075Y-22657007D01*
X27310000Y-22784174D01*
X27310000Y-22915826D01*
X27344075Y-23042993D01*
X27376988Y-23100000D01*
X26460000Y-23100000D01*
X26460000Y-23747844D01*
X26466401Y-23807372D01*
X26466403Y-23807379D01*
X26516645Y-23942086D01*
X26516649Y-23942093D01*
X26602809Y-24057187D01*
X26602812Y-24057190D01*
X26717906Y-24143350D01*
X26717913Y-24143354D01*
X26852620Y-24193596D01*
X26852627Y-24193598D01*
X26912155Y-24199999D01*
X26912172Y-24200000D01*
X27560000Y-24200000D01*
X27560000Y-23283012D01*
X27617007Y-23315925D01*
X27744174Y-23350000D01*
X27875826Y-23350000D01*
X28002993Y-23315925D01*
X28060000Y-23283012D01*
X28060000Y-24239402D01*
X28040315Y-24306441D01*
X28023681Y-24327083D01*
X27137584Y-25213181D01*
X27076261Y-25246666D01*
X27049903Y-25249500D01*
X24909669Y-25249500D01*
X24909653Y-25249499D01*
X24902057Y-25249499D01*
X24743943Y-25249499D01*
X24636587Y-25278265D01*
X24591210Y-25290424D01*
X24591209Y-25290425D01*
X24541096Y-25319359D01*
X24541095Y-25319360D01*
X24497689Y-25344420D01*
X24454285Y-25369479D01*
X24454282Y-25369481D01*
X24342478Y-25481286D01*
X24010624Y-25813139D01*
X23949301Y-25846624D01*
X23903545Y-25847931D01*
X23810888Y-25833255D01*
X23780861Y-25828500D01*
X23599139Y-25828500D01*
X23558681Y-25834908D01*
X23419652Y-25856928D01*
X23419649Y-25856928D01*
X23246828Y-25913081D01*
X23246825Y-25913083D01*
X23084909Y-25995583D01*
X23001030Y-26056525D01*
X22937894Y-26102397D01*
X22937892Y-26102399D01*
X22937891Y-26102399D01*
X22809399Y-26230891D01*
X22809399Y-26230892D01*
X22809397Y-26230894D01*
X22763525Y-26294030D01*
X22702583Y-26377909D01*
X22620083Y-26539825D01*
X22620081Y-26539828D01*
X22563928Y-26712649D01*
X22563928Y-26712650D01*
X22542219Y-26849713D01*
X22512289Y-26912847D01*
X22452978Y-26949778D01*
X22383115Y-26948780D01*
X22324883Y-26910170D01*
X22297273Y-26849711D01*
X22275585Y-26712775D01*
X22275584Y-26712774D01*
X22219450Y-26540012D01*
X22136993Y-26378179D01*
X22136985Y-26378165D01*
X22124950Y-26361603D01*
X22124949Y-26361602D01*
X21550000Y-26936552D01*
X21550000Y-26930339D01*
X21522741Y-26828606D01*
X21470080Y-26737394D01*
X21395606Y-26662920D01*
X21304394Y-26610259D01*
X21202661Y-26583000D01*
X21196447Y-26583000D01*
X21771396Y-26008049D01*
X21771395Y-26008048D01*
X21754834Y-25996014D01*
X21754830Y-25996012D01*
X21592984Y-25913548D01*
X21420225Y-25857415D01*
X21240821Y-25829000D01*
X21059179Y-25829000D01*
X20879774Y-25857415D01*
X20707015Y-25913548D01*
X20545170Y-25996012D01*
X20545161Y-25996018D01*
X20528603Y-26008048D01*
X20528602Y-26008049D01*
X21103554Y-26583000D01*
X21097339Y-26583000D01*
X20995606Y-26610259D01*
X20904394Y-26662920D01*
X20829920Y-26737394D01*
X20777259Y-26828606D01*
X20750000Y-26930339D01*
X20750000Y-26936553D01*
X20175049Y-26361602D01*
X20175048Y-26361603D01*
X20163018Y-26378161D01*
X20163012Y-26378170D01*
X20080548Y-26540015D01*
X20024415Y-26712774D01*
X20002726Y-26849712D01*
X19972797Y-26912847D01*
X19913485Y-26949778D01*
X19843622Y-26948780D01*
X19785390Y-26910170D01*
X19757780Y-26849712D01*
X19757527Y-26848114D01*
X19736072Y-26712654D01*
X19736071Y-26712650D01*
X19736071Y-26712649D01*
X19679918Y-26539828D01*
X19679916Y-26539825D01*
X19675555Y-26531265D01*
X19597417Y-26377910D01*
X19490603Y-26230894D01*
X19362106Y-26102397D01*
X19215090Y-25995583D01*
X19053174Y-25913083D01*
X19053171Y-25913081D01*
X18880348Y-25856928D01*
X18741319Y-25834908D01*
X18700861Y-25828500D01*
X18519139Y-25828500D01*
X18478681Y-25834908D01*
X18339652Y-25856928D01*
X18339649Y-25856928D01*
X18166828Y-25913081D01*
X18166825Y-25913083D01*
X18004909Y-25995583D01*
X17921030Y-26056525D01*
X17857894Y-26102397D01*
X17857892Y-26102399D01*
X17857891Y-26102399D01*
X17729396Y-26230894D01*
X17724817Y-26237198D01*
X17669486Y-26279863D01*
X17599872Y-26285841D01*
X17538078Y-26253234D01*
X17503722Y-26192394D01*
X17500500Y-26164311D01*
X17500500Y-23102486D01*
X18249500Y-23102486D01*
X18249500Y-23397513D01*
X18265558Y-23519479D01*
X18288007Y-23689993D01*
X18338947Y-23880104D01*
X18364361Y-23974951D01*
X18364364Y-23974961D01*
X18477254Y-24247500D01*
X18477258Y-24247510D01*
X18624761Y-24502993D01*
X18804352Y-24737040D01*
X18804358Y-24737047D01*
X19012952Y-24945641D01*
X19012959Y-24945647D01*
X19247006Y-25125238D01*
X19502489Y-25272741D01*
X19502490Y-25272741D01*
X19502493Y-25272743D01*
X19775048Y-25385639D01*
X20060007Y-25461993D01*
X20352494Y-25500500D01*
X20352501Y-25500500D01*
X20647499Y-25500500D01*
X20647506Y-25500500D01*
X20939993Y-25461993D01*
X21224952Y-25385639D01*
X21497507Y-25272743D01*
X21752994Y-25125238D01*
X21987042Y-24945646D01*
X22195646Y-24737042D01*
X22375238Y-24502994D01*
X22522743Y-24247507D01*
X22635639Y-23974952D01*
X22711993Y-23689993D01*
X22750500Y-23397506D01*
X22750500Y-23102494D01*
X22747962Y-23083221D01*
X22745541Y-23064823D01*
X22725924Y-22915826D01*
X22711993Y-22810007D01*
X22635639Y-22525048D01*
X22522743Y-22252493D01*
X22483560Y-22184626D01*
X22383233Y-22010853D01*
X22383232Y-22010852D01*
X22379479Y-22004352D01*
X22375238Y-21997006D01*
X22195646Y-21762958D01*
X22195641Y-21762952D01*
X21987047Y-21554358D01*
X21987040Y-21554352D01*
X21752993Y-21374761D01*
X21497510Y-21227258D01*
X21497500Y-21227254D01*
X21224961Y-21114364D01*
X21224954Y-21114362D01*
X21224952Y-21114361D01*
X20939993Y-21038007D01*
X20891113Y-21031571D01*
X20647513Y-20999500D01*
X20647506Y-20999500D01*
X20352494Y-20999500D01*
X20352486Y-20999500D01*
X20074085Y-21036153D01*
X20060007Y-21038007D01*
X19775048Y-21114361D01*
X19775038Y-21114364D01*
X19502499Y-21227254D01*
X19502489Y-21227258D01*
X19247006Y-21374761D01*
X19012959Y-21554352D01*
X19012952Y-21554358D01*
X18804358Y-21762952D01*
X18804352Y-21762959D01*
X18624761Y-21997006D01*
X18477258Y-22252489D01*
X18477254Y-22252499D01*
X18364364Y-22525038D01*
X18364361Y-22525048D01*
X18288008Y-22810004D01*
X18288006Y-22810015D01*
X18249500Y-23102486D01*
X17500500Y-23102486D01*
X17500500Y-20624500D01*
X17520185Y-20557461D01*
X17572989Y-20511706D01*
X17624500Y-20500500D01*
X71375500Y-20500500D01*
X71442539Y-20520185D01*
G37*
%TD.AperFunction*%
%TD*%
M02*
