%TF.GenerationSoftware,KiCad,Pcbnew,9.0.0*%
%TF.CreationDate,2025-03-31T22:17:34-07:00*%
%TF.ProjectId,DustBin_PCB,44757374-4269-46e5-9f50-43422e6b6963,rev?*%
%TF.SameCoordinates,Original*%
%TF.FileFunction,Soldermask,Bot*%
%TF.FilePolarity,Negative*%
%FSLAX46Y46*%
G04 Gerber Fmt 4.6, Leading zero omitted, Abs format (unit mm)*
G04 Created by KiCad (PCBNEW 9.0.0) date 2025-03-31 22:17:34*
%MOMM*%
%LPD*%
G01*
G04 APERTURE LIST*
%ADD10O,1.500000X1.900000*%
%ADD11C,1.800000*%
%ADD12R,1.800000X1.800000*%
%ADD13O,1.600000X1.600000*%
%ADD14C,1.600000*%
%ADD15C,1.308000*%
%ADD16R,1.308000X1.308000*%
%ADD17R,1.700000X1.700000*%
%ADD18O,1.700000X1.700000*%
%ADD19C,1.524000*%
G04 APERTURE END LIST*
D10*
%TO.C,POT_SENSITIVITY1*%
X38000000Y-63500000D03*
X43000000Y-63500000D03*
X48000000Y-63500000D03*
%TD*%
D11*
%TO.C,GREEN_EMF1*%
X60000000Y-53500000D03*
D12*
X57460000Y-53500000D03*
%TD*%
D13*
%TO.C,R4*%
X39420000Y-31000000D03*
D14*
X49580000Y-31000000D03*
%TD*%
D10*
%TO.C,POT_RUN_T1*%
X52500000Y-63500000D03*
X57500000Y-63500000D03*
X62500000Y-63500000D03*
%TD*%
D14*
%TO.C,R1*%
X39420000Y-40500000D03*
D13*
X49580000Y-40500000D03*
%TD*%
D12*
%TO.C,RED_Power1*%
X66000000Y-53500000D03*
D11*
X68540000Y-53500000D03*
%TD*%
D15*
%TO.C,U2*%
X28770000Y-26983000D03*
X26230000Y-26983000D03*
X28770000Y-45017000D03*
X26230000Y-45017000D03*
X23690000Y-26983000D03*
X31310000Y-26983000D03*
X31310000Y-45017000D03*
X23690000Y-45017000D03*
X33850000Y-26983000D03*
X33850000Y-45017000D03*
X21150000Y-26983000D03*
X21150000Y-45017000D03*
D16*
X36390000Y-26983000D03*
D15*
X36390000Y-45017000D03*
X18610000Y-26983000D03*
X18610000Y-45017000D03*
%TD*%
D17*
%TO.C,SPK1*%
X27810000Y-22850000D03*
D18*
X30350000Y-22850000D03*
%TD*%
D17*
%TO.C,RELAY2*%
X21920000Y-51000000D03*
D18*
X24460000Y-51000000D03*
X27000000Y-51000000D03*
%TD*%
D17*
%TO.C,RELAY1*%
X21960000Y-57000000D03*
D18*
X24500000Y-57000000D03*
X27040000Y-57000000D03*
%TD*%
D14*
%TO.C,R5*%
X52500000Y-24000000D03*
D13*
X42340000Y-24000000D03*
%TD*%
D14*
%TO.C,R3*%
X49580000Y-35000000D03*
D13*
X39420000Y-35000000D03*
%TD*%
D14*
%TO.C,R2*%
X39420000Y-45000000D03*
D13*
X49580000Y-45000000D03*
%TD*%
D17*
%TO.C,Antenna1*%
X56801500Y-23620000D03*
%TD*%
D19*
%TO.C,U1*%
X69301500Y-30880000D03*
X66761500Y-30880000D03*
X64221500Y-30880000D03*
X61681500Y-30880000D03*
X59141500Y-30880000D03*
X56601500Y-30880000D03*
X54061500Y-30880000D03*
X54061500Y-46120000D03*
X56601500Y-46120000D03*
X59141500Y-46120000D03*
X61681500Y-46120000D03*
X64221500Y-46120000D03*
X66761500Y-46120000D03*
X69301500Y-46120000D03*
%TD*%
M02*
