M48
; DRILL file {KiCad 9.0.0} date 2025-03-31T22:17:31-0700
; FORMAT={-:-/ absolute / inch / decimal}
; #@! TF.CreationDate,2025-03-31T22:17:31-07:00
; #@! TF.GenerationSoftware,Kicad,Pcbnew,9.0.0
; #@! TF.FileFunction,Plated,1,2,PTH
FMAT,2
INCH
; #@! TA.AperFunction,Plated,PTH,ViaDrill
T1C0.0118
; #@! TA.AperFunction,Plated,PTH,ComponentDrill
T2C0.0315
; #@! TA.AperFunction,Plated,PTH,ComponentDrill
T3C0.0350
; #@! TA.AperFunction,Plated,PTH,ComponentDrill
T4C0.0354
; #@! TA.AperFunction,Plated,PTH,ComponentDrill
T5C0.0394
; #@! TA.AperFunction,Plated,PTH,ComponentDrill
T6C0.0472
%
G90
G05
T1
X1.0827Y-1.5157
T2
X0.7327Y-1.0623
X0.7327Y-1.7723
X0.8327Y-1.0623
X0.8327Y-1.7723
X0.9327Y-1.0623
X0.9327Y-1.7723
X1.0327Y-1.0623
X1.0327Y-1.7723
X1.1327Y-1.0623
X1.1327Y-1.7723
X1.2327Y-1.0623
X1.2327Y-1.7723
X1.3327Y-1.0623
X1.3327Y-1.7723
X1.4327Y-1.0623
X1.4327Y-1.7723
X1.552Y-1.2205
X1.552Y-1.378
X1.552Y-1.5945
X1.552Y-1.7717
X1.6669Y-0.9449
X1.952Y-1.2205
X1.952Y-1.378
X1.952Y-1.5945
X1.952Y-1.7717
X2.0669Y-0.9449
T3
X2.1284Y-1.2157
X2.1284Y-1.8157
X2.2284Y-1.2157
X2.2284Y-1.8157
X2.3284Y-1.2157
X2.3284Y-1.8157
X2.4284Y-1.2157
X2.4284Y-1.8157
X2.5284Y-1.2157
X2.5284Y-1.8157
X2.6284Y-1.2157
X2.6284Y-1.8157
X2.7284Y-1.2157
X2.7284Y-1.8157
T4
X2.2622Y-2.1063
X2.3622Y-2.1063
X2.5984Y-2.1063
X2.6984Y-2.1063
T5
X0.863Y-2.0079
X0.8646Y-2.2441
X0.963Y-2.0079
X0.9646Y-2.2441
X1.063Y-2.0079
X1.0646Y-2.2441
X1.0949Y-0.8996
X1.1949Y-0.8996
X2.2363Y-0.9299
T6
X1.4961Y-2.5
X1.6929Y-2.5
X1.8898Y-2.5
X2.0669Y-2.5
X2.2638Y-2.5
X2.4606Y-2.5
M30
