%TF.GenerationSoftware,KiCad,Pcbnew,9.0.0*%
%TF.CreationDate,2025-03-31T22:17:34-07:00*%
%TF.ProjectId,DustBin_PCB,44757374-4269-46e5-9f50-43422e6b6963,rev?*%
%TF.SameCoordinates,Original*%
%TF.FileFunction,Legend,Top*%
%TF.FilePolarity,Positive*%
%FSLAX46Y46*%
G04 Gerber Fmt 4.6, Leading zero omitted, Abs format (unit mm)*
G04 Created by KiCad (PCBNEW 9.0.0) date 2025-03-31 22:17:34*
%MOMM*%
%LPD*%
G01*
G04 APERTURE LIST*
%ADD10C,0.200000*%
%ADD11C,0.150000*%
%ADD12C,0.120000*%
%ADD13C,0.127000*%
%ADD14C,0.100000*%
%ADD15C,0.504000*%
G04 APERTURE END LIST*
D10*
X31369673Y-52147331D02*
X31369673Y-51147331D01*
X31369673Y-51147331D02*
X31941101Y-52147331D01*
X31941101Y-52147331D02*
X31941101Y-51147331D01*
X32988720Y-52052092D02*
X32941101Y-52099712D01*
X32941101Y-52099712D02*
X32798244Y-52147331D01*
X32798244Y-52147331D02*
X32703006Y-52147331D01*
X32703006Y-52147331D02*
X32560149Y-52099712D01*
X32560149Y-52099712D02*
X32464911Y-52004473D01*
X32464911Y-52004473D02*
X32417292Y-51909235D01*
X32417292Y-51909235D02*
X32369673Y-51718759D01*
X32369673Y-51718759D02*
X32369673Y-51575902D01*
X32369673Y-51575902D02*
X32417292Y-51385426D01*
X32417292Y-51385426D02*
X32464911Y-51290188D01*
X32464911Y-51290188D02*
X32560149Y-51194950D01*
X32560149Y-51194950D02*
X32703006Y-51147331D01*
X32703006Y-51147331D02*
X32798244Y-51147331D01*
X32798244Y-51147331D02*
X32941101Y-51194950D01*
X32941101Y-51194950D02*
X32988720Y-51242569D01*
X33274435Y-51147331D02*
X33607768Y-52147331D01*
X33607768Y-52147331D02*
X33941101Y-51147331D01*
X34274435Y-51766378D02*
X35036340Y-51766378D01*
X35464911Y-52099712D02*
X35607768Y-52147331D01*
X35607768Y-52147331D02*
X35845863Y-52147331D01*
X35845863Y-52147331D02*
X35941101Y-52099712D01*
X35941101Y-52099712D02*
X35988720Y-52052092D01*
X35988720Y-52052092D02*
X36036339Y-51956854D01*
X36036339Y-51956854D02*
X36036339Y-51861616D01*
X36036339Y-51861616D02*
X35988720Y-51766378D01*
X35988720Y-51766378D02*
X35941101Y-51718759D01*
X35941101Y-51718759D02*
X35845863Y-51671140D01*
X35845863Y-51671140D02*
X35655387Y-51623521D01*
X35655387Y-51623521D02*
X35560149Y-51575902D01*
X35560149Y-51575902D02*
X35512530Y-51528283D01*
X35512530Y-51528283D02*
X35464911Y-51433045D01*
X35464911Y-51433045D02*
X35464911Y-51337807D01*
X35464911Y-51337807D02*
X35512530Y-51242569D01*
X35512530Y-51242569D02*
X35560149Y-51194950D01*
X35560149Y-51194950D02*
X35655387Y-51147331D01*
X35655387Y-51147331D02*
X35893482Y-51147331D01*
X35893482Y-51147331D02*
X36036339Y-51194950D01*
X36464911Y-52147331D02*
X36464911Y-51147331D01*
X36893482Y-52147331D02*
X36893482Y-51623521D01*
X36893482Y-51623521D02*
X36845863Y-51528283D01*
X36845863Y-51528283D02*
X36750625Y-51480664D01*
X36750625Y-51480664D02*
X36607768Y-51480664D01*
X36607768Y-51480664D02*
X36512530Y-51528283D01*
X36512530Y-51528283D02*
X36464911Y-51575902D01*
X37798244Y-52147331D02*
X37798244Y-51623521D01*
X37798244Y-51623521D02*
X37750625Y-51528283D01*
X37750625Y-51528283D02*
X37655387Y-51480664D01*
X37655387Y-51480664D02*
X37464911Y-51480664D01*
X37464911Y-51480664D02*
X37369673Y-51528283D01*
X37798244Y-52099712D02*
X37703006Y-52147331D01*
X37703006Y-52147331D02*
X37464911Y-52147331D01*
X37464911Y-52147331D02*
X37369673Y-52099712D01*
X37369673Y-52099712D02*
X37322054Y-52004473D01*
X37322054Y-52004473D02*
X37322054Y-51909235D01*
X37322054Y-51909235D02*
X37369673Y-51813997D01*
X37369673Y-51813997D02*
X37464911Y-51766378D01*
X37464911Y-51766378D02*
X37703006Y-51766378D01*
X37703006Y-51766378D02*
X37798244Y-51718759D01*
X38274435Y-52147331D02*
X38274435Y-51147331D01*
X38369673Y-51766378D02*
X38655387Y-52147331D01*
X38655387Y-51480664D02*
X38274435Y-51861616D01*
X39464911Y-52099712D02*
X39369673Y-52147331D01*
X39369673Y-52147331D02*
X39179197Y-52147331D01*
X39179197Y-52147331D02*
X39083959Y-52099712D01*
X39083959Y-52099712D02*
X39036340Y-52004473D01*
X39036340Y-52004473D02*
X39036340Y-51623521D01*
X39036340Y-51623521D02*
X39083959Y-51528283D01*
X39083959Y-51528283D02*
X39179197Y-51480664D01*
X39179197Y-51480664D02*
X39369673Y-51480664D01*
X39369673Y-51480664D02*
X39464911Y-51528283D01*
X39464911Y-51528283D02*
X39512530Y-51623521D01*
X39512530Y-51623521D02*
X39512530Y-51718759D01*
X39512530Y-51718759D02*
X39036340Y-51813997D01*
X39941102Y-52147331D02*
X39941102Y-51147331D01*
X40274435Y-51480664D02*
X40655387Y-51480664D01*
X40417292Y-51147331D02*
X40417292Y-52004473D01*
X40417292Y-52004473D02*
X40464911Y-52099712D01*
X40464911Y-52099712D02*
X40560149Y-52147331D01*
X40560149Y-52147331D02*
X40655387Y-52147331D01*
X31369673Y-53757275D02*
X31369673Y-52757275D01*
X31369673Y-53138227D02*
X31464911Y-53090608D01*
X31464911Y-53090608D02*
X31655387Y-53090608D01*
X31655387Y-53090608D02*
X31750625Y-53138227D01*
X31750625Y-53138227D02*
X31798244Y-53185846D01*
X31798244Y-53185846D02*
X31845863Y-53281084D01*
X31845863Y-53281084D02*
X31845863Y-53566798D01*
X31845863Y-53566798D02*
X31798244Y-53662036D01*
X31798244Y-53662036D02*
X31750625Y-53709656D01*
X31750625Y-53709656D02*
X31655387Y-53757275D01*
X31655387Y-53757275D02*
X31464911Y-53757275D01*
X31464911Y-53757275D02*
X31369673Y-53709656D01*
X32179197Y-53090608D02*
X32417292Y-53757275D01*
X32655387Y-53090608D02*
X32417292Y-53757275D01*
X32417292Y-53757275D02*
X32322054Y-53995370D01*
X32322054Y-53995370D02*
X32274435Y-54042989D01*
X32274435Y-54042989D02*
X32179197Y-54090608D01*
X34083959Y-52757275D02*
X34083959Y-53471560D01*
X34083959Y-53471560D02*
X34036340Y-53614417D01*
X34036340Y-53614417D02*
X33941102Y-53709656D01*
X33941102Y-53709656D02*
X33798245Y-53757275D01*
X33798245Y-53757275D02*
X33703007Y-53757275D01*
X34703007Y-53757275D02*
X34607769Y-53709656D01*
X34607769Y-53709656D02*
X34560150Y-53662036D01*
X34560150Y-53662036D02*
X34512531Y-53566798D01*
X34512531Y-53566798D02*
X34512531Y-53281084D01*
X34512531Y-53281084D02*
X34560150Y-53185846D01*
X34560150Y-53185846D02*
X34607769Y-53138227D01*
X34607769Y-53138227D02*
X34703007Y-53090608D01*
X34703007Y-53090608D02*
X34845864Y-53090608D01*
X34845864Y-53090608D02*
X34941102Y-53138227D01*
X34941102Y-53138227D02*
X34988721Y-53185846D01*
X34988721Y-53185846D02*
X35036340Y-53281084D01*
X35036340Y-53281084D02*
X35036340Y-53566798D01*
X35036340Y-53566798D02*
X34988721Y-53662036D01*
X34988721Y-53662036D02*
X34941102Y-53709656D01*
X34941102Y-53709656D02*
X34845864Y-53757275D01*
X34845864Y-53757275D02*
X34703007Y-53757275D01*
X35464912Y-53090608D02*
X35464912Y-53757275D01*
X35464912Y-53185846D02*
X35512531Y-53138227D01*
X35512531Y-53138227D02*
X35607769Y-53090608D01*
X35607769Y-53090608D02*
X35750626Y-53090608D01*
X35750626Y-53090608D02*
X35845864Y-53138227D01*
X35845864Y-53138227D02*
X35893483Y-53233465D01*
X35893483Y-53233465D02*
X35893483Y-53757275D01*
X37655388Y-52804894D02*
X37560150Y-52757275D01*
X37560150Y-52757275D02*
X37417293Y-52757275D01*
X37417293Y-52757275D02*
X37274436Y-52804894D01*
X37274436Y-52804894D02*
X37179198Y-52900132D01*
X37179198Y-52900132D02*
X37131579Y-52995370D01*
X37131579Y-52995370D02*
X37083960Y-53185846D01*
X37083960Y-53185846D02*
X37083960Y-53328703D01*
X37083960Y-53328703D02*
X37131579Y-53519179D01*
X37131579Y-53519179D02*
X37179198Y-53614417D01*
X37179198Y-53614417D02*
X37274436Y-53709656D01*
X37274436Y-53709656D02*
X37417293Y-53757275D01*
X37417293Y-53757275D02*
X37512531Y-53757275D01*
X37512531Y-53757275D02*
X37655388Y-53709656D01*
X37655388Y-53709656D02*
X37703007Y-53662036D01*
X37703007Y-53662036D02*
X37703007Y-53328703D01*
X37703007Y-53328703D02*
X37512531Y-53328703D01*
X38560150Y-53757275D02*
X38560150Y-53233465D01*
X38560150Y-53233465D02*
X38512531Y-53138227D01*
X38512531Y-53138227D02*
X38417293Y-53090608D01*
X38417293Y-53090608D02*
X38226817Y-53090608D01*
X38226817Y-53090608D02*
X38131579Y-53138227D01*
X38560150Y-53709656D02*
X38464912Y-53757275D01*
X38464912Y-53757275D02*
X38226817Y-53757275D01*
X38226817Y-53757275D02*
X38131579Y-53709656D01*
X38131579Y-53709656D02*
X38083960Y-53614417D01*
X38083960Y-53614417D02*
X38083960Y-53519179D01*
X38083960Y-53519179D02*
X38131579Y-53423941D01*
X38131579Y-53423941D02*
X38226817Y-53376322D01*
X38226817Y-53376322D02*
X38464912Y-53376322D01*
X38464912Y-53376322D02*
X38560150Y-53328703D01*
X39036341Y-53757275D02*
X39036341Y-53090608D01*
X39036341Y-53281084D02*
X39083960Y-53185846D01*
X39083960Y-53185846D02*
X39131579Y-53138227D01*
X39131579Y-53138227D02*
X39226817Y-53090608D01*
X39226817Y-53090608D02*
X39322055Y-53090608D01*
X39655389Y-53757275D02*
X39655389Y-53090608D01*
X39655389Y-53281084D02*
X39703008Y-53185846D01*
X39703008Y-53185846D02*
X39750627Y-53138227D01*
X39750627Y-53138227D02*
X39845865Y-53090608D01*
X39845865Y-53090608D02*
X39941103Y-53090608D01*
X40274437Y-53757275D02*
X40274437Y-53090608D01*
X40274437Y-52757275D02*
X40226818Y-52804894D01*
X40226818Y-52804894D02*
X40274437Y-52852513D01*
X40274437Y-52852513D02*
X40322056Y-52804894D01*
X40322056Y-52804894D02*
X40274437Y-52757275D01*
X40274437Y-52757275D02*
X40274437Y-52852513D01*
X40703008Y-53709656D02*
X40798246Y-53757275D01*
X40798246Y-53757275D02*
X40988722Y-53757275D01*
X40988722Y-53757275D02*
X41083960Y-53709656D01*
X41083960Y-53709656D02*
X41131579Y-53614417D01*
X41131579Y-53614417D02*
X41131579Y-53566798D01*
X41131579Y-53566798D02*
X41083960Y-53471560D01*
X41083960Y-53471560D02*
X40988722Y-53423941D01*
X40988722Y-53423941D02*
X40845865Y-53423941D01*
X40845865Y-53423941D02*
X40750627Y-53376322D01*
X40750627Y-53376322D02*
X40703008Y-53281084D01*
X40703008Y-53281084D02*
X40703008Y-53233465D01*
X40703008Y-53233465D02*
X40750627Y-53138227D01*
X40750627Y-53138227D02*
X40845865Y-53090608D01*
X40845865Y-53090608D02*
X40988722Y-53090608D01*
X40988722Y-53090608D02*
X41083960Y-53138227D01*
X41703008Y-53757275D02*
X41607770Y-53709656D01*
X41607770Y-53709656D02*
X41560151Y-53662036D01*
X41560151Y-53662036D02*
X41512532Y-53566798D01*
X41512532Y-53566798D02*
X41512532Y-53281084D01*
X41512532Y-53281084D02*
X41560151Y-53185846D01*
X41560151Y-53185846D02*
X41607770Y-53138227D01*
X41607770Y-53138227D02*
X41703008Y-53090608D01*
X41703008Y-53090608D02*
X41845865Y-53090608D01*
X41845865Y-53090608D02*
X41941103Y-53138227D01*
X41941103Y-53138227D02*
X41988722Y-53185846D01*
X41988722Y-53185846D02*
X42036341Y-53281084D01*
X42036341Y-53281084D02*
X42036341Y-53566798D01*
X42036341Y-53566798D02*
X41988722Y-53662036D01*
X41988722Y-53662036D02*
X41941103Y-53709656D01*
X41941103Y-53709656D02*
X41845865Y-53757275D01*
X41845865Y-53757275D02*
X41703008Y-53757275D01*
X42464913Y-53090608D02*
X42464913Y-53757275D01*
X42464913Y-53185846D02*
X42512532Y-53138227D01*
X42512532Y-53138227D02*
X42607770Y-53090608D01*
X42607770Y-53090608D02*
X42750627Y-53090608D01*
X42750627Y-53090608D02*
X42845865Y-53138227D01*
X42845865Y-53138227D02*
X42893484Y-53233465D01*
X42893484Y-53233465D02*
X42893484Y-53757275D01*
X31369673Y-54700552D02*
X31369673Y-55557695D01*
X31369673Y-55557695D02*
X31322054Y-55652933D01*
X31322054Y-55652933D02*
X31226816Y-55700552D01*
X31226816Y-55700552D02*
X31179197Y-55700552D01*
X31369673Y-54367219D02*
X31322054Y-54414838D01*
X31322054Y-54414838D02*
X31369673Y-54462457D01*
X31369673Y-54462457D02*
X31417292Y-54414838D01*
X31417292Y-54414838D02*
X31369673Y-54367219D01*
X31369673Y-54367219D02*
X31369673Y-54462457D01*
X31988720Y-55367219D02*
X31893482Y-55319600D01*
X31893482Y-55319600D02*
X31845863Y-55271980D01*
X31845863Y-55271980D02*
X31798244Y-55176742D01*
X31798244Y-55176742D02*
X31798244Y-54891028D01*
X31798244Y-54891028D02*
X31845863Y-54795790D01*
X31845863Y-54795790D02*
X31893482Y-54748171D01*
X31893482Y-54748171D02*
X31988720Y-54700552D01*
X31988720Y-54700552D02*
X32131577Y-54700552D01*
X32131577Y-54700552D02*
X32226815Y-54748171D01*
X32226815Y-54748171D02*
X32274434Y-54795790D01*
X32274434Y-54795790D02*
X32322053Y-54891028D01*
X32322053Y-54891028D02*
X32322053Y-55176742D01*
X32322053Y-55176742D02*
X32274434Y-55271980D01*
X32274434Y-55271980D02*
X32226815Y-55319600D01*
X32226815Y-55319600D02*
X32131577Y-55367219D01*
X32131577Y-55367219D02*
X31988720Y-55367219D01*
X32750625Y-54700552D02*
X32750625Y-55367219D01*
X32750625Y-54795790D02*
X32798244Y-54748171D01*
X32798244Y-54748171D02*
X32893482Y-54700552D01*
X32893482Y-54700552D02*
X33036339Y-54700552D01*
X33036339Y-54700552D02*
X33131577Y-54748171D01*
X33131577Y-54748171D02*
X33179196Y-54843409D01*
X33179196Y-54843409D02*
X33179196Y-55367219D01*
X34083958Y-54700552D02*
X34083958Y-55510076D01*
X34083958Y-55510076D02*
X34036339Y-55605314D01*
X34036339Y-55605314D02*
X33988720Y-55652933D01*
X33988720Y-55652933D02*
X33893482Y-55700552D01*
X33893482Y-55700552D02*
X33750625Y-55700552D01*
X33750625Y-55700552D02*
X33655387Y-55652933D01*
X34083958Y-55319600D02*
X33988720Y-55367219D01*
X33988720Y-55367219D02*
X33798244Y-55367219D01*
X33798244Y-55367219D02*
X33703006Y-55319600D01*
X33703006Y-55319600D02*
X33655387Y-55271980D01*
X33655387Y-55271980D02*
X33607768Y-55176742D01*
X33607768Y-55176742D02*
X33607768Y-54891028D01*
X33607768Y-54891028D02*
X33655387Y-54795790D01*
X33655387Y-54795790D02*
X33703006Y-54748171D01*
X33703006Y-54748171D02*
X33798244Y-54700552D01*
X33798244Y-54700552D02*
X33988720Y-54700552D01*
X33988720Y-54700552D02*
X34083958Y-54748171D01*
X34988720Y-55367219D02*
X34988720Y-54843409D01*
X34988720Y-54843409D02*
X34941101Y-54748171D01*
X34941101Y-54748171D02*
X34845863Y-54700552D01*
X34845863Y-54700552D02*
X34655387Y-54700552D01*
X34655387Y-54700552D02*
X34560149Y-54748171D01*
X34988720Y-55319600D02*
X34893482Y-55367219D01*
X34893482Y-55367219D02*
X34655387Y-55367219D01*
X34655387Y-55367219D02*
X34560149Y-55319600D01*
X34560149Y-55319600D02*
X34512530Y-55224361D01*
X34512530Y-55224361D02*
X34512530Y-55129123D01*
X34512530Y-55129123D02*
X34560149Y-55033885D01*
X34560149Y-55033885D02*
X34655387Y-54986266D01*
X34655387Y-54986266D02*
X34893482Y-54986266D01*
X34893482Y-54986266D02*
X34988720Y-54938647D01*
X35464911Y-55367219D02*
X35464911Y-54700552D01*
X35464911Y-54891028D02*
X35512530Y-54795790D01*
X35512530Y-54795790D02*
X35560149Y-54748171D01*
X35560149Y-54748171D02*
X35655387Y-54700552D01*
X35655387Y-54700552D02*
X35750625Y-54700552D01*
X36083959Y-55367219D02*
X36083959Y-54700552D01*
X36083959Y-54891028D02*
X36131578Y-54795790D01*
X36131578Y-54795790D02*
X36179197Y-54748171D01*
X36179197Y-54748171D02*
X36274435Y-54700552D01*
X36274435Y-54700552D02*
X36369673Y-54700552D01*
X36703007Y-55367219D02*
X36703007Y-54700552D01*
X36703007Y-54367219D02*
X36655388Y-54414838D01*
X36655388Y-54414838D02*
X36703007Y-54462457D01*
X36703007Y-54462457D02*
X36750626Y-54414838D01*
X36750626Y-54414838D02*
X36703007Y-54367219D01*
X36703007Y-54367219D02*
X36703007Y-54462457D01*
X37131578Y-55319600D02*
X37226816Y-55367219D01*
X37226816Y-55367219D02*
X37417292Y-55367219D01*
X37417292Y-55367219D02*
X37512530Y-55319600D01*
X37512530Y-55319600D02*
X37560149Y-55224361D01*
X37560149Y-55224361D02*
X37560149Y-55176742D01*
X37560149Y-55176742D02*
X37512530Y-55081504D01*
X37512530Y-55081504D02*
X37417292Y-55033885D01*
X37417292Y-55033885D02*
X37274435Y-55033885D01*
X37274435Y-55033885D02*
X37179197Y-54986266D01*
X37179197Y-54986266D02*
X37131578Y-54891028D01*
X37131578Y-54891028D02*
X37131578Y-54843409D01*
X37131578Y-54843409D02*
X37179197Y-54748171D01*
X37179197Y-54748171D02*
X37274435Y-54700552D01*
X37274435Y-54700552D02*
X37417292Y-54700552D01*
X37417292Y-54700552D02*
X37512530Y-54748171D01*
X38131578Y-55367219D02*
X38036340Y-55319600D01*
X38036340Y-55319600D02*
X37988721Y-55271980D01*
X37988721Y-55271980D02*
X37941102Y-55176742D01*
X37941102Y-55176742D02*
X37941102Y-54891028D01*
X37941102Y-54891028D02*
X37988721Y-54795790D01*
X37988721Y-54795790D02*
X38036340Y-54748171D01*
X38036340Y-54748171D02*
X38131578Y-54700552D01*
X38131578Y-54700552D02*
X38274435Y-54700552D01*
X38274435Y-54700552D02*
X38369673Y-54748171D01*
X38369673Y-54748171D02*
X38417292Y-54795790D01*
X38417292Y-54795790D02*
X38464911Y-54891028D01*
X38464911Y-54891028D02*
X38464911Y-55176742D01*
X38464911Y-55176742D02*
X38417292Y-55271980D01*
X38417292Y-55271980D02*
X38369673Y-55319600D01*
X38369673Y-55319600D02*
X38274435Y-55367219D01*
X38274435Y-55367219D02*
X38131578Y-55367219D01*
X38893483Y-54700552D02*
X38893483Y-55367219D01*
X38893483Y-54795790D02*
X38941102Y-54748171D01*
X38941102Y-54748171D02*
X39036340Y-54700552D01*
X39036340Y-54700552D02*
X39179197Y-54700552D01*
X39179197Y-54700552D02*
X39274435Y-54748171D01*
X39274435Y-54748171D02*
X39322054Y-54843409D01*
X39322054Y-54843409D02*
X39322054Y-55367219D01*
X39798245Y-55271980D02*
X39845864Y-55319600D01*
X39845864Y-55319600D02*
X39798245Y-55367219D01*
X39798245Y-55367219D02*
X39750626Y-55319600D01*
X39750626Y-55319600D02*
X39798245Y-55271980D01*
X39798245Y-55271980D02*
X39798245Y-55367219D01*
X40703006Y-54700552D02*
X40703006Y-55510076D01*
X40703006Y-55510076D02*
X40655387Y-55605314D01*
X40655387Y-55605314D02*
X40607768Y-55652933D01*
X40607768Y-55652933D02*
X40512530Y-55700552D01*
X40512530Y-55700552D02*
X40369673Y-55700552D01*
X40369673Y-55700552D02*
X40274435Y-55652933D01*
X40703006Y-55319600D02*
X40607768Y-55367219D01*
X40607768Y-55367219D02*
X40417292Y-55367219D01*
X40417292Y-55367219D02*
X40322054Y-55319600D01*
X40322054Y-55319600D02*
X40274435Y-55271980D01*
X40274435Y-55271980D02*
X40226816Y-55176742D01*
X40226816Y-55176742D02*
X40226816Y-54891028D01*
X40226816Y-54891028D02*
X40274435Y-54795790D01*
X40274435Y-54795790D02*
X40322054Y-54748171D01*
X40322054Y-54748171D02*
X40417292Y-54700552D01*
X40417292Y-54700552D02*
X40607768Y-54700552D01*
X40607768Y-54700552D02*
X40703006Y-54748171D01*
X41179197Y-55367219D02*
X41179197Y-54700552D01*
X41179197Y-54367219D02*
X41131578Y-54414838D01*
X41131578Y-54414838D02*
X41179197Y-54462457D01*
X41179197Y-54462457D02*
X41226816Y-54414838D01*
X41226816Y-54414838D02*
X41179197Y-54367219D01*
X41179197Y-54367219D02*
X41179197Y-54462457D01*
X41512530Y-54700552D02*
X41893482Y-54700552D01*
X41655387Y-54367219D02*
X41655387Y-55224361D01*
X41655387Y-55224361D02*
X41703006Y-55319600D01*
X41703006Y-55319600D02*
X41798244Y-55367219D01*
X41798244Y-55367219D02*
X41893482Y-55367219D01*
X42226816Y-55367219D02*
X42226816Y-54367219D01*
X42655387Y-55367219D02*
X42655387Y-54843409D01*
X42655387Y-54843409D02*
X42607768Y-54748171D01*
X42607768Y-54748171D02*
X42512530Y-54700552D01*
X42512530Y-54700552D02*
X42369673Y-54700552D01*
X42369673Y-54700552D02*
X42274435Y-54748171D01*
X42274435Y-54748171D02*
X42226816Y-54795790D01*
X43560149Y-54700552D02*
X43560149Y-55367219D01*
X43131578Y-54700552D02*
X43131578Y-55224361D01*
X43131578Y-55224361D02*
X43179197Y-55319600D01*
X43179197Y-55319600D02*
X43274435Y-55367219D01*
X43274435Y-55367219D02*
X43417292Y-55367219D01*
X43417292Y-55367219D02*
X43512530Y-55319600D01*
X43512530Y-55319600D02*
X43560149Y-55271980D01*
X44036340Y-55367219D02*
X44036340Y-54367219D01*
X44036340Y-54748171D02*
X44131578Y-54700552D01*
X44131578Y-54700552D02*
X44322054Y-54700552D01*
X44322054Y-54700552D02*
X44417292Y-54748171D01*
X44417292Y-54748171D02*
X44464911Y-54795790D01*
X44464911Y-54795790D02*
X44512530Y-54891028D01*
X44512530Y-54891028D02*
X44512530Y-55176742D01*
X44512530Y-55176742D02*
X44464911Y-55271980D01*
X44464911Y-55271980D02*
X44417292Y-55319600D01*
X44417292Y-55319600D02*
X44322054Y-55367219D01*
X44322054Y-55367219D02*
X44131578Y-55367219D01*
X44131578Y-55367219D02*
X44036340Y-55319600D01*
X44941102Y-55271980D02*
X44988721Y-55319600D01*
X44988721Y-55319600D02*
X44941102Y-55367219D01*
X44941102Y-55367219D02*
X44893483Y-55319600D01*
X44893483Y-55319600D02*
X44941102Y-55271980D01*
X44941102Y-55271980D02*
X44941102Y-55367219D01*
X45417292Y-55367219D02*
X45417292Y-54700552D01*
X45417292Y-54367219D02*
X45369673Y-54414838D01*
X45369673Y-54414838D02*
X45417292Y-54462457D01*
X45417292Y-54462457D02*
X45464911Y-54414838D01*
X45464911Y-54414838D02*
X45417292Y-54367219D01*
X45417292Y-54367219D02*
X45417292Y-54462457D01*
X46036339Y-55367219D02*
X45941101Y-55319600D01*
X45941101Y-55319600D02*
X45893482Y-55271980D01*
X45893482Y-55271980D02*
X45845863Y-55176742D01*
X45845863Y-55176742D02*
X45845863Y-54891028D01*
X45845863Y-54891028D02*
X45893482Y-54795790D01*
X45893482Y-54795790D02*
X45941101Y-54748171D01*
X45941101Y-54748171D02*
X46036339Y-54700552D01*
X46036339Y-54700552D02*
X46179196Y-54700552D01*
X46179196Y-54700552D02*
X46274434Y-54748171D01*
X46274434Y-54748171D02*
X46322053Y-54795790D01*
X46322053Y-54795790D02*
X46369672Y-54891028D01*
X46369672Y-54891028D02*
X46369672Y-55176742D01*
X46369672Y-55176742D02*
X46322053Y-55271980D01*
X46322053Y-55271980D02*
X46274434Y-55319600D01*
X46274434Y-55319600D02*
X46179196Y-55367219D01*
X46179196Y-55367219D02*
X46036339Y-55367219D01*
D11*
X36714286Y-61454819D02*
X36714286Y-60454819D01*
X36714286Y-60454819D02*
X37095238Y-60454819D01*
X37095238Y-60454819D02*
X37190476Y-60502438D01*
X37190476Y-60502438D02*
X37238095Y-60550057D01*
X37238095Y-60550057D02*
X37285714Y-60645295D01*
X37285714Y-60645295D02*
X37285714Y-60788152D01*
X37285714Y-60788152D02*
X37238095Y-60883390D01*
X37238095Y-60883390D02*
X37190476Y-60931009D01*
X37190476Y-60931009D02*
X37095238Y-60978628D01*
X37095238Y-60978628D02*
X36714286Y-60978628D01*
X37904762Y-60454819D02*
X38095238Y-60454819D01*
X38095238Y-60454819D02*
X38190476Y-60502438D01*
X38190476Y-60502438D02*
X38285714Y-60597676D01*
X38285714Y-60597676D02*
X38333333Y-60788152D01*
X38333333Y-60788152D02*
X38333333Y-61121485D01*
X38333333Y-61121485D02*
X38285714Y-61311961D01*
X38285714Y-61311961D02*
X38190476Y-61407200D01*
X38190476Y-61407200D02*
X38095238Y-61454819D01*
X38095238Y-61454819D02*
X37904762Y-61454819D01*
X37904762Y-61454819D02*
X37809524Y-61407200D01*
X37809524Y-61407200D02*
X37714286Y-61311961D01*
X37714286Y-61311961D02*
X37666667Y-61121485D01*
X37666667Y-61121485D02*
X37666667Y-60788152D01*
X37666667Y-60788152D02*
X37714286Y-60597676D01*
X37714286Y-60597676D02*
X37809524Y-60502438D01*
X37809524Y-60502438D02*
X37904762Y-60454819D01*
X38619048Y-60454819D02*
X39190476Y-60454819D01*
X38904762Y-61454819D02*
X38904762Y-60454819D01*
X39285715Y-61550057D02*
X40047619Y-61550057D01*
X40238096Y-61407200D02*
X40380953Y-61454819D01*
X40380953Y-61454819D02*
X40619048Y-61454819D01*
X40619048Y-61454819D02*
X40714286Y-61407200D01*
X40714286Y-61407200D02*
X40761905Y-61359580D01*
X40761905Y-61359580D02*
X40809524Y-61264342D01*
X40809524Y-61264342D02*
X40809524Y-61169104D01*
X40809524Y-61169104D02*
X40761905Y-61073866D01*
X40761905Y-61073866D02*
X40714286Y-61026247D01*
X40714286Y-61026247D02*
X40619048Y-60978628D01*
X40619048Y-60978628D02*
X40428572Y-60931009D01*
X40428572Y-60931009D02*
X40333334Y-60883390D01*
X40333334Y-60883390D02*
X40285715Y-60835771D01*
X40285715Y-60835771D02*
X40238096Y-60740533D01*
X40238096Y-60740533D02*
X40238096Y-60645295D01*
X40238096Y-60645295D02*
X40285715Y-60550057D01*
X40285715Y-60550057D02*
X40333334Y-60502438D01*
X40333334Y-60502438D02*
X40428572Y-60454819D01*
X40428572Y-60454819D02*
X40666667Y-60454819D01*
X40666667Y-60454819D02*
X40809524Y-60502438D01*
X41238096Y-60931009D02*
X41571429Y-60931009D01*
X41714286Y-61454819D02*
X41238096Y-61454819D01*
X41238096Y-61454819D02*
X41238096Y-60454819D01*
X41238096Y-60454819D02*
X41714286Y-60454819D01*
X42142858Y-61454819D02*
X42142858Y-60454819D01*
X42142858Y-60454819D02*
X42714286Y-61454819D01*
X42714286Y-61454819D02*
X42714286Y-60454819D01*
X43142858Y-61407200D02*
X43285715Y-61454819D01*
X43285715Y-61454819D02*
X43523810Y-61454819D01*
X43523810Y-61454819D02*
X43619048Y-61407200D01*
X43619048Y-61407200D02*
X43666667Y-61359580D01*
X43666667Y-61359580D02*
X43714286Y-61264342D01*
X43714286Y-61264342D02*
X43714286Y-61169104D01*
X43714286Y-61169104D02*
X43666667Y-61073866D01*
X43666667Y-61073866D02*
X43619048Y-61026247D01*
X43619048Y-61026247D02*
X43523810Y-60978628D01*
X43523810Y-60978628D02*
X43333334Y-60931009D01*
X43333334Y-60931009D02*
X43238096Y-60883390D01*
X43238096Y-60883390D02*
X43190477Y-60835771D01*
X43190477Y-60835771D02*
X43142858Y-60740533D01*
X43142858Y-60740533D02*
X43142858Y-60645295D01*
X43142858Y-60645295D02*
X43190477Y-60550057D01*
X43190477Y-60550057D02*
X43238096Y-60502438D01*
X43238096Y-60502438D02*
X43333334Y-60454819D01*
X43333334Y-60454819D02*
X43571429Y-60454819D01*
X43571429Y-60454819D02*
X43714286Y-60502438D01*
X44142858Y-61454819D02*
X44142858Y-60454819D01*
X44476191Y-60454819D02*
X45047619Y-60454819D01*
X44761905Y-61454819D02*
X44761905Y-60454819D01*
X45380953Y-61454819D02*
X45380953Y-60454819D01*
X45714286Y-60454819D02*
X46047619Y-61454819D01*
X46047619Y-61454819D02*
X46380952Y-60454819D01*
X46714286Y-61454819D02*
X46714286Y-60454819D01*
X47047619Y-60454819D02*
X47619047Y-60454819D01*
X47333333Y-61454819D02*
X47333333Y-60454819D01*
X48142857Y-60978628D02*
X48142857Y-61454819D01*
X47809524Y-60454819D02*
X48142857Y-60978628D01*
X48142857Y-60978628D02*
X48476190Y-60454819D01*
X49333333Y-61454819D02*
X48761905Y-61454819D01*
X49047619Y-61454819D02*
X49047619Y-60454819D01*
X49047619Y-60454819D02*
X48952381Y-60597676D01*
X48952381Y-60597676D02*
X48857143Y-60692914D01*
X48857143Y-60692914D02*
X48761905Y-60740533D01*
X53023809Y-57002438D02*
X52928571Y-56954819D01*
X52928571Y-56954819D02*
X52785714Y-56954819D01*
X52785714Y-56954819D02*
X52642857Y-57002438D01*
X52642857Y-57002438D02*
X52547619Y-57097676D01*
X52547619Y-57097676D02*
X52500000Y-57192914D01*
X52500000Y-57192914D02*
X52452381Y-57383390D01*
X52452381Y-57383390D02*
X52452381Y-57526247D01*
X52452381Y-57526247D02*
X52500000Y-57716723D01*
X52500000Y-57716723D02*
X52547619Y-57811961D01*
X52547619Y-57811961D02*
X52642857Y-57907200D01*
X52642857Y-57907200D02*
X52785714Y-57954819D01*
X52785714Y-57954819D02*
X52880952Y-57954819D01*
X52880952Y-57954819D02*
X53023809Y-57907200D01*
X53023809Y-57907200D02*
X53071428Y-57859580D01*
X53071428Y-57859580D02*
X53071428Y-57526247D01*
X53071428Y-57526247D02*
X52880952Y-57526247D01*
X54071428Y-57954819D02*
X53738095Y-57478628D01*
X53500000Y-57954819D02*
X53500000Y-56954819D01*
X53500000Y-56954819D02*
X53880952Y-56954819D01*
X53880952Y-56954819D02*
X53976190Y-57002438D01*
X53976190Y-57002438D02*
X54023809Y-57050057D01*
X54023809Y-57050057D02*
X54071428Y-57145295D01*
X54071428Y-57145295D02*
X54071428Y-57288152D01*
X54071428Y-57288152D02*
X54023809Y-57383390D01*
X54023809Y-57383390D02*
X53976190Y-57431009D01*
X53976190Y-57431009D02*
X53880952Y-57478628D01*
X53880952Y-57478628D02*
X53500000Y-57478628D01*
X54500000Y-57431009D02*
X54833333Y-57431009D01*
X54976190Y-57954819D02*
X54500000Y-57954819D01*
X54500000Y-57954819D02*
X54500000Y-56954819D01*
X54500000Y-56954819D02*
X54976190Y-56954819D01*
X55404762Y-57431009D02*
X55738095Y-57431009D01*
X55880952Y-57954819D02*
X55404762Y-57954819D01*
X55404762Y-57954819D02*
X55404762Y-56954819D01*
X55404762Y-56954819D02*
X55880952Y-56954819D01*
X56309524Y-57954819D02*
X56309524Y-56954819D01*
X56309524Y-56954819D02*
X56880952Y-57954819D01*
X56880952Y-57954819D02*
X56880952Y-56954819D01*
X57119048Y-58050057D02*
X57880952Y-58050057D01*
X58119048Y-57431009D02*
X58452381Y-57431009D01*
X58595238Y-57954819D02*
X58119048Y-57954819D01*
X58119048Y-57954819D02*
X58119048Y-56954819D01*
X58119048Y-56954819D02*
X58595238Y-56954819D01*
X59023810Y-57954819D02*
X59023810Y-56954819D01*
X59023810Y-56954819D02*
X59357143Y-57669104D01*
X59357143Y-57669104D02*
X59690476Y-56954819D01*
X59690476Y-56954819D02*
X59690476Y-57954819D01*
X60500000Y-57431009D02*
X60166667Y-57431009D01*
X60166667Y-57954819D02*
X60166667Y-56954819D01*
X60166667Y-56954819D02*
X60642857Y-56954819D01*
X61547619Y-57954819D02*
X60976191Y-57954819D01*
X61261905Y-57954819D02*
X61261905Y-56954819D01*
X61261905Y-56954819D02*
X61166667Y-57097676D01*
X61166667Y-57097676D02*
X61071429Y-57192914D01*
X61071429Y-57192914D02*
X60976191Y-57240533D01*
X52666666Y-61454819D02*
X52666666Y-60454819D01*
X52666666Y-60454819D02*
X53047618Y-60454819D01*
X53047618Y-60454819D02*
X53142856Y-60502438D01*
X53142856Y-60502438D02*
X53190475Y-60550057D01*
X53190475Y-60550057D02*
X53238094Y-60645295D01*
X53238094Y-60645295D02*
X53238094Y-60788152D01*
X53238094Y-60788152D02*
X53190475Y-60883390D01*
X53190475Y-60883390D02*
X53142856Y-60931009D01*
X53142856Y-60931009D02*
X53047618Y-60978628D01*
X53047618Y-60978628D02*
X52666666Y-60978628D01*
X53857142Y-60454819D02*
X54047618Y-60454819D01*
X54047618Y-60454819D02*
X54142856Y-60502438D01*
X54142856Y-60502438D02*
X54238094Y-60597676D01*
X54238094Y-60597676D02*
X54285713Y-60788152D01*
X54285713Y-60788152D02*
X54285713Y-61121485D01*
X54285713Y-61121485D02*
X54238094Y-61311961D01*
X54238094Y-61311961D02*
X54142856Y-61407200D01*
X54142856Y-61407200D02*
X54047618Y-61454819D01*
X54047618Y-61454819D02*
X53857142Y-61454819D01*
X53857142Y-61454819D02*
X53761904Y-61407200D01*
X53761904Y-61407200D02*
X53666666Y-61311961D01*
X53666666Y-61311961D02*
X53619047Y-61121485D01*
X53619047Y-61121485D02*
X53619047Y-60788152D01*
X53619047Y-60788152D02*
X53666666Y-60597676D01*
X53666666Y-60597676D02*
X53761904Y-60502438D01*
X53761904Y-60502438D02*
X53857142Y-60454819D01*
X54571428Y-60454819D02*
X55142856Y-60454819D01*
X54857142Y-61454819D02*
X54857142Y-60454819D01*
X55238095Y-61550057D02*
X55999999Y-61550057D01*
X56809523Y-61454819D02*
X56476190Y-60978628D01*
X56238095Y-61454819D02*
X56238095Y-60454819D01*
X56238095Y-60454819D02*
X56619047Y-60454819D01*
X56619047Y-60454819D02*
X56714285Y-60502438D01*
X56714285Y-60502438D02*
X56761904Y-60550057D01*
X56761904Y-60550057D02*
X56809523Y-60645295D01*
X56809523Y-60645295D02*
X56809523Y-60788152D01*
X56809523Y-60788152D02*
X56761904Y-60883390D01*
X56761904Y-60883390D02*
X56714285Y-60931009D01*
X56714285Y-60931009D02*
X56619047Y-60978628D01*
X56619047Y-60978628D02*
X56238095Y-60978628D01*
X57238095Y-60454819D02*
X57238095Y-61264342D01*
X57238095Y-61264342D02*
X57285714Y-61359580D01*
X57285714Y-61359580D02*
X57333333Y-61407200D01*
X57333333Y-61407200D02*
X57428571Y-61454819D01*
X57428571Y-61454819D02*
X57619047Y-61454819D01*
X57619047Y-61454819D02*
X57714285Y-61407200D01*
X57714285Y-61407200D02*
X57761904Y-61359580D01*
X57761904Y-61359580D02*
X57809523Y-61264342D01*
X57809523Y-61264342D02*
X57809523Y-60454819D01*
X58285714Y-61454819D02*
X58285714Y-60454819D01*
X58285714Y-60454819D02*
X58857142Y-61454819D01*
X58857142Y-61454819D02*
X58857142Y-60454819D01*
X59095238Y-61550057D02*
X59857142Y-61550057D01*
X59952381Y-60454819D02*
X60523809Y-60454819D01*
X60238095Y-61454819D02*
X60238095Y-60454819D01*
X61380952Y-61454819D02*
X60809524Y-61454819D01*
X61095238Y-61454819D02*
X61095238Y-60454819D01*
X61095238Y-60454819D02*
X61000000Y-60597676D01*
X61000000Y-60597676D02*
X60904762Y-60692914D01*
X60904762Y-60692914D02*
X60809524Y-60740533D01*
X63285713Y-57954819D02*
X62952380Y-57478628D01*
X62714285Y-57954819D02*
X62714285Y-56954819D01*
X62714285Y-56954819D02*
X63095237Y-56954819D01*
X63095237Y-56954819D02*
X63190475Y-57002438D01*
X63190475Y-57002438D02*
X63238094Y-57050057D01*
X63238094Y-57050057D02*
X63285713Y-57145295D01*
X63285713Y-57145295D02*
X63285713Y-57288152D01*
X63285713Y-57288152D02*
X63238094Y-57383390D01*
X63238094Y-57383390D02*
X63190475Y-57431009D01*
X63190475Y-57431009D02*
X63095237Y-57478628D01*
X63095237Y-57478628D02*
X62714285Y-57478628D01*
X63714285Y-57431009D02*
X64047618Y-57431009D01*
X64190475Y-57954819D02*
X63714285Y-57954819D01*
X63714285Y-57954819D02*
X63714285Y-56954819D01*
X63714285Y-56954819D02*
X64190475Y-56954819D01*
X64619047Y-57954819D02*
X64619047Y-56954819D01*
X64619047Y-56954819D02*
X64857142Y-56954819D01*
X64857142Y-56954819D02*
X64999999Y-57002438D01*
X64999999Y-57002438D02*
X65095237Y-57097676D01*
X65095237Y-57097676D02*
X65142856Y-57192914D01*
X65142856Y-57192914D02*
X65190475Y-57383390D01*
X65190475Y-57383390D02*
X65190475Y-57526247D01*
X65190475Y-57526247D02*
X65142856Y-57716723D01*
X65142856Y-57716723D02*
X65095237Y-57811961D01*
X65095237Y-57811961D02*
X64999999Y-57907200D01*
X64999999Y-57907200D02*
X64857142Y-57954819D01*
X64857142Y-57954819D02*
X64619047Y-57954819D01*
X65380952Y-58050057D02*
X66142856Y-58050057D01*
X66380952Y-57954819D02*
X66380952Y-56954819D01*
X66380952Y-56954819D02*
X66761904Y-56954819D01*
X66761904Y-56954819D02*
X66857142Y-57002438D01*
X66857142Y-57002438D02*
X66904761Y-57050057D01*
X66904761Y-57050057D02*
X66952380Y-57145295D01*
X66952380Y-57145295D02*
X66952380Y-57288152D01*
X66952380Y-57288152D02*
X66904761Y-57383390D01*
X66904761Y-57383390D02*
X66857142Y-57431009D01*
X66857142Y-57431009D02*
X66761904Y-57478628D01*
X66761904Y-57478628D02*
X66380952Y-57478628D01*
X67523809Y-57954819D02*
X67428571Y-57907200D01*
X67428571Y-57907200D02*
X67380952Y-57859580D01*
X67380952Y-57859580D02*
X67333333Y-57764342D01*
X67333333Y-57764342D02*
X67333333Y-57478628D01*
X67333333Y-57478628D02*
X67380952Y-57383390D01*
X67380952Y-57383390D02*
X67428571Y-57335771D01*
X67428571Y-57335771D02*
X67523809Y-57288152D01*
X67523809Y-57288152D02*
X67666666Y-57288152D01*
X67666666Y-57288152D02*
X67761904Y-57335771D01*
X67761904Y-57335771D02*
X67809523Y-57383390D01*
X67809523Y-57383390D02*
X67857142Y-57478628D01*
X67857142Y-57478628D02*
X67857142Y-57764342D01*
X67857142Y-57764342D02*
X67809523Y-57859580D01*
X67809523Y-57859580D02*
X67761904Y-57907200D01*
X67761904Y-57907200D02*
X67666666Y-57954819D01*
X67666666Y-57954819D02*
X67523809Y-57954819D01*
X68190476Y-57288152D02*
X68380952Y-57954819D01*
X68380952Y-57954819D02*
X68571428Y-57478628D01*
X68571428Y-57478628D02*
X68761904Y-57954819D01*
X68761904Y-57954819D02*
X68952380Y-57288152D01*
X69714285Y-57907200D02*
X69619047Y-57954819D01*
X69619047Y-57954819D02*
X69428571Y-57954819D01*
X69428571Y-57954819D02*
X69333333Y-57907200D01*
X69333333Y-57907200D02*
X69285714Y-57811961D01*
X69285714Y-57811961D02*
X69285714Y-57431009D01*
X69285714Y-57431009D02*
X69333333Y-57335771D01*
X69333333Y-57335771D02*
X69428571Y-57288152D01*
X69428571Y-57288152D02*
X69619047Y-57288152D01*
X69619047Y-57288152D02*
X69714285Y-57335771D01*
X69714285Y-57335771D02*
X69761904Y-57431009D01*
X69761904Y-57431009D02*
X69761904Y-57526247D01*
X69761904Y-57526247D02*
X69285714Y-57621485D01*
X70190476Y-57954819D02*
X70190476Y-57288152D01*
X70190476Y-57478628D02*
X70238095Y-57383390D01*
X70238095Y-57383390D02*
X70285714Y-57335771D01*
X70285714Y-57335771D02*
X70380952Y-57288152D01*
X70380952Y-57288152D02*
X70476190Y-57288152D01*
X71333333Y-57954819D02*
X70761905Y-57954819D01*
X71047619Y-57954819D02*
X71047619Y-56954819D01*
X71047619Y-56954819D02*
X70952381Y-57097676D01*
X70952381Y-57097676D02*
X70857143Y-57192914D01*
X70857143Y-57192914D02*
X70761905Y-57240533D01*
X38189819Y-29536904D02*
X38999342Y-29536904D01*
X38999342Y-29536904D02*
X39094580Y-29489285D01*
X39094580Y-29489285D02*
X39142200Y-29441666D01*
X39142200Y-29441666D02*
X39189819Y-29346428D01*
X39189819Y-29346428D02*
X39189819Y-29155952D01*
X39189819Y-29155952D02*
X39142200Y-29060714D01*
X39142200Y-29060714D02*
X39094580Y-29013095D01*
X39094580Y-29013095D02*
X38999342Y-28965476D01*
X38999342Y-28965476D02*
X38189819Y-28965476D01*
X38285057Y-28536904D02*
X38237438Y-28489285D01*
X38237438Y-28489285D02*
X38189819Y-28394047D01*
X38189819Y-28394047D02*
X38189819Y-28155952D01*
X38189819Y-28155952D02*
X38237438Y-28060714D01*
X38237438Y-28060714D02*
X38285057Y-28013095D01*
X38285057Y-28013095D02*
X38380295Y-27965476D01*
X38380295Y-27965476D02*
X38475533Y-27965476D01*
X38475533Y-27965476D02*
X38618390Y-28013095D01*
X38618390Y-28013095D02*
X39189819Y-28584523D01*
X39189819Y-28584523D02*
X39189819Y-27965476D01*
X25887200Y-24611904D02*
X25934819Y-24469047D01*
X25934819Y-24469047D02*
X25934819Y-24230952D01*
X25934819Y-24230952D02*
X25887200Y-24135714D01*
X25887200Y-24135714D02*
X25839580Y-24088095D01*
X25839580Y-24088095D02*
X25744342Y-24040476D01*
X25744342Y-24040476D02*
X25649104Y-24040476D01*
X25649104Y-24040476D02*
X25553866Y-24088095D01*
X25553866Y-24088095D02*
X25506247Y-24135714D01*
X25506247Y-24135714D02*
X25458628Y-24230952D01*
X25458628Y-24230952D02*
X25411009Y-24421428D01*
X25411009Y-24421428D02*
X25363390Y-24516666D01*
X25363390Y-24516666D02*
X25315771Y-24564285D01*
X25315771Y-24564285D02*
X25220533Y-24611904D01*
X25220533Y-24611904D02*
X25125295Y-24611904D01*
X25125295Y-24611904D02*
X25030057Y-24564285D01*
X25030057Y-24564285D02*
X24982438Y-24516666D01*
X24982438Y-24516666D02*
X24934819Y-24421428D01*
X24934819Y-24421428D02*
X24934819Y-24183333D01*
X24934819Y-24183333D02*
X24982438Y-24040476D01*
X25934819Y-23611904D02*
X24934819Y-23611904D01*
X24934819Y-23611904D02*
X24934819Y-23230952D01*
X24934819Y-23230952D02*
X24982438Y-23135714D01*
X24982438Y-23135714D02*
X25030057Y-23088095D01*
X25030057Y-23088095D02*
X25125295Y-23040476D01*
X25125295Y-23040476D02*
X25268152Y-23040476D01*
X25268152Y-23040476D02*
X25363390Y-23088095D01*
X25363390Y-23088095D02*
X25411009Y-23135714D01*
X25411009Y-23135714D02*
X25458628Y-23230952D01*
X25458628Y-23230952D02*
X25458628Y-23611904D01*
X25934819Y-22611904D02*
X24934819Y-22611904D01*
X25934819Y-22040476D02*
X25363390Y-22469047D01*
X24934819Y-22040476D02*
X25506247Y-22611904D01*
X25934819Y-21088095D02*
X25934819Y-21659523D01*
X25934819Y-21373809D02*
X24934819Y-21373809D01*
X24934819Y-21373809D02*
X25077676Y-21469047D01*
X25077676Y-21469047D02*
X25172914Y-21564285D01*
X25172914Y-21564285D02*
X25220533Y-21659523D01*
X21119047Y-53954819D02*
X20785714Y-53478628D01*
X20547619Y-53954819D02*
X20547619Y-52954819D01*
X20547619Y-52954819D02*
X20928571Y-52954819D01*
X20928571Y-52954819D02*
X21023809Y-53002438D01*
X21023809Y-53002438D02*
X21071428Y-53050057D01*
X21071428Y-53050057D02*
X21119047Y-53145295D01*
X21119047Y-53145295D02*
X21119047Y-53288152D01*
X21119047Y-53288152D02*
X21071428Y-53383390D01*
X21071428Y-53383390D02*
X21023809Y-53431009D01*
X21023809Y-53431009D02*
X20928571Y-53478628D01*
X20928571Y-53478628D02*
X20547619Y-53478628D01*
X21547619Y-53431009D02*
X21880952Y-53431009D01*
X22023809Y-53954819D02*
X21547619Y-53954819D01*
X21547619Y-53954819D02*
X21547619Y-52954819D01*
X21547619Y-52954819D02*
X22023809Y-52954819D01*
X22928571Y-53954819D02*
X22452381Y-53954819D01*
X22452381Y-53954819D02*
X22452381Y-52954819D01*
X23214286Y-53669104D02*
X23690476Y-53669104D01*
X23119048Y-53954819D02*
X23452381Y-52954819D01*
X23452381Y-52954819D02*
X23785714Y-53954819D01*
X24309524Y-53478628D02*
X24309524Y-53954819D01*
X23976191Y-52954819D02*
X24309524Y-53478628D01*
X24309524Y-53478628D02*
X24642857Y-52954819D01*
X24928572Y-53050057D02*
X24976191Y-53002438D01*
X24976191Y-53002438D02*
X25071429Y-52954819D01*
X25071429Y-52954819D02*
X25309524Y-52954819D01*
X25309524Y-52954819D02*
X25404762Y-53002438D01*
X25404762Y-53002438D02*
X25452381Y-53050057D01*
X25452381Y-53050057D02*
X25500000Y-53145295D01*
X25500000Y-53145295D02*
X25500000Y-53240533D01*
X25500000Y-53240533D02*
X25452381Y-53383390D01*
X25452381Y-53383390D02*
X24880953Y-53954819D01*
X24880953Y-53954819D02*
X25500000Y-53954819D01*
X21119047Y-59954819D02*
X20785714Y-59478628D01*
X20547619Y-59954819D02*
X20547619Y-58954819D01*
X20547619Y-58954819D02*
X20928571Y-58954819D01*
X20928571Y-58954819D02*
X21023809Y-59002438D01*
X21023809Y-59002438D02*
X21071428Y-59050057D01*
X21071428Y-59050057D02*
X21119047Y-59145295D01*
X21119047Y-59145295D02*
X21119047Y-59288152D01*
X21119047Y-59288152D02*
X21071428Y-59383390D01*
X21071428Y-59383390D02*
X21023809Y-59431009D01*
X21023809Y-59431009D02*
X20928571Y-59478628D01*
X20928571Y-59478628D02*
X20547619Y-59478628D01*
X21547619Y-59431009D02*
X21880952Y-59431009D01*
X22023809Y-59954819D02*
X21547619Y-59954819D01*
X21547619Y-59954819D02*
X21547619Y-58954819D01*
X21547619Y-58954819D02*
X22023809Y-58954819D01*
X22928571Y-59954819D02*
X22452381Y-59954819D01*
X22452381Y-59954819D02*
X22452381Y-58954819D01*
X23214286Y-59669104D02*
X23690476Y-59669104D01*
X23119048Y-59954819D02*
X23452381Y-58954819D01*
X23452381Y-58954819D02*
X23785714Y-59954819D01*
X24309524Y-59478628D02*
X24309524Y-59954819D01*
X23976191Y-58954819D02*
X24309524Y-59478628D01*
X24309524Y-59478628D02*
X24642857Y-58954819D01*
X25500000Y-59954819D02*
X24928572Y-59954819D01*
X25214286Y-59954819D02*
X25214286Y-58954819D01*
X25214286Y-58954819D02*
X25119048Y-59097676D01*
X25119048Y-59097676D02*
X25023810Y-59192914D01*
X25023810Y-59192914D02*
X24928572Y-59240533D01*
X47253333Y-26824819D02*
X46920000Y-26348628D01*
X46681905Y-26824819D02*
X46681905Y-25824819D01*
X46681905Y-25824819D02*
X47062857Y-25824819D01*
X47062857Y-25824819D02*
X47158095Y-25872438D01*
X47158095Y-25872438D02*
X47205714Y-25920057D01*
X47205714Y-25920057D02*
X47253333Y-26015295D01*
X47253333Y-26015295D02*
X47253333Y-26158152D01*
X47253333Y-26158152D02*
X47205714Y-26253390D01*
X47205714Y-26253390D02*
X47158095Y-26301009D01*
X47158095Y-26301009D02*
X47062857Y-26348628D01*
X47062857Y-26348628D02*
X46681905Y-26348628D01*
X48158095Y-25824819D02*
X47681905Y-25824819D01*
X47681905Y-25824819D02*
X47634286Y-26301009D01*
X47634286Y-26301009D02*
X47681905Y-26253390D01*
X47681905Y-26253390D02*
X47777143Y-26205771D01*
X47777143Y-26205771D02*
X48015238Y-26205771D01*
X48015238Y-26205771D02*
X48110476Y-26253390D01*
X48110476Y-26253390D02*
X48158095Y-26301009D01*
X48158095Y-26301009D02*
X48205714Y-26396247D01*
X48205714Y-26396247D02*
X48205714Y-26634342D01*
X48205714Y-26634342D02*
X48158095Y-26729580D01*
X48158095Y-26729580D02*
X48110476Y-26777200D01*
X48110476Y-26777200D02*
X48015238Y-26824819D01*
X48015238Y-26824819D02*
X47777143Y-26824819D01*
X47777143Y-26824819D02*
X47681905Y-26777200D01*
X47681905Y-26777200D02*
X47634286Y-26729580D01*
X53563404Y-26669104D02*
X54039594Y-26669104D01*
X53468166Y-26954819D02*
X53801499Y-25954819D01*
X53801499Y-25954819D02*
X54134832Y-26954819D01*
X54468166Y-26288152D02*
X54468166Y-26954819D01*
X54468166Y-26383390D02*
X54515785Y-26335771D01*
X54515785Y-26335771D02*
X54611023Y-26288152D01*
X54611023Y-26288152D02*
X54753880Y-26288152D01*
X54753880Y-26288152D02*
X54849118Y-26335771D01*
X54849118Y-26335771D02*
X54896737Y-26431009D01*
X54896737Y-26431009D02*
X54896737Y-26954819D01*
X55230071Y-26288152D02*
X55611023Y-26288152D01*
X55372928Y-25954819D02*
X55372928Y-26811961D01*
X55372928Y-26811961D02*
X55420547Y-26907200D01*
X55420547Y-26907200D02*
X55515785Y-26954819D01*
X55515785Y-26954819D02*
X55611023Y-26954819D01*
X56325309Y-26907200D02*
X56230071Y-26954819D01*
X56230071Y-26954819D02*
X56039595Y-26954819D01*
X56039595Y-26954819D02*
X55944357Y-26907200D01*
X55944357Y-26907200D02*
X55896738Y-26811961D01*
X55896738Y-26811961D02*
X55896738Y-26431009D01*
X55896738Y-26431009D02*
X55944357Y-26335771D01*
X55944357Y-26335771D02*
X56039595Y-26288152D01*
X56039595Y-26288152D02*
X56230071Y-26288152D01*
X56230071Y-26288152D02*
X56325309Y-26335771D01*
X56325309Y-26335771D02*
X56372928Y-26431009D01*
X56372928Y-26431009D02*
X56372928Y-26526247D01*
X56372928Y-26526247D02*
X55896738Y-26621485D01*
X56801500Y-26288152D02*
X56801500Y-26954819D01*
X56801500Y-26383390D02*
X56849119Y-26335771D01*
X56849119Y-26335771D02*
X56944357Y-26288152D01*
X56944357Y-26288152D02*
X57087214Y-26288152D01*
X57087214Y-26288152D02*
X57182452Y-26335771D01*
X57182452Y-26335771D02*
X57230071Y-26431009D01*
X57230071Y-26431009D02*
X57230071Y-26954819D01*
X57706262Y-26288152D02*
X57706262Y-26954819D01*
X57706262Y-26383390D02*
X57753881Y-26335771D01*
X57753881Y-26335771D02*
X57849119Y-26288152D01*
X57849119Y-26288152D02*
X57991976Y-26288152D01*
X57991976Y-26288152D02*
X58087214Y-26335771D01*
X58087214Y-26335771D02*
X58134833Y-26431009D01*
X58134833Y-26431009D02*
X58134833Y-26954819D01*
X59039595Y-26954819D02*
X59039595Y-26431009D01*
X59039595Y-26431009D02*
X58991976Y-26335771D01*
X58991976Y-26335771D02*
X58896738Y-26288152D01*
X58896738Y-26288152D02*
X58706262Y-26288152D01*
X58706262Y-26288152D02*
X58611024Y-26335771D01*
X59039595Y-26907200D02*
X58944357Y-26954819D01*
X58944357Y-26954819D02*
X58706262Y-26954819D01*
X58706262Y-26954819D02*
X58611024Y-26907200D01*
X58611024Y-26907200D02*
X58563405Y-26811961D01*
X58563405Y-26811961D02*
X58563405Y-26716723D01*
X58563405Y-26716723D02*
X58611024Y-26621485D01*
X58611024Y-26621485D02*
X58706262Y-26573866D01*
X58706262Y-26573866D02*
X58944357Y-26573866D01*
X58944357Y-26573866D02*
X59039595Y-26526247D01*
X60039595Y-26954819D02*
X59468167Y-26954819D01*
X59753881Y-26954819D02*
X59753881Y-25954819D01*
X59753881Y-25954819D02*
X59658643Y-26097676D01*
X59658643Y-26097676D02*
X59563405Y-26192914D01*
X59563405Y-26192914D02*
X59468167Y-26240533D01*
D12*
%TO.C,POT_SENSITIVITY1*%
X36750000Y-62050000D02*
X49250000Y-62050000D01*
X36750000Y-64950000D02*
X36750000Y-62050000D01*
X40500000Y-62050000D02*
X40500000Y-64950000D01*
X49250000Y-62050000D02*
X49250000Y-64950000D01*
X49250000Y-64950000D02*
X36750000Y-64950000D01*
%TO.C,GREEN_EMF1*%
X61230000Y-53500000D02*
G75*
G02*
X56230000Y-53500000I-2500000J0D01*
G01*
X56230000Y-53500000D02*
G75*
G02*
X61230000Y-53500000I2500000J0D01*
G01*
X61720000Y-53500048D02*
G75*
G02*
X56170000Y-55044830I-2990000J48D01*
G01*
X56170000Y-51955170D02*
G75*
G02*
X61720000Y-53499952I2560000J-1544830D01*
G01*
X56170000Y-51955000D02*
X56170000Y-55045000D01*
%TO.C,R4*%
X40460000Y-31000000D02*
X41230000Y-31000000D01*
X41230000Y-29630000D02*
X41230000Y-32370000D01*
X41230000Y-32370000D02*
X47770000Y-32370000D01*
X47770000Y-29630000D02*
X41230000Y-29630000D01*
X47770000Y-32370000D02*
X47770000Y-29630000D01*
X48540000Y-31000000D02*
X47770000Y-31000000D01*
%TO.C,POT_RUN_T1*%
X51250000Y-62050000D02*
X63750000Y-62050000D01*
X51250000Y-64950000D02*
X51250000Y-62050000D01*
X55000000Y-62050000D02*
X55000000Y-64950000D01*
X63750000Y-62050000D02*
X63750000Y-64950000D01*
X63750000Y-64950000D02*
X51250000Y-64950000D01*
%TO.C,R1*%
X40460000Y-40500000D02*
X41230000Y-40500000D01*
X41230000Y-39130000D02*
X41230000Y-41870000D01*
X41230000Y-41870000D02*
X47770000Y-41870000D01*
X47770000Y-39130000D02*
X41230000Y-39130000D01*
X47770000Y-41870000D02*
X47770000Y-39130000D01*
X48540000Y-40500000D02*
X47770000Y-40500000D01*
%TO.C,RED_Power1*%
X64710000Y-51955000D02*
X64710000Y-55045000D01*
X64710000Y-51955170D02*
G75*
G02*
X70260000Y-53499952I2560000J-1544830D01*
G01*
X70260000Y-53500048D02*
G75*
G02*
X64710000Y-55044830I-2990000J48D01*
G01*
X69770000Y-53500000D02*
G75*
G02*
X64770000Y-53500000I-2500000J0D01*
G01*
X64770000Y-53500000D02*
G75*
G02*
X69770000Y-53500000I2500000J0D01*
G01*
D13*
%TO.C,U2*%
X17340000Y-25840000D02*
X37660000Y-25840000D01*
X37660000Y-25840000D02*
X37660000Y-46160000D01*
X37660000Y-46160000D02*
X17340000Y-46160000D01*
X17340000Y-46160000D02*
X17340000Y-25840000D01*
D10*
X36490000Y-25200000D02*
G75*
G02*
X36290000Y-25200000I-100000J0D01*
G01*
X36290000Y-25200000D02*
G75*
G02*
X36490000Y-25200000I100000J0D01*
G01*
D12*
%TO.C,SPK1*%
X26480000Y-24180000D02*
X26480000Y-22850000D01*
X27810000Y-24180000D02*
X26480000Y-24180000D01*
X29080000Y-24180000D02*
X31680000Y-24180000D01*
X29080000Y-24180000D02*
X29080000Y-21520000D01*
X31680000Y-24180000D02*
X31680000Y-21520000D01*
X29080000Y-21520000D02*
X31680000Y-21520000D01*
%TO.C,RELAY2*%
X20590000Y-52330000D02*
X20590000Y-51000000D01*
X21920000Y-52330000D02*
X20590000Y-52330000D01*
X23190000Y-52330000D02*
X28330000Y-52330000D01*
X23190000Y-52330000D02*
X23190000Y-49670000D01*
X28330000Y-52330000D02*
X28330000Y-49670000D01*
X23190000Y-49670000D02*
X28330000Y-49670000D01*
%TO.C,RELAY1*%
X20630000Y-58330000D02*
X20630000Y-57000000D01*
X21960000Y-58330000D02*
X20630000Y-58330000D01*
X23230000Y-58330000D02*
X28370000Y-58330000D01*
X23230000Y-58330000D02*
X23230000Y-55670000D01*
X28370000Y-58330000D02*
X28370000Y-55670000D01*
X23230000Y-55670000D02*
X28370000Y-55670000D01*
%TO.C,R5*%
X51460000Y-24000000D02*
X50690000Y-24000000D01*
X50690000Y-25370000D02*
X50690000Y-22630000D01*
X50690000Y-22630000D02*
X44150000Y-22630000D01*
X44150000Y-25370000D02*
X50690000Y-25370000D01*
X44150000Y-22630000D02*
X44150000Y-25370000D01*
X43380000Y-24000000D02*
X44150000Y-24000000D01*
%TO.C,R3*%
X48540000Y-35000000D02*
X47770000Y-35000000D01*
X47770000Y-36370000D02*
X47770000Y-33630000D01*
X47770000Y-33630000D02*
X41230000Y-33630000D01*
X41230000Y-36370000D02*
X47770000Y-36370000D01*
X41230000Y-33630000D02*
X41230000Y-36370000D01*
X40460000Y-35000000D02*
X41230000Y-35000000D01*
%TO.C,R2*%
X40460000Y-45000000D02*
X41230000Y-45000000D01*
X41230000Y-43630000D02*
X41230000Y-46370000D01*
X41230000Y-46370000D02*
X47770000Y-46370000D01*
X47770000Y-43630000D02*
X41230000Y-43630000D01*
X47770000Y-46370000D02*
X47770000Y-43630000D01*
X48540000Y-45000000D02*
X47770000Y-45000000D01*
%TO.C,Antenna1*%
X58131500Y-24950000D02*
X56801500Y-24950000D01*
X58131500Y-23620000D02*
X58131500Y-24950000D01*
X58131500Y-22350000D02*
X58131500Y-22290000D01*
X58131500Y-22350000D02*
X55471500Y-22350000D01*
X58131500Y-22290000D02*
X55471500Y-22290000D01*
X55471500Y-22350000D02*
X55471500Y-22290000D01*
D13*
%TO.C,U1*%
X53172500Y-29610000D02*
X70317500Y-29610000D01*
X51267500Y-31515000D02*
X51267500Y-45485000D01*
X72222500Y-34005000D02*
X73232772Y-34008728D01*
X73732500Y-34508728D02*
X73732500Y-42504000D01*
X73232500Y-43004000D02*
X72222500Y-43004000D01*
D14*
X72222500Y-45485000D02*
X72222500Y-31515000D01*
D13*
X72222500Y-45485000D02*
X72222500Y-31515000D01*
X53172500Y-47390000D02*
X70317500Y-47390000D01*
X70317500Y-29610000D02*
G75*
G02*
X72222500Y-31515000I-1J-1905001D01*
G01*
X51267500Y-31515000D02*
G75*
G02*
X53172500Y-29610000I1905001J-1D01*
G01*
X73232772Y-34008728D02*
G75*
G02*
X73732499Y-34508728I-291J-500018D01*
G01*
X73732500Y-42504000D02*
G75*
G02*
X73232500Y-43004000I-500000J0D01*
G01*
X72222500Y-45485000D02*
G75*
G02*
X70317500Y-47390000I-1905000J0D01*
G01*
X53172500Y-47390000D02*
G75*
G02*
X51267500Y-45485000I0J1905000D01*
G01*
D15*
X72333500Y-29646000D02*
G75*
G02*
X71829500Y-29646000I-252000J0D01*
G01*
X71829500Y-29646000D02*
G75*
G02*
X72333500Y-29646000I252000J0D01*
G01*
X71453500Y-30789000D02*
G75*
G02*
X70949500Y-30789000I-252000J0D01*
G01*
X70949500Y-30789000D02*
G75*
G02*
X71453500Y-30789000I252000J0D01*
G01*
%TD*%
M02*
